<svg xmlns="http://www.w3.org/2000/svg" width="18" height="16" viewBox="0 0 18 16">
    <g fill="none" fill-rule="evenodd" stroke-opacity=".304">
        <g fill="#FFF" fill-rule="nonzero" stroke="#000">
            <g>
                <path d="M23.199 11.5c1.343 0 2.405.369 3.17 1.143.767.777 1.131 1.86 1.131 3.232 0 1.428-.74 2.868-2.154 4.334h0l-5.926 5.92-6.787-5.952c-.366-.369-.541-.584-.78-.894-.241-.312-.457-.632-.647-.96-.185-.32-.349-.708-.494-1.163-.14-.44-.212-.869-.212-1.285 0-1.372.364-2.455 1.131-3.232.765-.774 1.827-1.143 3.17-1.143.362 0 .731.066 1.107.196.39.135.752.317 1.088.545.357.244.664.472.921.685.254.21.495.434.723.671.124.129.244.26.36.396.116-.135.236-.267.36-.396.228-.237.47-.46.722-.67.258-.214.565-.442.923-.686.334-.228.697-.41 1.086-.545.377-.13.746-.196 1.108-.196z" transform="translate(-211 -71) translate(201 60)"/>
            </g>
        </g>
    </g>
</svg>
