<?xml version="1.0" encoding="UTF-8"?>
<svg width="24px" height="325px" viewBox="0 0 24 325" version="1.1" xmlns="http://www.w3.org/2000/svg" xmlns:xlink="http://www.w3.org/1999/xlink">
    <!-- Generator: Sketch 54 (76480) - https://sketchapp.com -->
    <title>burger_sprite</title>
    <desc>Created with Sketch.</desc>
    <g id="Новая-мобильная-версия-02" stroke="none" stroke-width="1" fill="none" fill-rule="evenodd">
        <g id="07_mobile_burger_menu_iconset" transform="translate(-259.000000, -70.000000)">
            <g id="burger_sprite" transform="translate(259.000000, 70.000000)">
                <g id="Group-7-Copy-5" transform="translate(2.000000, 113.000000)" fill-rule="nonzero">
                    <g id="1559689-copy" transform="translate(9.533333, 6.600000)">
                        <path d="M2.93333333,15.0333333 L0.366656954,15.0333333 C0.364211209,13.8657255 0.827413506,12.7453302 1.65366667,11.9203333 C1.83421483,11.7379838 2.03190521,11.5734465 2.244,11.429 C2.98230327,10.9091419 3.86370524,10.6311416 4.76666667,10.6333333 L6.23333333,12.1 L7.7,10.6333333 C10.1300529,10.6333333 12.1,12.6032804 12.1,15.0333333 L2.93333333,15.0333333 Z" id="Path" fill="#BDDBFF"></path>
                        <path d="M6.08666667,3.31466667 C6.1841351,3.30366727 6.28253156,3.30366727 6.38,3.31466667 L9.47833333,3.62266667 L9.53333333,3.63366667 C9.62731437,3.65726348 9.70801288,3.71734871 9.75756261,3.80061977 C9.80711233,3.88389083 9.82142553,3.98347807 9.79733333,4.07733333 L9.62133333,4.78866667 C9.57137415,4.98059008 9.37872585,5.09876929 9.185,5.05633333 C9.17921871,5.05382274 9.17296885,5.05257276 9.16666667,5.05266667 C8.954,4.98666667 6.94833333,4.4 6.23333333,4.4 C5.51833333,4.4 3.51266667,4.98666667 3.3,5.05266667 C3.29369781,5.05257276 3.28744795,5.05382274 3.28166667,5.05633333 C3.08794082,5.09876929 2.89529252,4.98059008 2.84533333,4.78866667 L2.66933333,4.07733333 C2.64524114,3.98347807 2.65955434,3.88389083 2.70910406,3.80061977 C2.75865378,3.71734871 2.8393523,3.65726348 2.93333333,3.63366667 L2.98833333,3.62266667 L6.08666667,3.31466667 Z" id="Path" fill="#BDDBFF"></path>
                        <path d="M9.53333333,1.76 L9.53333333,3.63366667 L9.47833333,3.62266667 L6.38,3.31466667 C6.28253156,3.30366727 6.1841351,3.30366727 6.08666667,3.31466667 L2.98833333,3.62266667 L2.93333333,3.63366667 L2.93333333,1.76 C2.93427259,1.58933109 3.05284273,1.44187848 3.21933333,1.40433333 C3.21933333,1.40433333 5.46333333,0.733333333 6.23333333,0.733333333 C6.97895667,0.809927931 7.71560618,0.957257834 8.43333333,1.17333333 C8.90266667,1.30166667 9.24733333,1.40433333 9.24733333,1.40433333 C9.41382394,1.44187848 9.53239408,1.58933109 9.53333333,1.76 Z" id="Path" fill="#BDDBFF"></path>
                        <path d="M8.06666667,10.2806 L8.06666667,9.49666667 C8.91968616,9.32124136 9.53223396,8.5708703 9.53333333,7.7 L9.53333333,6.96666667 C10.0515015,6.96475486 10.4980733,6.60147444 10.6054142,6.09454263 C10.7127551,5.58761083 10.4517549,5.07450469 9.97883333,4.86273333 L10.153,4.16606667 C10.2258436,3.88955136 10.1262103,3.59628316 9.9,3.42136667 L9.9,1.76 C9.9007862,1.42672956 9.67511516,1.13550213 9.3522,1.05306667 C9.11716667,0.983033333 7.03376667,0.366666667 6.23333333,0.366666667 C5.4329,0.366666667 3.3495,0.983033333 3.14013333,1.04646667 C2.8063043,1.12200935 2.56862885,1.41773596 2.56666667,1.76 L2.56666667,3.42136667 C2.34013558,3.59637603 2.24058197,3.89012418 2.31403333,4.1668 L2.48783333,4.86346667 C2.01583367,5.07573951 1.75564173,5.5883236 1.86288671,6.09462584 C1.9701317,6.60092807 2.41580429,6.96399587 2.93333333,6.96666667 L2.93333333,7.7 C2.93443271,8.5708703 3.54698051,9.32124136 4.4,9.49666667 L4.4,10.2809667 C1.91859669,10.4756048 0.00327644737,12.5443103 0,15.0333333 C0,15.2358377 0.164162258,15.4 0.366666667,15.4 L12.1,15.4 C12.3025044,15.4 12.4666667,15.2358377 12.4666667,15.0333333 C12.4635813,12.5441693 10.5482103,10.4752494 8.06666667,10.2806 Z M5.13333333,9.53333333 L7.33333333,9.53333333 L7.33333333,10.4815333 L6.23333333,11.5815333 L5.13333333,10.4815333 L5.13333333,9.53333333 Z M3.2021,4.69773333 L3.02536667,3.98933333 L6.1237,3.6795 C6.19686565,3.67248654 6.27053435,3.67248654 6.3437,3.6795 L9.44203333,3.98933333 L9.44203333,3.98933333 L9.28986667,4.7047 C9.0596,4.63613333 7.0202,4.03333333 6.23333333,4.03333333 C5.44646667,4.03333333 3.40706667,4.63613333 3.2021,4.69773333 Z M9.53333333,6.23333333 L9.53333333,5.5 C9.73583774,5.5 9.9,5.66416226 9.9,5.86666667 C9.9,6.06917107 9.73583774,6.23333333 9.53333333,6.23333333 Z M6.23333333,1.1 C6.82,1.1 8.53233333,1.57336667 9.16666667,1.76 L9.16666667,3.22666667 L6.41666667,2.95166667 C6.29474872,2.93947012 6.17191795,2.93947012 6.05,2.95166667 L3.3044,3.22593333 L3.32346667,1.75926667 C3.93433333,1.57336667 5.64666667,1.1 6.23333333,1.1 Z M2.56666667,5.86666667 C2.56666667,5.66416226 2.73082893,5.5 2.93333333,5.5 L2.93333333,6.23333333 C2.73082893,6.23333333 2.56666667,6.06917107 2.56666667,5.86666667 Z M3.66666667,7.7 L3.66666667,5.32583333 C4.50398704,5.06384895 5.36291487,4.87672539 6.23333333,4.76666667 C7.1037484,4.87655995 7.96268006,5.06356165 8.8,5.32546667 L8.8,7.7 C8.8,8.30751322 8.30751322,8.8 7.7,8.8 L4.76666667,8.8 C4.15915344,8.8 3.66666667,8.30751322 3.66666667,7.7 Z M9.9,14.6666667 L9.9,13.2 L9.16666667,13.2 L9.16666667,14.6666667 L3.3,14.6666667 L3.3,13.2 L2.56666667,13.2 L2.56666667,14.6666667 L0.749833333,14.6666667 C0.937768867,12.6479536 2.59394096,11.0818471 4.62,11.0069667 L5.97226667,12.3592333 C6.11544995,12.5023734 6.34755005,12.5023734 6.49073333,12.3592333 L7.84666667,11.0069667 C9.87272571,11.0818471 11.5288978,12.6479536 11.7168333,14.6666667 L9.9,14.6666667 Z" id="Shape" fill="#0670EC"></path>
                        <path d="M6.23333333,8.06666667 C7.5944,8.06666667 7.7,7.22333333 7.7,6.96666667 L6.96666667,6.96666667 C6.96666667,7.05723333 6.96666667,7.33333333 6.23333333,7.33333333 C5.5,7.33333333 5.5,7.05723333 5.5,6.96666667 L4.76666667,6.96666667 C4.76666667,7.22333333 4.87226667,8.06666667 6.23333333,8.06666667 Z" id="Path" fill="#3D9AE2"></path>
                        <circle id="Oval" fill="#3D9AE2" cx="5.13333333" cy="5.5" r="1"></circle>
                        <circle id="Oval" fill="#3D9AE2" cx="7.33333333" cy="5.5" r="1"></circle>
                    </g>
                    <g id="1559689">
                        <path d="M17.6,5.86666667 L17.6,1.1 C17.6,0.897495592 17.4358377,0.733333333 17.2333333,0.733333333 L11.7333333,0.733333333 L1.1,0.733333333 C0.897495592,0.733333333 0.733333333,0.897495592 0.733333333,1.1 L0.733333333,5.86666667 L0.733333333,17.2333333 C0.733333333,17.4358377 0.897495592,17.6 1.1,17.6 L9.9,17.6 L9.9,18.3333333 L1.1,18.3333333 C0.492486775,18.3333333 1.6283271e-16,17.8408466 0,17.2333333 L0,1.1 C1.6283271e-16,0.492486775 0.492486775,0 1.1,0 L17.2333333,0 C17.8408466,0 18.3333333,0.492486775 18.3333333,1.1 L18.3333333,6.6 L17.6,6.6 L17.6,5.86666667 Z" id="Combined-Shape" fill="#0670EC"></path>
                        <rect id="Rectangle" fill="#0670EC" x="2.93333333" y="12.4666667" width="3.66666667" height="1"></rect>
                        <rect id="Rectangle" fill="#0670EC" x="2.93333333" y="11" width="1" height="1"></rect>
                        <rect id="Rectangle" fill="#0670EC" x="4.4" y="11" width="4.4" height="1"></rect>
                        <rect id="Rectangle" fill="#0670EC" x="2.93333333" y="9.53333333" width="1" height="1"></rect>
                        <rect id="Rectangle" fill="#0670EC" x="4.4" y="9.53333333" width="4.4" height="1"></rect>
                        <rect id="Rectangle" fill="#0670EC" x="8.8" y="4.4" width="6.6" height="1"></rect>
                        <rect id="Rectangle" fill="#0670EC" x="8.8" y="5.86666667" width="2.93333333" height="1"></rect>
                        <rect id="Rectangle" fill="#0670EC" x="8.8" y="2.93333333" width="6.6" height="1"></rect>
                        <rect id="Rectangle" fill="#0670EC" x="2.93333333" y="2.93333333" width="4.4" height="5.13333333"></rect>
                        <rect id="Rectangle" fill="#BDDBFF" x="3.66666667" y="3.66666667" width="2.93333333" height="3.66666667"></rect>
                    </g>
                </g>
                <g id="Group-12-Copy-8" transform="translate(3.000000, 40.000000)">
                    <g id="Group-11">
                        <path d="M1.5,0 L17.0714286,0 C17.8998557,-1.52179594e-16 18.5714286,0.671572875 18.5714286,1.5 L18.5714286,15.5 C18.5714286,16.3284271 17.8998557,17 17.0714286,17 L1.5,17 C0.671572875,17 3.87621135e-15,16.3284271 3.77475828e-15,15.5 L0,1.5 C-1.01453063e-16,0.671572875 0.671572875,1.52179594e-16 1.5,0 Z" id="Rectangle" fill="#0670EC"></path>
                        <path d="M1.41428571,0.714285714 L17.1571429,0.714285714 C17.5437422,0.714285714 17.8571429,1.02768639 17.8571429,1.41428571 L17.8571429,15.5857143 C17.8571429,15.9723136 17.5437422,16.2857143 17.1571429,16.2857143 L1.41428571,16.2857143 C1.02768639,16.2857143 0.714285714,15.9723136 0.714285714,15.5857143 L0.714285714,1.41428571 C0.714285714,1.02768639 1.02768639,0.714285714 1.41428571,0.714285714 Z" id="Rectangle" fill="#FFFFFF"></path>
                        <rect id="Rectangle-Copy-14" fill="#0670EC" fill-rule="nonzero" x="8.57142857" y="4.57142857" width="7.85714286" height="1"></rect>
                        <rect id="Rectangle-Copy-15" fill="#0670EC" fill-rule="nonzero" x="8.57142857" y="6" width="5.71428571" height="1"></rect>
                        <rect id="Rectangle-Copy-16" fill="#0670EC" fill-rule="nonzero" x="8.57142857" y="3.14285714" width="7.85714286" height="1"></rect>
                        <rect id="Rectangle-Copy-12" fill="#0670EC" fill-rule="nonzero" x="2.14285714" y="3.14285714" width="5" height="4.28571429"></rect>
                        <rect id="Rectangle-Copy-13" fill="#BDDBFF" fill-rule="nonzero" x="2.85714286" y="3.85714286" width="3.57142857" height="2.85714286"></rect>
                        <rect id="Rectangle-Copy-14" fill="#0670EC" fill-rule="nonzero" x="8.57142857" y="11" width="7.85714286" height="1"></rect>
                        <rect id="Rectangle-Copy-15" fill="#0670EC" fill-rule="nonzero" x="8.57142857" y="12.4285714" width="5.71428571" height="1"></rect>
                        <rect id="Rectangle-Copy-16" fill="#0670EC" fill-rule="nonzero" x="8.57142857" y="9.57142857" width="7.85714286" height="1"></rect>
                        <rect id="Rectangle-Copy-12" fill="#0670EC" fill-rule="nonzero" x="2.14285714" y="9.57142857" width="5" height="4.28571429"></rect>
                        <rect id="Rectangle-Copy-13" fill="#BDDBFF" fill-rule="nonzero" x="2.85714286" y="10.2857143" width="3.57142857" height="2.85714286"></rect>
                    </g>
                </g>
                <g id="Group-2-Copy-3" transform="translate(1.000000, 303.000000)">
                    <circle id="Icon" fill="#FF6633" cx="11" cy="11" r="11"></circle>
                    <path d="M12,10 L16,10 L16,12 L12,12 L12,16 L10,16 L10,12 L6,12 L6,10 L10,10 L10,6 L12,6 L12,10 Z" id="Combined-Shape" fill="#FFFFFF"></path>
                </g>
                <g id="Group-4-Copy" transform="translate(1.000000, 77.000000)">
                    <path d="M19.6,5.86666667 L19.6,1.1 C19.6,0.897495592 19.4358377,0.733333333 19.2333333,0.733333333 L13.7333333,0.733333333 L3.1,0.733333333 C2.89749559,0.733333333 2.73333333,0.897495592 2.73333333,1.1 L2.73333333,5.86666667 L2.73333333,17.2333333 C2.73333333,17.4358377 2.89749559,17.6 3.1,17.6 L11.9,17.6 L11.9,18.3333333 L3.1,18.3333333 C2.49248678,18.3333333 2,17.8408466 2,17.2333333 L2,1.1 C2,0.492486775 2.49248678,0 3.1,0 L19.2333333,0 C19.8408466,0 20.3333333,0.492486775 20.3333333,1.1 L20.3333333,6.6 L19.6,6.6 L19.6,5.86666667 Z" id="Combined-Shape" fill="#0670EC" fill-rule="nonzero" transform="translate(11.166667, 9.166667) scale(-1, 1) translate(-11.166667, -9.166667) "></path>
                    <rect id="Rectangle" fill="#0670EC" fill-rule="nonzero" transform="translate(15.400000, 12.833333) scale(-1, 1) translate(-15.400000, -12.833333) " x="13.4" y="12.4666667" width="4" height="1"></rect>
                    <rect id="Rectangle" fill="#0670EC" fill-rule="nonzero" transform="translate(15.400000, 11.366667) scale(-1, 1) translate(-15.400000, -11.366667) " x="13.4" y="11" width="4" height="1"></rect>
                    <rect id="Rectangle" fill="#0670EC" fill-rule="nonzero" transform="translate(8.233333, 4.766667) scale(-1, 1) translate(-8.233333, -4.766667) " x="4.93333333" y="4.4" width="6.6" height="1"></rect>
                    <rect id="Rectangle" fill="#0670EC" fill-rule="nonzero" transform="translate(10.533333, 6.233333) scale(-1, 1) translate(-10.533333, -6.233333) " x="9.53333333" y="5.86666667" width="2" height="1"></rect>
                    <rect id="Rectangle" fill="#0670EC" fill-rule="nonzero" transform="translate(8.233333, 3.300000) scale(-1, 1) translate(-8.233333, -3.300000) " x="4.93333333" y="2.93333333" width="6.6" height="1"></rect>
                    <rect id="Rectangle" fill="#0670EC" fill-rule="nonzero" transform="translate(15.200000, 5.500000) scale(-1, 1) translate(-15.200000, -5.500000) " x="13" y="2.93333333" width="4.4" height="5.13333333"></rect>
                    <circle id="Oval" fill="#BDDBFF" cx="6.89085309" cy="11.9758136" r="4.64248024"></circle>
                    <path d="M11.8962076,18.3880266 L8.97937458,15.4718404 C9.76180971,14.5725055 10.2355289,13.3991131 10.2355289,12.1166297 C10.2355289,9.29356984 7.93878909,7 5.11776447,7 C2.29407851,7 0,9.2962306 0,12.1166297 C0,14.9370288 2.29673985,17.2332594 5.11776447,17.2332594 C6.40053227,17.2332594 7.57418496,16.7596452 8.47371923,15.9773836 L11.3905522,18.8935698 C11.4597472,18.9627494 11.5528942,19 11.6433799,19 C11.7338656,19 11.8270126,18.9654102 11.8962076,18.8935698 C12.0345975,18.7552106 12.0345975,18.5263858 11.8962076,18.3880266 Z M0.71590153,12.1166297 C0.71590153,9.69002217 2.69061876,7.71840355 5.11510313,7.71840355 C7.54224884,7.71840355 9.51430472,9.69268293 9.51430472,12.1166297 C9.51430472,14.5405765 7.54224884,16.5175166 5.11510313,16.5175166 C2.69061876,16.5175166 0.71590153,14.5432373 0.71590153,12.1166297 Z" id="Shape" fill="#0670EC" fill-rule="nonzero" transform="translate(6.000000, 13.000000) scale(-1, 1) translate(-6.000000, -13.000000) "></path>
                    <rect id="Rectangle" fill="#BDDBFF" fill-rule="nonzero" transform="translate(15.200000, 5.500000) scale(-1, 1) translate(-15.200000, -5.500000) " x="13.7333333" y="3.66666667" width="2.93333333" height="3.66666667"></rect>
                </g>
                <g id="Group-6-Copy" transform="translate(3.000000, 0.000000)" stroke="#0670EC">
                    <rect id="Rectangle" fill="#FFFFFF" x="0.5" y="0.5" width="6.60869565" height="6.60869565" rx="1"></rect>
                    <rect id="Rectangle-Copy-4" fill="#FFFFFF" x="10.2826087" y="0.5" width="6.60869565" height="6.60869565" rx="1"></rect>
                    <rect id="Rectangle-Copy-5" fill="#FFFFFF" x="0.5" y="10.2826087" width="6.60869565" height="6.60869565" rx="1"></rect>
                    <path d="M11.6521739,11.1521739 C11.3760315,11.1521739 11.1521739,11.3760315 11.1521739,11.6521739 L11.1521739,17.2608696 C11.1521739,17.5370119 11.3760315,17.7608696 11.6521739,17.7608696 L17.2608696,17.7608696 C17.5370119,17.7608696 17.7608696,17.5370119 17.7608696,17.2608696 L17.7608696,11.6521739 C17.7608696,11.3760315 17.5370119,11.1521739 17.2608696,11.1521739 L11.6521739,11.1521739 Z" id="Rectangle-Copy-7" fill="#BDDBFF" transform="translate(14.456522, 14.456522) rotate(-42.000000) translate(-14.456522, -14.456522) "></path>
                </g>
                <g id="Group-5-Copy" transform="translate(1.000000, 226.000000)">
                    <g id="Group-13" fill-rule="nonzero">
                        <path d="M4.03333333,0.448148148 C6.01337644,0.448148148 7.61851852,2.05329023 7.61851852,4.03333333 C7.61851852,6.27407407 4.03333333,10.3074074 4.03333333,10.3074074 C4.03333333,10.3074074 0.448148148,6.27407407 0.448148148,4.03333333 C0.448148148,2.05329023 2.05329023,0.448148148 4.03333333,0.448148148 Z M5.37777778,4.03333333 C5.37777778,3.29081717 4.7758495,2.68888889 4.03333333,2.68888889 C3.29081717,2.68888889 2.68888889,3.29081717 2.68888889,4.03333333 C2.68888889,4.7758495 3.29081717,5.37777778 4.03333333,5.37777778 C4.7758495,5.37777778 5.37777778,4.7758495 5.37777778,4.03333333 L5.37777778,4.03333333 Z" id="Shape" fill="#BDDBFF"></path>
                        <path d="M-3.19744231e-14,4.03333333 C-3.19744231e-14,6.41703333 3.54754074,10.4351296 3.69811852,10.6054259 C3.78319184,10.70189 3.90561085,10.7571519 4.03422963,10.7571519 C4.16284841,10.7571519 4.28526741,10.70189 4.37034074,10.6054259 C4.51912593,10.4351296 8.06666667,6.41703333 8.06666667,4.03333333 C8.06666667,1.80578484 6.26088182,6.21724894e-15 4.03333333,6.21724894e-15 C1.80578484,6.21724894e-15 -3.19744231e-14,1.80578484 -3.19744231e-14,4.03333333 Z M7.17037037,4.03333333 C7.17037037,5.55703704 5.14429259,8.29387778 4.03333333,9.6203963 C2.92237407,8.29387778 0.896296296,5.55703704 0.896296296,4.03333333 C0.896296296,2.30079562 2.30079562,0.896296296 4.03333333,0.896296296 C5.76587105,0.896296296 7.17037037,2.30079562 7.17037037,4.03333333 Z" id="Shape" fill="#0670EC"></path>
                        <path d="M2.24074074,4.03333333 C2.24074074,5.02335488 3.04331178,5.82592593 4.03333333,5.82592593 C5.02335488,5.82592593 5.82592593,5.02335488 5.82592593,4.03333333 C5.82592593,3.04331178 5.02335488,2.24074074 4.03333333,2.24074074 C3.04331178,2.24074074 2.24074074,3.04331178 2.24074074,4.03333333 Z M4.92962963,4.03333333 C4.92962963,4.52834411 4.52834411,4.92962963 4.03333333,4.92962963 C3.53832256,4.92962963 3.13703704,4.52834411 3.13703704,4.03333333 C3.13703704,3.53832256 3.53832256,3.13703704 4.03333333,3.13703704 C4.52834411,3.13703704 4.92962963,3.53832256 4.92962963,4.03333333 Z" id="Shape" fill="#0670EC"></path>
                    </g>
                    <g id="Group-13" transform="translate(14.000000, 13.000000)" fill-rule="nonzero">
                        <path d="M4.03333333,0.448148148 C6.01337644,0.448148148 7.61851852,2.05329023 7.61851852,4.03333333 C7.61851852,6.27407407 4.03333333,10.3074074 4.03333333,10.3074074 C4.03333333,10.3074074 0.448148148,6.27407407 0.448148148,4.03333333 C0.448148148,2.05329023 2.05329023,0.448148148 4.03333333,0.448148148 Z M5.37777778,4.03333333 C5.37777778,3.29081717 4.7758495,2.68888889 4.03333333,2.68888889 C3.29081717,2.68888889 2.68888889,3.29081717 2.68888889,4.03333333 C2.68888889,4.7758495 3.29081717,5.37777778 4.03333333,5.37777778 C4.7758495,5.37777778 5.37777778,4.7758495 5.37777778,4.03333333 L5.37777778,4.03333333 Z" id="Shape" fill="#BDDBFF"></path>
                        <path d="M1.81188398e-13,4.03333333 C1.81188398e-13,6.41703333 3.54754074,10.4351296 3.69811852,10.6054259 C3.78319184,10.70189 3.90561085,10.7571519 4.03422963,10.7571519 C4.16284841,10.7571519 4.28526741,10.70189 4.37034074,10.6054259 C4.51912593,10.4351296 8.06666667,6.41703333 8.06666667,4.03333333 C8.06666667,1.80578484 6.26088182,-5.32907052e-15 4.03333333,-5.32907052e-15 C1.80578484,-5.32907052e-15 1.81188398e-13,1.80578484 1.81188398e-13,4.03333333 Z M7.17037037,4.03333333 C7.17037037,5.55703704 5.14429259,8.29387778 4.03333333,9.6203963 C2.92237407,8.29387778 0.896296296,5.55703704 0.896296296,4.03333333 C0.896296296,2.30079562 2.30079562,0.896296296 4.03333333,0.896296296 C5.76587105,0.896296296 7.17037037,2.30079562 7.17037037,4.03333333 Z" id="Shape" fill="#0670EC"></path>
                        <path d="M2.24074074,4.03333333 C2.24074074,5.02335488 3.04331178,5.82592593 4.03333333,5.82592593 C5.02335488,5.82592593 5.82592593,5.02335488 5.82592593,4.03333333 C5.82592593,3.04331178 5.02335488,2.24074074 4.03333333,2.24074074 C3.04331178,2.24074074 2.24074074,3.04331178 2.24074074,4.03333333 Z M4.92962963,4.03333333 C4.92962963,4.52834411 4.52834411,4.92962963 4.03333333,4.92962963 C3.53832256,4.92962963 3.13703704,4.52834411 3.13703704,4.03333333 C3.13703704,3.53832256 3.53832256,3.13703704 4.03333333,3.13703704 C4.52834411,3.13703704 4.92962963,3.53832256 4.92962963,4.03333333 Z" id="Shape" fill="#0670EC"></path>
                    </g>
                    <polyline id="Line" stroke="#0670EC" stroke-linecap="square" points="4.03333333 12.5 4.03333333 17.079784 11.7537206 17.079784"></polyline>
                    <polyline id="Line" stroke="#0670EC" stroke-linecap="square" transform="translate(14.000000, 7.500000) scale(-1, -1) translate(-14.000000, -7.500000) " points="10 4 10 11 18 11"></polyline>
                </g>
                <g id="970545-copy-3" transform="translate(2.000000, 190.000000)" fill-rule="nonzero">
                    <g id="Group" transform="translate(0.423022, 0.465324)" fill="#BDDBFF">
                        <polygon id="Path" points="10.8575681 1.28785871e-14 9.05266187 1.28785871e-14 9.05266187 0.902431942 9.95509381 0.902431942 10.8575258 0.902431942 10.8575258 1.28785871e-14"></polygon>
                        <polygon id="Path" points="0.0282155396 9.47568345 19.8820144 9.47568345 19.8820144 18.572115 0.0282155396 18.572115"></polygon>
                    </g>
                    <g id="Group" fill="#0670EC">
                        <path d="M20.5180273,9.55026216 L20.5212,9.54484748 L11.3613445,4.54845496 C11.8740466,4.0081295 11.8516688,3.15447194 11.3113433,2.64176978 C11.1732691,2.5107177 11.0089675,2.41041928 10.8293525,2.34738906 L10.8293525,1.81899281 L11.2805896,1.81899281 C11.5297917,1.81899281 11.7318268,1.6169577 11.7318268,1.36775568 L11.7318268,0.465323741 C11.7318268,0.216121727 11.5297917,0.0140866187 11.2805896,0.0140866187 L9.47568345,0.0140866187 C9.22648144,0.0140866187 9.02444633,0.216121727 9.02444633,0.465323741 L9.02444633,1.36775568 C9.02444633,1.6169577 9.22648144,1.81899281 9.47568345,1.81899281 L9.92692058,1.81899281 L9.92692058,2.72142475 C9.92692058,2.97062676 10.1289557,3.17266187 10.3781577,3.17266187 C10.6273597,3.17266187 10.8293525,3.37469698 10.8293525,3.62389899 C10.8293525,3.87310101 10.6273174,4.07513612 10.3781154,4.07513612 C10.1289134,4.07513612 9.92687827,3.87310101 9.92687827,3.62389899 C9.92687827,3.37469698 9.72484317,3.17266187 9.47564115,3.17266187 C9.22643914,3.17266187 9.02440403,3.37469698 9.02440403,3.62389899 C9.02512317,3.96811165 9.15769813,4.29895683 9.39484403,4.54845496 L0.235073094,9.54484748 L0.238245755,9.55026216 C0.0929801439,9.62674446 0.00148057554,9.77683252 0,9.94100719 L0,19.1605896 C0,19.4097917 0.202035108,19.6118268 0.451237122,19.6118268 L20.305036,19.6118268 C20.554238,19.6118268 20.7562731,19.4097917 20.7562731,19.1605896 L20.7562731,9.94100719 C20.7547502,9.77683252 20.6632506,9.62674446 20.5180273,9.55026216 Z M18.5353252,9.48977007 L2.22090561,9.48977007 L10.3781154,5.04025986 L18.5353252,9.48977007 Z M19.8537988,18.7093525 L0.902431942,18.7093525 L0.902431942,10.3922443 L19.8537988,10.3922443 L19.8537988,18.7093525 Z" id="Shape"></path>
                        <polygon id="Path" points="1.80490619 11.4923657 2.70733813 11.4923657 2.70733813 17.7224897 1.80490619 17.7224897"></polygon>
                        <polygon id="Path" points="3.60977007 11.4923657 4.51220201 11.4923657 4.51220201 17.7224897 3.60977007 17.7224897"></polygon>
                        <polygon id="Path" points="5.41467626 11.4923657 6.3171082 11.4923657 6.3171082 17.7224897 5.41467626 17.7224897"></polygon>
                        <polygon id="Path" points="7.21958245 11.4923657 8.12201439 11.4923657 8.12201439 17.7224897 7.21958245 17.7224897"></polygon>
                        <polygon id="Path" points="9.02444633 11.4923657 9.92687827 11.4923657 9.92687827 17.7224897 9.02444633 17.7224897"></polygon>
                        <polygon id="Path" points="10.8293525 11.4923657 11.7317845 11.4923657 11.7317845 17.7224897 10.8293525 17.7224897"></polygon>
                        <polygon id="Path" points="12.6342587 11.4923657 13.5366906 11.4923657 13.5366906 17.7224897 12.6342587 17.7224897 12.6342587 11.4923657"></polygon>
                        <polygon id="Path" points="14.4391226 11.4923657 15.3415545 11.4923657 15.3415545 17.7224897 14.4391226 17.7224897 14.4391226 11.4923657"></polygon>
                        <polygon id="Path" points="16.2440288 11.4923657 17.1464607 11.4923657 17.1464607 17.7224897 16.2440288 17.7224897"></polygon>
                        <polygon id="Path" points="18.048935 11.4923657 18.9513669 11.4923657 18.9513669 17.7224897 18.048935 17.7224897 18.048935 11.4923657"></polygon>
                    </g>
                </g>
                <g id="Group-14-Copy" transform="translate(0.000000, 154.000000)" fill-rule="nonzero">
                    <path d="M12,2 L12,7.2 C12,7.4209139 11.8209139,7.6 11.6,7.6 L4.4,7.6 C4.1790861,7.6 4,7.4209139 4,7.2 L4,2 L7.2,2 L7.2,3.6 L8.8,3.6 L8.8,2 L12,2 Z" id="Path" fill="#BDDBFF"></path>
                    <path d="M12.4,7.2 L12.4,0.8 C12.4,0.3581722 12.0418278,0 11.6,0 L4.4,0 C3.9581722,0 3.6,0.3581722 3.6,0.8 L3.6,7.2 C3.6,7.6418278 3.9581722,8 4.4,8 L11.6,8 C12.0418278,8 12.4,7.6418278 12.4,7.2 Z M11.6,1.6 L9.2,1.6 L9.2,0.8 L11.6,0.8 L11.6,1.6 Z M8.4,0.8 L8.4,3.2 L7.6,3.2 L7.6,0.8 L8.4,0.8 Z M6.8,0.8 L6.8,1.6 L4.4,1.6 L4.4,0.8 L6.8,0.8 Z M4.4,2.4 L6.8,2.4 L6.8,3.6 C6.8,3.8209139 6.9790861,4 7.2,4 L8.8,4 C9.0209139,4 9.2,3.8209139 9.2,3.6 L9.2,2.4 L11.6,2.4 L11.6,7.2 L4.4,7.2 L4.4,2.4 Z" id="Shape" fill="#0670EC"></path>
                    <rect id="Rectangle" fill="#0670EC" x="9.2" y="5.6" width="1.6" height="1"></rect>
                    <rect id="Rectangle" fill="#0670EC" x="7.6" y="5.6" width="1" height="1"></rect>
                    <path d="M23.6,9.1 L23.6,12.7 C23.5986328,13.1412109 23.241211,13.4986328 22.8,13.5 L21.6,13.5 C21.6,12.1746094 20.5253906,11.1 19.2,11.1 C17.8746094,11.1 16.8,12.1746094 16.8,13.5 L10.4,13.5 C10.4,12.1746094 9.3253906,11.1 8,11.1 C6.6746094,11.1 5.6,12.1746094 5.6,13.5 L4.4,13.5 C3.95878905,13.4986328 3.6013672,13.141211 3.6,12.7 L3.6,9.1 L13.6,9.1 L13.6,3.1 L18.0679688,3.1 C18.28125,3.1 18.4855469,3.18496095 18.6359375,3.3359375 L20,4.7 L17.2,4.7 C16.9791015,4.7 16.8,4.87910155 16.8,5.1 L16.8,8.7 C16.8,8.92089845 16.9791015,9.1 17.2,9.1 L23.6,9.1 Z" id="Path" fill="#BDDBFF"></path>
                    <polygon id="Path" fill="#0670EC" points="7.6 13.1 8.4 13.1 8.4 13.9 7.6 13.9"></polygon>
                    <polygon id="Path" fill="#0670EC" points="18.8 13.1 19.6 13.1 19.6 13.9 18.8 13.9"></polygon>
                    <polygon id="Path" fill="#0670EC" points="1.11022302e-16 11.9 2 11.9 2 12.7 1.11022302e-16 12.7"></polygon>
                    <polygon id="Path" fill="#0670EC" points="0.8 10.3 2 10.3 2 11.1 0.8 11.1"></polygon>
                    <polygon id="Path" fill="#0670EC" points="1.2 8.7 2 8.7 2 9.5 1.2 9.5"></polygon>
                    <path d="M23.8828125,8.0171875 L18.9199219,3.053125 C18.6947265,2.8261719 18.3878906,2.69902345 18.0679687,2.7 L13.45,2.7 C13.2983073,2.70323513 13.222461,2.77992783 13.222461,2.9300781 L13.190039,8.7 L3.6,8.7 C3.37910155,8.7 3.2,8.87910155 3.2,9.1 L3.2,12.7 C3.2,13.3626953 3.7373047,13.9 4.4,13.9 L5.23203125,13.9 C5.31933595,14.5082031 5.6046875,15.0705078 6.0439453,15.5 L0,15.5 L0,16.3 L19.2,16.3 C20.590625,16.2984375 21.7693359,15.2763672 21.9679687,13.9 L22.8,13.9 C23.4626953,13.9 24,13.3626953 24,12.6999944 L24,8.3 C24,8.1939453 23.9578125,8.0921875 23.8828125,8.0171875 Z M23.2,8.7 L17.2,8.7 L17.2,5.1 L19.834375,5.1 L23.2,8.465625 L23.2,8.7 Z M6,13.5 C6,12.3955078 6.8955078,11.5 8,11.5 C9.1044922,11.5 10,12.3955078 10,13.5 C10,14.6044922 9.1044922,15.5 8,15.5 C6.89589845,15.4986328 6.0013672,14.6041015 6,13.5 Z M9.9560547,15.5 C10.3953125,15.0705078 10.6806641,14.5082031 10.7679688,13.9 L16.4320313,13.9 C16.519336,14.5082031 16.8046875,15.0705078 17.2439453,15.5 L9.9560547,15.5 Z M19.2,15.5 C18.0955078,15.5 17.2,14.6044922 17.2,13.5 C17.2,12.3955078 18.0955078,11.5 19.2,11.5 C20.3044922,11.5 21.2,12.3955078 21.2,13.5 C21.1986328,14.6041015 20.3041016,15.4986328 19.2,15.5 Z M22.8,13.1 L21.9679687,13.1 C21.7703125,11.7232422 20.5908203,10.7011719 19.2,10.7011719 C17.8091797,10.7011719 16.6296875,11.7232422 16.4320313,13.1 L10.7679687,13.1 C10.5703125,11.7232422 9.3908203,10.7011719 8,10.7011719 C6.6091797,10.7011719 5.4296875,11.7232422 5.23203125,13.1 L4.4,13.1 C4.17910155,13.1 4,12.9208984 4,12.7 L4,9.5 L13.6,9.5 C13.8208984,9.5 14,9.32089845 14,9.1 L14,3.5 L18.0679687,3.5 C18.1753906,3.5001953 18.278125,3.5433594 18.353125,3.6199219 L19.0332031,4.3 L17.2,4.3 C16.7582031,4.3 16.4,4.6582031 16.4,5.1 L16.4,8.7 C16.4,9.1417969 16.7582031,9.5 17.2,9.5 L23.2,9.5 L23.2,12.7 C23.2,12.9208984 23.0208984,13.1 22.8,13.1 Z" id="Shape" fill="#0670EC"></path>
                    <polygon id="Path" fill="#0670EC" points="15.2 10.3 16.8 10.3 16.8 11.1 15.2 11.1"></polygon>
                </g>
                <g id="1559489-copy-2" transform="translate(1.000000, 265.000000)" fill-rule="nonzero">
                    <polygon id="Path" fill="#BDDBFF" points="0.366666667 21.6333333 0.366666667 9.16666667 6.23333333 9.16666667 6.23333333 16.5 6.23333333 21.6333333"></polygon>
                    <polygon id="Path" fill="#BDDBFF" points="15.7666667 16.5 15.7666667 9.16666667 21.6333333 9.16666667 21.6333333 21.6333333 15.7666667 21.6333333"></polygon>
                    <polygon id="Path" fill="#BDDBFF" points="15.7666667 16.5 15.7666667 21.6333333 13.9333333 21.6333333 13.9333333 17.9666667 11 17.9666667 8.06666667 17.9666667 8.06666667 21.6333333 6.23333333 21.6333333 6.23333333 16.5 7.33333333 16.5 14.6666667 16.5"></polygon>
                    <polygon id="Path" fill="#BDDBFF" points="15.7666667 0.366666667 15.7666667 9.16666667 15.7666667 16.5 14.6666667 16.5 7.33333333 16.5 6.23333333 16.5 6.23333333 9.16666667 6.23333333 0.366666667"></polygon>
                    <polygon id="Path" fill="#FF6633" points="11.4536919 3.08240742 11.4536919 2.56666667 10.6333333 2.56666667 10.6333333 2.10000961 12.1 2.10000961 12.1 1.46666667 11.3666667 1.46666667 10.6333333 1.46666667 9.9 1.46666667 9.9 3.66666667 10.6333333 3.66666667 10.6333333 3.08240742"></polygon>
                    <path d="M21.6333333,8.8 L16.1333333,8.8 L16.1333333,0.366666667 C16.1333333,0.164162258 15.9691711,0 15.7666667,0 L6.23333333,0 C6.03082893,0 5.86666667,0.164162258 5.86666667,0.366666667 L5.86666667,8.8 L0.366666667,8.8 C0.164162258,8.8 0,8.96416226 0,9.16666667 L0,21.6333333 C0,21.8358377 0.164162258,22 0.366666667,22 L21.6333333,22 C21.8358377,22 22,21.8358377 22,21.6333333 L22,9.16666667 C22,8.96416226 21.8358377,8.8 21.6333333,8.8 Z M0.733333333,9.53333333 L5.86666667,9.53333333 L5.86666667,21.2666667 L0.733333333,21.2666667 L0.733333333,9.53333333 Z M6.6,0.733333333 L15.4,0.733333333 L15.4,21.2666667 L14.3,21.2666667 L14.3,17.9666667 C14.3,17.7641623 14.1358377,17.6 13.9333333,17.6 L8.06666667,17.6 C7.86416226,17.6 7.7,17.7641623 7.7,17.9666667 L7.7,21.2666667 L6.6,21.2666667 L6.6,0.733333333 Z M8.43333333,18.3333333 L10.6333333,18.3333333 L10.6333333,21.2666667 L8.43333333,21.2666667 L8.43333333,18.3333333 Z M11.3666667,21.2666667 L11.3666667,18.3333333 L13.5666667,18.3333333 L13.5666667,21.2666667 L11.3666667,21.2666667 Z M21.2666667,21.2666667 L16.1333333,21.2666667 L16.1333333,9.53333333 L21.2666667,9.53333333 L21.2666667,21.2666667 Z" id="Shape" fill="#0670EC"></path>
                    <rect id="Rectangle" fill="#0670EC" x="7.33333333" y="4.4" width="7.33333333" height="1"></rect>
                    <rect id="Rectangle" fill="#0670EC" x="7.33333333" y="5.86666667" width="7.33333333" height="1"></rect>
                    <rect id="Rectangle" fill="#0670EC" x="7.33333333" y="7.33333333" width="7.33333333" height="1"></rect>
                    <rect id="Rectangle" fill="#0670EC" x="7.33333333" y="8.8" width="7.33333333" height="1"></rect>
                    <rect id="Rectangle" fill="#0670EC" x="7.33333333" y="10.2666667" width="7.33333333" height="1"></rect>
                    <rect id="Rectangle" fill="#0670EC" x="7.33333333" y="11.7333333" width="7.33333333" height="1"></rect>
                    <rect id="Rectangle" fill="#0670EC" x="7.33333333" y="13.2" width="7.33333333" height="1"></rect>
                    <rect id="Rectangle" fill="#0670EC" x="7.33333333" y="14.6666667" width="7.33333333" height="1"></rect>
                    <rect id="Rectangle" fill="#0670EC" x="7.33333333" y="16.1333333" width="7.33333333" height="1"></rect>
                    <rect id="Rectangle" fill="#0670EC" x="16.8666667" y="10.2666667" width="1" height="1"></rect>
                    <rect id="Rectangle" fill="#0670EC" x="18.3333333" y="10.2666667" width="1" height="1"></rect>
                    <rect id="Rectangle" fill="#0670EC" x="19.8" y="10.2666667" width="1" height="1"></rect>
                    <rect id="Rectangle" fill="#0670EC" x="16.8666667" y="11.7333333" width="1" height="1"></rect>
                    <rect id="Rectangle" fill="#0670EC" x="18.3333333" y="11.7333333" width="1" height="1"></rect>
                    <rect id="Rectangle" fill="#0670EC" x="19.8" y="11.7333333" width="1" height="1"></rect>
                    <rect id="Rectangle" fill="#0670EC" x="16.8666667" y="13.2" width="1" height="1"></rect>
                    <rect id="Rectangle" fill="#0670EC" x="18.3333333" y="13.2" width="1" height="1"></rect>
                    <rect id="Rectangle" fill="#0670EC" x="19.8" y="13.2" width="1" height="1"></rect>
                    <rect id="Rectangle" fill="#0670EC" x="16.8666667" y="14.6666667" width="1" height="1"></rect>
                    <rect id="Rectangle" fill="#0670EC" x="18.3333333" y="14.6666667" width="1" height="1"></rect>
                    <rect id="Rectangle" fill="#0670EC" x="19.8" y="14.6666667" width="1" height="1"></rect>
                    <rect id="Rectangle" fill="#0670EC" x="16.8666667" y="16.1333333" width="1" height="1"></rect>
                    <rect id="Rectangle" fill="#0670EC" x="18.3333333" y="16.1333333" width="1" height="1"></rect>
                    <rect id="Rectangle" fill="#0670EC" x="19.8" y="16.1333333" width="1" height="1"></rect>
                    <rect id="Rectangle" fill="#0670EC" x="16.8666667" y="17.6" width="1" height="1"></rect>
                    <rect id="Rectangle" fill="#0670EC" x="18.3333333" y="17.6" width="1" height="1"></rect>
                    <rect id="Rectangle" fill="#0670EC" x="19.8" y="17.6" width="1" height="1"></rect>
                    <rect id="Rectangle" fill="#0670EC" x="16.8666667" y="19.0666667" width="1" height="1"></rect>
                    <rect id="Rectangle" fill="#0670EC" x="18.3333333" y="19.0666667" width="1" height="1"></rect>
                    <rect id="Rectangle" fill="#0670EC" x="19.8" y="19.0666667" width="1" height="1"></rect>
                    <rect id="Rectangle" fill="#0670EC" x="4.4" y="10.2666667" width="1" height="1"></rect>
                    <rect id="Rectangle" fill="#0670EC" x="2.93333333" y="10.2666667" width="1" height="1"></rect>
                    <rect id="Rectangle" fill="#0670EC" x="1.46666667" y="10.2666667" width="1" height="1"></rect>
                    <rect id="Rectangle" fill="#0670EC" x="4.4" y="11.7333333" width="1" height="1"></rect>
                    <rect id="Rectangle" fill="#0670EC" x="2.93333333" y="11.7333333" width="1" height="1"></rect>
                    <rect id="Rectangle" fill="#0670EC" x="1.46666667" y="11.7333333" width="1" height="1"></rect>
                    <rect id="Rectangle" fill="#0670EC" x="4.4" y="13.2" width="1" height="1"></rect>
                    <rect id="Rectangle" fill="#0670EC" x="2.93333333" y="13.2" width="1" height="1"></rect>
                    <rect id="Rectangle" fill="#0670EC" x="1.46666667" y="13.2" width="1" height="1"></rect>
                    <rect id="Rectangle" fill="#0670EC" x="4.4" y="14.6666667" width="1" height="1"></rect>
                    <rect id="Rectangle" fill="#0670EC" x="2.93333333" y="14.6666667" width="1" height="1"></rect>
                    <rect id="Rectangle" fill="#0670EC" x="1.46666667" y="14.6666667" width="1" height="1"></rect>
                    <rect id="Rectangle" fill="#0670EC" x="4.4" y="16.1333333" width="1" height="1"></rect>
                    <rect id="Rectangle" fill="#0670EC" x="2.93333333" y="16.1333333" width="1" height="1"></rect>
                    <rect id="Rectangle" fill="#0670EC" x="1.46666667" y="16.1333333" width="1" height="1"></rect>
                    <rect id="Rectangle" fill="#0670EC" x="4.4" y="17.6" width="1" height="1"></rect>
                    <rect id="Rectangle" fill="#0670EC" x="2.93333333" y="17.6" width="1" height="1"></rect>
                    <rect id="Rectangle" fill="#0670EC" x="1.46666667" y="17.6" width="1" height="1"></rect>
                    <rect id="Rectangle" fill="#0670EC" x="4.4" y="19.0666667" width="1" height="1"></rect>
                    <rect id="Rectangle" fill="#0670EC" x="2.93333333" y="19.0666667" width="1" height="1"></rect>
                    <rect id="Rectangle" fill="#0670EC" x="1.46666667" y="19.0666667" width="1" height="1"></rect>
                </g>
            </g>
        </g>
    </g>
</svg>