<?xml version="1.0" encoding="UTF-8"?>
<svg width="72px" height="775px" viewBox="0 0 72 775" version="1.1" xmlns="http://www.w3.org/2000/svg" xmlns:xlink="http://www.w3.org/1999/xlink">
    <title>ads-iconset</title>
    <defs>
        <linearGradient x1="9.94223762%" y1="9.8725775%" x2="90.7428811%" y2="92.224799%" id="linearGradient-1">
            <stop stop-color="#00BAF1" offset="0%"></stop>
            <stop stop-color="#0080D8" offset="100%"></stop>
        </linearGradient>
        <linearGradient x1="66.67%" y1="16.67%" x2="41.67%" y2="75%" id="linearGradient-2">
            <stop stop-color="#37AEE2" offset="0%"></stop>
            <stop stop-color="#1E96C8" offset="100%"></stop>
        </linearGradient>
        <linearGradient x1="65.97%" y1="43.69%" x2="85.12%" y2="80.24%" id="linearGradient-3">
            <stop stop-color="#EFF7FC" offset="0%"></stop>
            <stop stop-color="#FFFFFF" offset="100%"></stop>
        </linearGradient>
        <linearGradient x1="66.67%" y1="16.67%" x2="41.67%" y2="75%" id="linearGradient-4">
            <stop stop-color="#2297CB" offset="0%"></stop>
            <stop stop-color="#167EA9" offset="100%"></stop>
        </linearGradient>
    </defs>
    <g id="ads-iconset" stroke="none" stroke-width="1" fill="none" fill-rule="evenodd">
        <g id="icons2" fill-rule="nonzero">
            <g id="viber-copy-7" transform="translate(2.000000, 0.000000)">
                <path d="M18.2426811,3.14479251 C17.7189182,2.64146347 15.6001159,1.03759117 10.8837496,1.01542383 C10.8837496,1.01542383 5.31986238,0.665962227 2.60854551,3.26084505 C1.0997583,4.83603021 0.568495195,7.13882572 0.512243807,9.99710872 C0.45599242,12.8553917 0.383490632,18.2094565 5.33111265,19.6607653 L5.33611278,19.6620693 L5.33361271,21.8774994 C5.33361271,21.8774994 5.30236194,22.7746247 5.86737588,22.9571793 C6.55239277,23.1788527 6.9549027,22.496881 7.60866882,21.7627508 C7.96742767,21.3598268 8.46243988,20.7665244 8.8361991,20.3140499 C12.2200326,20.6100491 14.8225967,19.9319892 15.118854,19.8315842 C15.8026209,19.5994791 19.6677162,19.0831105 20.2964817,13.7303497 C20.9452477,8.20937788 19.982724,4.7186737 18.2426811,3.14479251 Z" id="Path" fill="#987CFD"></path>
                <path d="M18.629625,2.94533333 C18.0796875,2.43066667 15.855,0.790666667 10.9029375,0.768 C10.9029375,0.768 5.061,0.410666667 2.2141875,3.064 C0.63,4.67466667 0.0721875,7.02933333 0.013125,9.952 C-0.0459375,12.8746667 -0.1220625,18.3493333 5.0728125,19.8333333 L5.0780625,19.8346667 L5.0754375,22.1 C5.0754375,22.1 5.042625,23.0173333 5.635875,23.204 C6.355125,23.4306667 6.77775,22.7333333 7.4641875,21.9826667 C7.840875,21.5706667 8.360625,20.964 8.7530625,20.5013333 C12.306,20.804 15.038625,20.1106667 15.3496875,20.008 C16.067625,19.7706667 20.125875,19.2426667 20.7860625,13.7693333 C21.46725,8.124 20.456625,4.55466667 18.629625,2.94533333 Z M19.23075,13.3613333 C18.6729375,17.932 15.3811875,18.2213333 14.7748125,18.4186667 C14.51625,18.5026667 12.1156875,19.1093333 9.09825,18.9093333 C9.09825,18.9093333 6.848625,21.6653333 6.1464375,22.3826667 C6.0375,22.4946667 5.908875,22.54 5.82225,22.5186667 C5.7015,22.488 5.667375,22.3426667 5.67,22.1306667 L5.688375,18.3653333 C1.294125,17.1253333 1.5500625,12.4653333 1.5999375,10.0253333 C1.6498125,7.58533333 2.1013125,5.58533333 3.441375,4.24133333 C5.8498125,2.02533333 10.8110625,2.356 10.8110625,2.356 C15.0005625,2.37466667 17.0086875,3.65733333 17.474625,4.08666667 C19.0194375,5.43066667 19.8069375,8.648 19.23075,13.3613333 L19.23075,13.3613333 Z M11.3229375,13.636 C11.3229375,13.636 11.7166875,13.6706667 11.928,13.404 L12.3414375,12.876 C12.5409375,12.6146667 13.022625,12.4466667 13.4938125,12.7133333 C14.11725,13.0706667 14.9244375,13.6333333 15.477,14.1573333 C15.7815,14.4186667 15.852375,14.8026667 15.645,15.208 L15.642375,15.216 C15.42975,15.6 15.143625,15.9586667 14.7826875,16.292 L14.7748125,16.2986667 C14.36925,16.6426667 13.902,16.8426667 13.4019375,16.6773333 L13.39275,16.664 C12.4963125,16.4066667 10.345125,15.292 8.9735625,14.1813333 C6.7305,12.3826667 5.137125,9.41733333 4.6948125,7.828 L4.6816875,7.81866667 C4.5189375,7.30933333 4.717125,6.83466667 5.0544375,6.424 L5.061,6.416 C5.3904375,6.04933333 5.7435,5.76 6.1201875,5.54266667 L6.1280625,5.54133333 C6.5270625,5.32933333 6.9050625,5.40133333 7.1623125,5.71066667 C7.5009375,6.06666667 8.1375,6.92133333 8.58375,7.72533333 C8.84625,8.204 8.6821875,8.69333333 8.423625,8.896 L7.903875,9.316 C7.641375,9.53066667 7.6755,9.93066667 7.6755,9.93066667 C7.6755,9.93066667 8.444625,12.8893333 11.3229375,13.636 Z M15.852375,11.1826667 C16.00725,11.1813333 16.1319375,11.0533333 16.1306353,10.896 C16.1161875,9.024 15.5518125,7.52133333 14.45325,6.432 C13.3573125,5.34666667 11.9765625,4.79066667 10.350375,4.77866667 L10.3490625,4.77866667 C10.1955,4.77866667 10.0695,4.904 10.0681875,5.06133333 C10.0681875,5.21866667 10.1915625,5.34666667 10.3464375,5.348 C11.823,5.35866667 13.0738125,5.86 14.062125,6.84 C15.0504375,7.81866667 15.5570625,9.18533333 15.5701875,10.9013333 C15.5715,11.0573333 15.6961875,11.1826667 15.84975,11.1826667 L15.852375,11.1826667 Z M14.3784375,10.5986667 L14.371875,10.5986667 C14.217,10.5946667 14.0949375,10.4653333 14.098875,10.308 C14.119875,9.33466667 13.846875,8.548 13.2628125,7.9 C12.681375,7.25466667 11.883375,6.90133333 10.8215625,6.82266667 C10.668,6.81066667 10.5511875,6.67466667 10.563,6.51866667 C10.5748125,6.36133333 10.7086875,6.244 10.86225,6.25466667 C12.056625,6.344 13.0029375,6.768 13.67625,7.516 C14.3521875,8.26533333 14.6829375,9.20933333 14.658,10.32 C14.655375,10.476 14.5306875,10.5986667 14.3784375,10.5986667 Z M12.94125,10.1093333 C12.7929375,10.1093333 12.6695625,9.99066667 12.6616875,9.83866667 C12.6144375,8.87333333 12.166875,8.4 11.2520625,8.35066667 C11.0985,8.34133333 10.9790625,8.208 10.98825,8.05066667 C10.996125,7.89466667 11.127375,7.77333333 11.28225,7.78266667 C12.4884375,7.848 13.159125,8.54933333 13.2208125,9.81066667 C13.2286875,9.968 13.1105625,10.1013333 12.9556875,10.1093333 L12.94125,10.1093333 L12.94125,10.1093333 Z" id="Shape" fill="#FFFFFF"></path>
            </g>
            <g id="viber-copy-8" transform="translate(50.000000, 0.000000)">
                <path d="M18.2426811,3.14479251 C17.7189182,2.64146347 15.6001159,1.03759117 10.8837496,1.01542383 C10.8837496,1.01542383 5.31986238,0.665962227 2.60854551,3.26084505 C1.0997583,4.83603021 0.568495195,7.13882572 0.512243807,9.99710872 C0.45599242,12.8553917 0.383490632,18.2094565 5.33111265,19.6607653 L5.33611278,19.6620693 L5.33361271,21.8774994 C5.33361271,21.8774994 5.30236194,22.7746247 5.86737588,22.9571793 C6.55239277,23.1788527 6.9549027,22.496881 7.60866882,21.7627508 C7.96742767,21.3598268 8.46243988,20.7665244 8.8361991,20.3140499 C12.2200326,20.6100491 14.8225967,19.9319892 15.118854,19.8315842 C15.8026209,19.5994791 19.6677162,19.0831105 20.2964817,13.7303497 C20.9452477,8.20937788 19.982724,4.7186737 18.2426811,3.14479251 Z" id="Path" fill="#7459D5"></path>
                <path d="M18.629625,2.94533333 C18.0796875,2.43066667 15.855,0.790666667 10.9029375,0.768 C10.9029375,0.768 5.061,0.410666667 2.2141875,3.064 C0.63,4.67466667 0.0721875,7.02933333 0.013125,9.952 C-0.0459375,12.8746667 -0.1220625,18.3493333 5.0728125,19.8333333 L5.0780625,19.8346667 L5.0754375,22.1 C5.0754375,22.1 5.042625,23.0173333 5.635875,23.204 C6.355125,23.4306667 6.77775,22.7333333 7.4641875,21.9826667 C7.840875,21.5706667 8.360625,20.964 8.7530625,20.5013333 C12.306,20.804 15.038625,20.1106667 15.3496875,20.008 C16.067625,19.7706667 20.125875,19.2426667 20.7860625,13.7693333 C21.46725,8.124 20.456625,4.55466667 18.629625,2.94533333 Z M19.23075,13.3613333 C18.6729375,17.932 15.3811875,18.2213333 14.7748125,18.4186667 C14.51625,18.5026667 12.1156875,19.1093333 9.09825,18.9093333 C9.09825,18.9093333 6.848625,21.6653333 6.1464375,22.3826667 C6.0375,22.4946667 5.908875,22.54 5.82225,22.5186667 C5.7015,22.488 5.667375,22.3426667 5.67,22.1306667 L5.688375,18.3653333 C1.294125,17.1253333 1.5500625,12.4653333 1.5999375,10.0253333 C1.6498125,7.58533333 2.1013125,5.58533333 3.441375,4.24133333 C5.8498125,2.02533333 10.8110625,2.356 10.8110625,2.356 C15.0005625,2.37466667 17.0086875,3.65733333 17.474625,4.08666667 C19.0194375,5.43066667 19.8069375,8.648 19.23075,13.3613333 L19.23075,13.3613333 Z M11.3229375,13.636 C11.3229375,13.636 11.7166875,13.6706667 11.928,13.404 L12.3414375,12.876 C12.5409375,12.6146667 13.022625,12.4466667 13.4938125,12.7133333 C14.11725,13.0706667 14.9244375,13.6333333 15.477,14.1573333 C15.7815,14.4186667 15.852375,14.8026667 15.645,15.208 L15.642375,15.216 C15.42975,15.6 15.143625,15.9586667 14.7826875,16.292 L14.7748125,16.2986667 C14.36925,16.6426667 13.902,16.8426667 13.4019375,16.6773333 L13.39275,16.664 C12.4963125,16.4066667 10.345125,15.292 8.9735625,14.1813333 C6.7305,12.3826667 5.137125,9.41733333 4.6948125,7.828 L4.6816875,7.81866667 C4.5189375,7.30933333 4.717125,6.83466667 5.0544375,6.424 L5.061,6.416 C5.3904375,6.04933333 5.7435,5.76 6.1201875,5.54266667 L6.1280625,5.54133333 C6.5270625,5.32933333 6.9050625,5.40133333 7.1623125,5.71066667 C7.5009375,6.06666667 8.1375,6.92133333 8.58375,7.72533333 C8.84625,8.204 8.6821875,8.69333333 8.423625,8.896 L7.903875,9.316 C7.641375,9.53066667 7.6755,9.93066667 7.6755,9.93066667 C7.6755,9.93066667 8.444625,12.8893333 11.3229375,13.636 Z M15.852375,11.1826667 C16.00725,11.1813333 16.1319375,11.0533333 16.1306353,10.896 C16.1161875,9.024 15.5518125,7.52133333 14.45325,6.432 C13.3573125,5.34666667 11.9765625,4.79066667 10.350375,4.77866667 L10.3490625,4.77866667 C10.1955,4.77866667 10.0695,4.904 10.0681875,5.06133333 C10.0681875,5.21866667 10.1915625,5.34666667 10.3464375,5.348 C11.823,5.35866667 13.0738125,5.86 14.062125,6.84 C15.0504375,7.81866667 15.5570625,9.18533333 15.5701875,10.9013333 C15.5715,11.0573333 15.6961875,11.1826667 15.84975,11.1826667 L15.852375,11.1826667 Z M14.3784375,10.5986667 L14.371875,10.5986667 C14.217,10.5946667 14.0949375,10.4653333 14.098875,10.308 C14.119875,9.33466667 13.846875,8.548 13.2628125,7.9 C12.681375,7.25466667 11.883375,6.90133333 10.8215625,6.82266667 C10.668,6.81066667 10.5511875,6.67466667 10.563,6.51866667 C10.5748125,6.36133333 10.7086875,6.244 10.86225,6.25466667 C12.056625,6.344 13.0029375,6.768 13.67625,7.516 C14.3521875,8.26533333 14.6829375,9.20933333 14.658,10.32 C14.655375,10.476 14.5306875,10.5986667 14.3784375,10.5986667 Z M12.94125,10.1093333 C12.7929375,10.1093333 12.6695625,9.99066667 12.6616875,9.83866667 C12.6144375,8.87333333 12.166875,8.4 11.2520625,8.35066667 C11.0985,8.34133333 10.9790625,8.208 10.98825,8.05066667 C10.996125,7.89466667 11.127375,7.77333333 11.28225,7.78266667 C12.4884375,7.848 13.159125,8.54933333 13.2208125,9.81066667 C13.2286875,9.968 13.1105625,10.1013333 12.9556875,10.1093333 L12.94125,10.1093333 L12.94125,10.1093333 Z" id="Shape" fill="#FFFFFF"></path>
            </g>
            <path d="M68.5404,289.874109 C68.826,290.195938 69,290.620736 69,291.085511 C69,292.08734 68.1924,292.902613 67.2,292.902613 L63.7064,292.902613 C64.0524,293.962589 64.2,295.369026 64.2,295.9719 L64.2,296.577197 C64.2,297.912969 63.1232,299 61.8,299 L61.2,299 C60.9248,299 60.6848,298.811021 60.618,298.541283 L60.2912,297.221259 C59.8332,295.37266 58.3792,293.333064 56.8744,292.962375 C56.6108,293.635914 55.96,294.114014 55.2,294.114014 L51.6,294.114014 C51.2688,294.114014 51,293.84266 51,293.508314 L51,282.605701 C51,282.271354 51.2688,282 51.6,282 L55.2,282 C55.9156,282 56.5348,282.423587 56.8248,283.035748 L58.8864,282.342019 C59.5604,282.115083 60.2628,282 60.9736,282 L66,282 C66.9924,282 67.8,282.815273 67.8,283.817102 C67.8,284.053325 67.7552,284.279454 67.6736,284.486603 C68.4368,284.696983 69,285.40323 69,286.239905 C69,286.704679 68.826,287.129477 68.5404,287.451306 C68.826,287.773135 69,288.197933 69,288.662708 C69,289.127482 68.826,289.55228 68.5404,289.874109 Z M55.8,283.817102 C55.8,283.483159 55.5308,283.211401 55.2,283.211401 L52.2,283.211401 L52.2,292.902613 L55.2,292.902613 C55.5308,292.902613 55.8,292.630855 55.8,292.296912 L55.8,283.817102 Z M66,289.268409 L67.2,289.268409 C67.5308,289.268409 67.8,288.996651 67.8,288.662708 C67.8,288.328765 67.5308,288.057007 67.2,288.057007 L66,288.057007 C65.6688,288.057007 65.4,287.785653 65.4,287.451306 C65.4,287.11696 65.6688,286.845606 66,286.845606 L67.2,286.845606 C67.5308,286.845606 67.8,286.573848 67.8,286.239905 C67.8,285.905962 67.5308,285.634204 67.2,285.634204 L66,285.634204 C65.6688,285.634204 65.4,285.36285 65.4,285.028504 C65.4,284.694157 65.6688,284.422803 66,284.422803 C66.3308,284.422803 66.6,284.151045 66.6,283.817102 C66.6,283.483159 66.3308,283.211401 66,283.211401 L60.9736,283.211401 C60.392,283.211401 59.8172,283.305487 59.2656,283.491235 L57,284.25361 L57,291.748551 C57.9412,291.92905 58.8624,292.530713 59.694,293.515582 C60.506,294.477435 61.1644,295.752637 61.4552,296.927292 L61.6684,297.788599 L61.8,297.788599 C62.4616,297.788599 63,297.245083 63,296.577197 L63,295.9719 C63,295.158646 62.748,293.598765 62.4256,292.902613 L61.2,292.902613 C60.8688,292.902613 60.6,292.631259 60.6,292.296912 C60.6,291.962565 60.8688,291.691211 61.2,291.691211 L67.2,291.691211 C67.5308,291.691211 67.8,291.419454 67.8,291.085511 C67.8,290.751568 67.5308,290.47981 67.2,290.47981 L66,290.47981 C65.6688,290.47981 65.4,290.208456 65.4,289.874109 C65.4,289.539762 65.6688,289.268409 66,289.268409 Z M53.925,284.297297 C54.2977922,284.297297 54.6,284.605858 54.6,284.986486 C54.6,285.367115 54.2977922,285.675676 53.925,285.675676 C53.5522078,285.675676 53.25,285.367115 53.25,284.986486 C53.25,284.605858 53.5522078,284.297297 53.925,284.297297 Z" id="no-like_hover-copy-3" fill="#FF5824"></path>
            <path d="M20.5404,289.874109 C20.826,290.195938 21,290.620736 21,291.085511 C21,292.08734 20.1924,292.902613 19.2,292.902613 L15.7064,292.902613 C16.0524,293.962589 16.2,295.369026 16.2,295.9719 L16.2,296.577197 C16.2,297.912969 15.1232,299 13.8,299 L13.2,299 C12.9248,299 12.6848,298.811021 12.618,298.541283 L12.2912,297.221259 C11.8332,295.37266 10.3792,293.333064 8.8744,292.962375 C8.6108,293.635914 7.96,294.114014 7.2,294.114014 L3.6,294.114014 C3.2688,294.114014 3,293.84266 3,293.508314 L3,282.605701 C3,282.271354 3.2688,282 3.6,282 L7.2,282 C7.9156,282 8.5348,282.423587 8.8248,283.035748 L10.8864,282.342019 C11.5604,282.115083 12.2628,282 12.9736,282 L18,282 C18.9924,282 19.8,282.815273 19.8,283.817102 C19.8,284.053325 19.7552,284.279454 19.6736,284.486603 C20.4368,284.696983 21,285.40323 21,286.239905 C21,286.704679 20.826,287.129477 20.5404,287.451306 C20.826,287.773135 21,288.197933 21,288.662708 C21,289.127482 20.826,289.55228 20.5404,289.874109 Z M7.8,283.817102 C7.8,283.483159 7.5308,283.211401 7.2,283.211401 L4.2,283.211401 L4.2,292.902613 L7.2,292.902613 C7.5308,292.902613 7.8,292.630855 7.8,292.296912 L7.8,283.817102 Z M18,289.268409 L19.2,289.268409 C19.5308,289.268409 19.8,288.996651 19.8,288.662708 C19.8,288.328765 19.5308,288.057007 19.2,288.057007 L18,288.057007 C17.6688,288.057007 17.4,287.785653 17.4,287.451306 C17.4,287.11696 17.6688,286.845606 18,286.845606 L19.2,286.845606 C19.5308,286.845606 19.8,286.573848 19.8,286.239905 C19.8,285.905962 19.5308,285.634204 19.2,285.634204 L18,285.634204 C17.6688,285.634204 17.4,285.36285 17.4,285.028504 C17.4,284.694157 17.6688,284.422803 18,284.422803 C18.3308,284.422803 18.6,284.151045 18.6,283.817102 C18.6,283.483159 18.3308,283.211401 18,283.211401 L12.9736,283.211401 C12.392,283.211401 11.8172,283.305487 11.2656,283.491235 L9,284.25361 L9,291.748551 C9.9412,291.92905 10.8624,292.530713 11.694,293.515582 C12.506,294.477435 13.1644,295.752637 13.4552,296.927292 L13.6684,297.788599 L13.8,297.788599 C14.4616,297.788599 15,297.245083 15,296.577197 L15,295.9719 C15,295.158646 14.748,293.598765 14.4256,292.902613 L13.2,292.902613 C12.8688,292.902613 12.6,292.631259 12.6,292.296912 C12.6,291.962565 12.8688,291.691211 13.2,291.691211 L19.2,291.691211 C19.5308,291.691211 19.8,291.419454 19.8,291.085511 C19.8,290.751568 19.5308,290.47981 19.2,290.47981 L18,290.47981 C17.6688,290.47981 17.4,290.208456 17.4,289.874109 C17.4,289.539762 17.6688,289.268409 18,289.268409 Z M5.925,284.297297 C6.29779221,284.297297 6.6,284.605858 6.6,284.986486 C6.6,285.367115 6.29779221,285.675676 5.925,285.675676 C5.55220779,285.675676 5.25,285.367115 5.25,284.986486 C5.25,284.605858 5.55220779,284.297297 5.925,284.297297 Z" id="no-like-copy-3" fill="#9EA9B8"></path>
            <path d="M66.356956,236.689534 C67.8137811,236.689534 69,237.883316 69,239.34943 L69,243.639585 C69,245.105699 67.8137811,246.299482 66.356956,246.299482 L65.8935892,246.299482 L65.8935892,249.671917 C65.8935892,250.403109 65.3004797,251 64.5739206,251 L56.3778892,251 C55.6513301,251 55.0582207,250.403109 55.0582207,249.671917 L55.0582207,246.299482 L54.643044,246.299482 C53.1862189,246.299482 52,245.105699 52,243.639585 L52,239.34943 C52,237.883316 53.1862189,236.689534 54.643044,236.689534 L55.0619276,236.689534 L55.0619276,235.659896 C55.0619276,234.193782 56.2481465,233 57.7049717,233 L63.2542521,233 C64.7110772,233 65.8972961,234.193782 65.8972961,235.659896 L65.8972961,236.689534 L66.356956,236.689534 Z M56.0590929,235.659896 L56.0590929,236.689534 L64.88901,236.689534 L64.88901,235.659896 C64.88901,234.749637 64.1513301,234.007254 63.2468382,234.007254 L57.7012647,234.007254 C56.7967728,234.007254 56.0590929,234.749637 56.0590929,235.659896 Z M64.892717,249.679378 L64.892717,244.117098 L56.0590929,244.117098 L56.0590929,249.679378 C56.0590929,249.854715 56.2036633,250.000207 56.3778892,250.000207 L64.5739206,250.000207 C64.7481465,250.000207 64.892717,249.854715 64.892717,249.679378 Z M67.9991278,243.643316 L67.9991278,239.353161 C67.9991278,238.442902 67.2614479,237.700518 66.356956,237.700518 L54.643044,237.700518 C53.7385521,237.700518 53.0008722,238.442902 53.0008722,239.353161 L53.0008722,243.643316 C53.0008722,244.553575 53.7385521,245.295959 54.643044,245.295959 L55.0619276,245.295959 L55.0619276,244.117098 L54.3242477,244.117098 C54.0462276,244.117098 53.8238116,243.893264 53.8238116,243.613472 C53.8238116,243.333679 54.0462276,243.109845 54.3242477,243.109845 L66.5571304,243.109845 C66.8351505,243.109845 67.0575665,243.333679 67.0575665,243.613472 C67.0575665,243.893264 66.8351505,244.117098 66.5571304,244.117098 L65.8972961,244.117098 L65.8972961,245.295959 L66.356956,245.295959 C67.2614479,245.295959 67.9991278,244.553575 67.9991278,243.643316 Z M57.2712604,246.594197 C56.9969472,246.594197 56.7708242,246.370363 56.7708242,246.09057 C56.7708242,245.810777 56.9932403,245.586943 57.2712604,245.586943 L63.6434802,245.586943 C63.9215002,245.586943 64.1439163,245.810777 64.1439163,246.09057 C64.1439163,246.370363 63.9215002,246.594197 63.6434802,246.594197 L57.2712604,246.594197 Z M63.6842564,247.646218 C63.9585696,247.646218 64.1809856,247.870052 64.1809856,248.149845 C64.1809856,248.429637 63.9585696,248.653472 63.6805495,248.653472 L57.3083297,248.653472 C57.0303096,248.653472 56.8078936,248.429637 56.8078936,248.149845 C56.8078936,247.870052 57.0303096,247.646218 57.3083297,247.646218 L63.6842564,247.646218 Z M66.3458352,238.666736 C66.6238552,238.666736 66.8462713,238.89057 66.8462713,239.170363 C66.8462713,239.450155 66.6238552,239.67399 66.3458352,239.67399 L65.3301352,239.67399 C65.0521151,239.67399 64.8296991,239.450155 64.8296991,239.170363 C64.8296991,238.89057 65.0521151,238.666736 65.3301352,238.666736 L66.3458352,238.666736 Z" id="print_hover-copy-3" fill="#FF5824"></path>
            <path d="M18.356956,236.689534 C19.8137811,236.689534 21,237.883316 21,239.34943 L21,243.639585 C21,245.105699 19.8137811,246.299482 18.356956,246.299482 L17.8935892,246.299482 L17.8935892,249.671917 C17.8935892,250.403109 17.3004797,251 16.5739206,251 L8.37788923,251 C7.65133014,251 7.05822067,250.403109 7.05822067,249.671917 L7.05822067,246.299482 L6.64304405,246.299482 C5.18621893,246.299482 4,245.105699 4,243.639585 L4,239.34943 C4,237.883316 5.18621893,236.689534 6.64304405,236.689534 L7.06192761,236.689534 L7.06192761,235.659896 C7.06192761,234.193782 8.24814653,233 9.70497165,233 L15.2542521,233 C16.7110772,233 17.8972961,234.193782 17.8972961,235.659896 L17.8972961,236.689534 L18.356956,236.689534 Z M8.05909289,235.659896 L8.05909289,236.689534 L16.88901,236.689534 L16.88901,235.659896 C16.88901,234.749637 16.1513301,234.007254 15.2468382,234.007254 L9.70126472,234.007254 C8.79677279,234.007254 8.05909289,234.749637 8.05909289,235.659896 Z M16.892717,249.679378 L16.892717,244.117098 L8.05909289,244.117098 L8.05909289,249.679378 C8.05909289,249.854715 8.20366332,250.000207 8.37788923,250.000207 L16.5739206,250.000207 C16.7481465,250.000207 16.892717,249.854715 16.892717,249.679378 Z M19.9991278,243.643316 L19.9991278,239.353161 C19.9991278,238.442902 19.2614479,237.700518 18.356956,237.700518 L6.64304405,237.700518 C5.73855212,237.700518 5.00087222,238.442902 5.00087222,239.353161 L5.00087222,243.643316 C5.00087222,244.553575 5.73855212,245.295959 6.64304405,245.295959 L7.06192761,245.295959 L7.06192761,244.117098 L6.32424771,244.117098 C6.04622765,244.117098 5.8238116,243.893264 5.8238116,243.613472 C5.8238116,243.333679 6.04622765,243.109845 6.32424771,243.109845 L18.5571304,243.109845 C18.8351505,243.109845 19.0575665,243.333679 19.0575665,243.613472 C19.0575665,243.893264 18.8351505,244.117098 18.5571304,244.117098 L17.8972961,244.117098 L17.8972961,245.295959 L18.356956,245.295959 C19.2614479,245.295959 19.9991278,244.553575 19.9991278,243.643316 Z M9.27126036,246.594197 C8.99694723,246.594197 8.77082425,246.370363 8.77082425,246.09057 C8.77082425,245.810777 8.9932403,245.586943 9.27126036,245.586943 L15.6434802,245.586943 C15.9215002,245.586943 16.1439163,245.810777 16.1439163,246.09057 C16.1439163,246.370363 15.9215002,246.594197 15.6434802,246.594197 L9.27126036,246.594197 Z M15.6842564,247.646218 C15.9585696,247.646218 16.1809856,247.870052 16.1809856,248.149845 C16.1809856,248.429637 15.9585696,248.653472 15.6805495,248.653472 L9.3083297,248.653472 C9.03030964,248.653472 8.80789359,248.429637 8.80789359,248.149845 C8.80789359,247.870052 9.03030964,247.646218 9.3083297,247.646218 L15.6842564,247.646218 Z M18.3458352,238.666736 C18.6238552,238.666736 18.8462713,238.89057 18.8462713,239.170363 C18.8462713,239.450155 18.6238552,239.67399 18.3458352,239.67399 L17.3301352,239.67399 C17.0521151,239.67399 16.8296991,239.450155 16.8296991,239.170363 C16.8296991,238.89057 17.0521151,238.666736 17.3301352,238.666736 L18.3458352,238.666736 Z" id="print-copy-3" fill="#9EA9B8"></path>
            <g id="whatsap-copy-3" transform="translate(0.000000, 144.000000)">
                <path d="M6.29189189,20.627027 L6.68108108,20.8216216 C8.3027027,21.7945946 10.1189189,22.2486486 11.9351351,22.2486486 L11.9351351,22.2486486 C17.6432432,22.2486486 22.3135135,17.5783784 22.3135135,11.8702703 C22.3135135,9.14594595 21.2108108,6.48648649 19.2648649,4.54054054 C17.3189189,2.59459459 14.7243243,1.49189189 11.9351351,1.49189189 C6.22702703,1.49189189 1.55675676,6.16216216 1.62162162,11.9351351 C1.62162162,13.8810811 2.20540541,15.7621622 3.17837838,17.3837838 L3.43783784,17.772973 L2.4,21.6 L6.29189189,20.627027 Z" id="Path" fill="#00E676"></path>
                <path d="M20.3675676,3.5027027 C18.1621622,1.23243243 15.1135135,0 12,0 C5.38378378,0 0.0648648649,5.38378378 0.12972973,11.9351351 C0.12972973,14.0108108 0.713513514,16.0216216 1.68648649,17.8378378 L0,24 L6.29189189,22.3783784 C8.04324324,23.3513514 9.98918919,23.8054054 11.9351351,23.8054054 L11.9351351,23.8054054 C18.4864865,23.8054054 23.8054054,18.4216216 23.8054054,11.8702703 C23.8054054,8.69189189 22.572973,5.70810811 20.3675676,3.5027027 Z M12,21.7945946 L12,21.7945946 C10.2486486,21.7945946 8.4972973,21.3405405 7.00540541,20.4324324 L6.61621622,20.2378378 L2.85405405,21.2108108 L3.82702703,17.5135135 L3.56756757,17.1243243 C0.713513514,12.5189189 2.07567568,6.42162162 6.74594595,3.56756757 C11.4162162,0.713513514 17.4486486,2.07567568 20.3027027,6.74594595 C23.1567568,11.4162162 21.7945946,17.4486486 17.1243243,20.3027027 C15.6324324,21.2756757 13.8162162,21.7945946 12,21.7945946 Z M17.7081081,14.5945946 L16.9945946,14.2702703 C16.9945946,14.2702703 15.9567568,13.8162162 15.3081081,13.4918919 C15.2432432,13.4918919 15.1783784,13.427027 15.1135135,13.427027 C14.9189189,13.427027 14.7891892,13.4918919 14.6594595,13.5567568 L14.6594595,13.5567568 C14.6594595,13.5567568 14.5945946,13.6216216 13.6864865,14.6594595 C13.6216216,14.7891892 13.4918919,14.8540541 13.3621622,14.8540541 L13.2972973,14.8540541 C13.2324324,14.8540541 13.1027027,14.7891892 13.0378378,14.7243243 L12.7135135,14.5945946 L12.7135135,14.5945946 C12,14.2702703 11.3513514,13.8810811 10.8324324,13.3621622 C10.7027027,13.2324324 10.5081081,13.1027027 10.3783784,12.972973 C9.92432432,12.5189189 9.47027027,12 9.14594595,11.4162162 L9.08108108,11.2864865 C9.01621622,11.2216216 9.01621622,11.1567568 8.95135135,11.027027 C8.95135135,10.8972973 8.95135135,10.7675676 9.01621622,10.7027027 C9.01621622,10.7027027 9.27567568,10.3783784 9.47027027,10.1837838 C9.6,10.0540541 9.66486486,9.85945946 9.79459459,9.72972973 C9.92432432,9.53513514 9.98918919,9.27567568 9.92432432,9.08108108 C9.85945946,8.75675676 9.08108108,7.00540541 8.88648649,6.61621622 C8.75675676,6.42162162 8.62702703,6.35675676 8.43243243,6.29189189 L8.23783784,6.29189189 C8.10810811,6.29189189 7.91351351,6.29189189 7.71891892,6.29189189 C7.58918919,6.29189189 7.45945946,6.35675676 7.32972973,6.35675676 L7.26486486,6.42162162 C7.13513514,6.48648649 7.00540541,6.61621622 6.87567568,6.68108108 C6.74594595,6.81081081 6.68108108,6.94054054 6.55135135,7.07027027 C6.0972973,7.65405405 5.83783784,8.36756757 5.83783784,9.08108108 L5.83783784,9.08108108 C5.83783784,9.6 5.96756757,10.1189189 6.16216216,10.572973 L6.22702703,10.7675676 C6.81081081,12 7.58918919,13.1027027 8.62702703,14.0756757 L8.88648649,14.3351351 C9.08108108,14.5297297 9.27567568,14.6594595 9.40540541,14.8540541 C10.7675676,16.0216216 12.3243243,16.8648649 14.0756757,17.3189189 C14.2702703,17.3837838 14.5297297,17.3837838 14.7243243,17.4486486 L14.7243243,17.4486486 C14.9189189,17.4486486 15.1783784,17.4486486 15.372973,17.4486486 C15.6972973,17.4486486 16.0864865,17.3189189 16.3459459,17.1891892 C16.5405405,17.0594595 16.6702703,17.0594595 16.8,16.9297297 L16.9297297,16.8 C17.0594595,16.6702703 17.1891892,16.6054054 17.3189189,16.4756757 C17.4486486,16.3459459 17.5783784,16.2162162 17.6432432,16.0864865 C17.772973,15.827027 17.8378378,15.5027027 17.9027027,15.1783784 C17.9027027,15.0486486 17.9027027,14.8540541 17.9027027,14.7243243 C17.9027027,14.7243243 17.8378378,14.6594595 17.7081081,14.5945946 Z" id="Shape" fill="#FFFFFF"></path>
            </g>
            <g id="whatsap_hover-copy-3" transform="translate(48.000000, 144.000000)">
                <path d="M6.29189189,20.627027 L6.68108108,20.8216216 C8.3027027,21.7945946 10.1189189,22.2486486 11.9351351,22.2486486 L11.9351351,22.2486486 C17.6432432,22.2486486 22.3135135,17.5783784 22.3135135,11.8702703 C22.3135135,9.14594595 21.2108108,6.48648649 19.2648649,4.54054054 C17.3189189,2.59459459 14.7243243,1.49189189 11.9351351,1.49189189 C6.22702703,1.49189189 1.55675676,6.16216216 1.62162162,11.9351351 C1.62162162,13.8810811 2.20540541,15.7621622 3.17837838,17.3837838 L3.43783784,17.772973 L2.4,21.6 L6.29189189,20.627027 Z" id="Path" fill="#01B45D"></path>
                <path d="M20.3675676,3.5027027 C18.1621622,1.23243243 15.1135135,0 12,0 C5.38378378,0 0.0648648649,5.38378378 0.12972973,11.9351351 C0.12972973,14.0108108 0.713513514,16.0216216 1.68648649,17.8378378 L0,24 L6.29189189,22.3783784 C8.04324324,23.3513514 9.98918919,23.8054054 11.9351351,23.8054054 L11.9351351,23.8054054 C18.4864865,23.8054054 23.8054054,18.4216216 23.8054054,11.8702703 C23.8054054,8.69189189 22.572973,5.70810811 20.3675676,3.5027027 Z M12,21.7945946 L12,21.7945946 C10.2486486,21.7945946 8.4972973,21.3405405 7.00540541,20.4324324 L6.61621622,20.2378378 L2.85405405,21.2108108 L3.82702703,17.5135135 L3.56756757,17.1243243 C0.713513514,12.5189189 2.07567568,6.42162162 6.74594595,3.56756757 C11.4162162,0.713513514 17.4486486,2.07567568 20.3027027,6.74594595 C23.1567568,11.4162162 21.7945946,17.4486486 17.1243243,20.3027027 C15.6324324,21.2756757 13.8162162,21.7945946 12,21.7945946 Z M17.7081081,14.5945946 L16.9945946,14.2702703 C16.9945946,14.2702703 15.9567568,13.8162162 15.3081081,13.4918919 C15.2432432,13.4918919 15.1783784,13.427027 15.1135135,13.427027 C14.9189189,13.427027 14.7891892,13.4918919 14.6594595,13.5567568 L14.6594595,13.5567568 C14.6594595,13.5567568 14.5945946,13.6216216 13.6864865,14.6594595 C13.6216216,14.7891892 13.4918919,14.8540541 13.3621622,14.8540541 L13.2972973,14.8540541 C13.2324324,14.8540541 13.1027027,14.7891892 13.0378378,14.7243243 L12.7135135,14.5945946 L12.7135135,14.5945946 C12,14.2702703 11.3513514,13.8810811 10.8324324,13.3621622 C10.7027027,13.2324324 10.5081081,13.1027027 10.3783784,12.972973 C9.92432432,12.5189189 9.47027027,12 9.14594595,11.4162162 L9.08108108,11.2864865 C9.01621622,11.2216216 9.01621622,11.1567568 8.95135135,11.027027 C8.95135135,10.8972973 8.95135135,10.7675676 9.01621622,10.7027027 C9.01621622,10.7027027 9.27567568,10.3783784 9.47027027,10.1837838 C9.6,10.0540541 9.66486486,9.85945946 9.79459459,9.72972973 C9.92432432,9.53513514 9.98918919,9.27567568 9.92432432,9.08108108 C9.85945946,8.75675676 9.08108108,7.00540541 8.88648649,6.61621622 C8.75675676,6.42162162 8.62702703,6.35675676 8.43243243,6.29189189 L8.23783784,6.29189189 C8.10810811,6.29189189 7.91351351,6.29189189 7.71891892,6.29189189 C7.58918919,6.29189189 7.45945946,6.35675676 7.32972973,6.35675676 L7.26486486,6.42162162 C7.13513514,6.48648649 7.00540541,6.61621622 6.87567568,6.68108108 C6.74594595,6.81081081 6.68108108,6.94054054 6.55135135,7.07027027 C6.0972973,7.65405405 5.83783784,8.36756757 5.83783784,9.08108108 L5.83783784,9.08108108 C5.83783784,9.6 5.96756757,10.1189189 6.16216216,10.572973 L6.22702703,10.7675676 C6.81081081,12 7.58918919,13.1027027 8.62702703,14.0756757 L8.88648649,14.3351351 C9.08108108,14.5297297 9.27567568,14.6594595 9.40540541,14.8540541 C10.7675676,16.0216216 12.3243243,16.8648649 14.0756757,17.3189189 C14.2702703,17.3837838 14.5297297,17.3837838 14.7243243,17.4486486 L14.7243243,17.4486486 C14.9189189,17.4486486 15.1783784,17.4486486 15.372973,17.4486486 C15.6972973,17.4486486 16.0864865,17.3189189 16.3459459,17.1891892 C16.5405405,17.0594595 16.6702703,17.0594595 16.8,16.9297297 L16.9297297,16.8 C17.0594595,16.6702703 17.1891892,16.6054054 17.3189189,16.4756757 C17.4486486,16.3459459 17.5783784,16.2162162 17.6432432,16.0864865 C17.772973,15.827027 17.8378378,15.5027027 17.9027027,15.1783784 C17.9027027,15.0486486 17.9027027,14.8540541 17.9027027,14.7243243 C17.9027027,14.7243243 17.8378378,14.6594595 17.7081081,14.5945946 Z" id="Shape" fill="#FFFFFF"></path>
            </g>
            <g id="Im-icq_in_colours-Copy-5" stroke-linecap="round" stroke-linejoin="round" transform="translate(1.000000, 194.000000)" stroke="#000000">
                <g id="g3264" stroke-width="0.99999952">
                    <path d="M10.202602,11.8166815 L2.7606539,13.5469585 C1.37724355,13.609108 0.2134894,12.5454215 0.15133975,11.162011 C0.08919005,9.7786005 1.15287695,8.614847 2.536287,8.552697 L10.1034085,9.608693 C10.7150215,9.5812155 11.2295225,10.0514775 11.2569995,10.6630905 C11.284476,11.2747035 10.8142155,11.7892045 10.202602,11.8166815 Z" id="path4856" fill="#FF0000"></path>
                    <path d="M11.233406,9.140061 L13.3431035,1.79665435 C13.9619855,0.5578356 15.4575355,0.0587528 16.696354,0.6776349 C17.935173,1.29651685 18.4342555,2.79206665 17.8153735,4.030885 L13.2106195,10.127826 C12.937009,10.6755145 12.2758185,10.8961615 11.7281305,10.6225505 C11.180442,10.3489395 10.959795,9.6877495 11.233406,9.140061 Z" id="path4854" fill="#00BF00"></path>
                    <path d="M8.7593675,10.673904 L3.1679634,8.5983045 C2.24022715,8.0434575 1.94003125,6.849898 2.49487825,5.922161 C3.0497254,4.9944255 4.2432855,4.6942295 5.1710215,5.249076 L9.6449295,9.193193 C10.055087,9.438494 10.187805,9.966173 9.942504,10.3763295 C9.6972035,10.786487 9.1695245,10.9192045 8.7593675,10.673904 Z" id="path4858" fill="#00BF00"></path>
                    <path d="M9.6960985,10.1280675 L4.822354,4.243928 C4.148498,3.0341326 4.579958,1.51769075 5.789754,0.84383435 C6.9995495,0.16997805 8.5159915,0.60143825 9.1898475,1.8112338 L11.6269895,9.0525605 C11.9249055,9.5874175 11.7341545,10.2578445 11.1992975,10.5557595 C10.6644405,10.853675 9.9940135,10.6629245 9.6960985,10.1280675 Z" id="path4860" fill="#00BF00"></path>
                    <path d="M12.080083,9.7692605 L19.592188,8.3747185 C20.9769945,8.3747185 22.091838,9.4895625 22.091838,10.8743685 C22.091838,12.2591745 20.9769945,13.3740185 19.592188,13.3740185 L12.080083,11.9794765 C11.467853,11.9794765 10.974975,11.4865985 10.974975,10.8743685 C10.974975,10.2621385 11.467853,9.7692605 12.080083,9.7692605 Z" id="rect4849" fill="#00BF00"></path>
                    <path d="M12.684048,8.810305 L17.2181515,4.935538 C18.1543205,4.3950405 19.3431165,4.7135775 19.8836145,5.6497465 C20.424112,6.5859155 20.1055745,7.774712 19.169406,8.3152095 L13.5467075,10.304475 C13.1328225,10.5434315 12.6072495,10.402605 12.368293,9.9887195 C12.129336,9.5748345 12.270163,9.0492615 12.684048,8.810305 Z" id="path4852" fill="#00BF00"></path>
                    <path d="M10.763686,9.0466795 L9.5049045,3.2168114 C9.4734475,2.1362748 10.3180125,1.24105925 11.39855,1.2096013 C12.479086,1.17814375 13.374302,2.02270925 13.4057595,3.1032457 L12.4882735,8.996472 C12.5021815,9.474183 12.128795,9.8699625 11.6510835,9.8838695 C11.1733725,9.8977775 10.777593,9.5243905 10.763686,9.0466795 Z" id="path4862" fill="#00BF00"></path>
                    <path d="M11.73104,12.0404955 L9.734119,19.4153685 C9.1342935,20.6635255 7.646567,21.185467 6.39841,20.585641 C5.150253,19.985815 4.628312,18.4980885 5.2281375,17.249932 L9.738923,11.0831445 C10.004109,10.531328 10.6618405,10.300575 11.213657,10.565761 C11.765474,10.8309475 11.996227,11.4886785 11.73104,12.0404955 Z" id="path4864" fill="#00BF00"></path>
                    <path d="M10.0413975,12.7712295 L5.5672025,16.7150205 C4.639426,17.2698005 3.4458881,16.9695175 2.8911081,16.0417405 C2.3363288,15.113964 2.6366117,13.9204265 3.5643879,13.3656465 L9.1559435,11.290454 C9.566118,11.0451825 10.0937875,11.177939 10.339058,11.588114 C10.584329,11.998289 10.4515725,12.525958 10.0413975,12.7712295 Z" id="path4868" fill="#00BF00"></path>
                    <path d="M13.2530275,11.0290475 L18.2163665,16.837812 C18.9086825,18.037139 18.5005105,19.5600145 17.3011825,20.2523305 C16.1018555,20.9446465 14.57898,20.5364745 13.8866645,19.337147 L11.3388435,12.1340165 C11.0327675,11.6037875 11.213222,10.930517 11.7434505,10.6244405 C12.2736805,10.3183635 12.9469515,10.498819 13.2530275,11.0290475 Z" id="path4870" fill="#00BF00"></path>
                    <path d="M12.2021365,12.126668 L13.550105,17.9365625 C13.598117,19.01649 12.767369,19.9245425 11.6874405,19.9725545 C10.6075135,20.0205665 9.6994605,19.189818 9.651449,18.1098905 L10.4785205,12.203297 C10.4572935,11.7258545 10.824572,11.324401 11.302014,11.3031745 C11.779456,11.281948 12.1809105,11.6492265 12.2021365,12.126668 Z" id="path4872" fill="#00BF00"></path>
                    <path d="M13.806284,10.5939205 L19.428838,12.583595 C20.3649675,13.1241605 20.683418,14.3129795 20.1428525,15.24911 C19.602287,16.1852395 18.4134675,16.50369 17.4773375,15.963125 L12.943516,12.0880285 C12.529648,11.8490415 12.388859,11.323458 12.6278465,10.9095905 C12.866833,10.495722 13.3924165,10.354934 13.806284,10.5939205 Z" id="path4866" fill="#00BF00"></path>
                </g>
                <path d="M13.9294077,10.6231926 C13.9294077,11.6267925 13.3939936,12.5541569 12.5248507,13.0559568 C11.6557077,13.5577568 10.5848795,13.5577568 9.71573656,13.0559568 C8.84659363,12.5541569 8.31117954,11.6267925 8.31117954,10.6231926 C8.31117954,9.61959283 8.84659363,8.69222836 9.71573656,8.19042844 C10.5848795,7.68862853 11.6557077,7.68862853 12.5248507,8.19042844 C13.3939936,8.69222836 13.9294077,9.61959283 13.9294077,10.6231926 L13.9294077,10.6231926 Z" id="path4838" stroke-width="0.999999652" fill="#FFEE00"></path>
            </g>
            <g id="Im-icq_in_colours-Copy-6" stroke-linecap="round" stroke-linejoin="round" transform="translate(49.000000, 194.000000)" stroke="#000000">
                <g id="g3264" stroke-width="0.99999952">
                    <path d="M10.202602,11.8166815 L2.7606539,13.5469585 C1.37724355,13.609108 0.2134894,12.5454215 0.15133975,11.162011 C0.08919005,9.7786005 1.15287695,8.614847 2.536287,8.552697 L10.1034085,9.608693 C10.7150215,9.5812155 11.2295225,10.0514775 11.2569995,10.6630905 C11.284476,11.2747035 10.8142155,11.7892045 10.202602,11.8166815 Z" id="path4856" fill="#FF0000"></path>
                    <path d="M11.233406,9.140061 L13.3431035,1.79665435 C13.9619855,0.5578356 15.4575355,0.0587528 16.696354,0.6776349 C17.935173,1.29651685 18.4342555,2.79206665 17.8153735,4.030885 L13.2106195,10.127826 C12.937009,10.6755145 12.2758185,10.8961615 11.7281305,10.6225505 C11.180442,10.3489395 10.959795,9.6877495 11.233406,9.140061 Z" id="path4854" fill="#0F9D0F"></path>
                    <path d="M8.7593675,10.673904 L3.1679634,8.5983045 C2.24022715,8.0434575 1.94003125,6.849898 2.49487825,5.922161 C3.0497254,4.9944255 4.2432855,4.6942295 5.1710215,5.249076 L9.6449295,9.193193 C10.055087,9.438494 10.187805,9.966173 9.942504,10.3763295 C9.6972035,10.786487 9.1695245,10.9192045 8.7593675,10.673904 Z" id="path4858" fill="#0F9D0F"></path>
                    <path d="M9.6960985,10.1280675 L4.822354,4.243928 C4.148498,3.0341326 4.579958,1.51769075 5.789754,0.84383435 C6.9995495,0.16997805 8.5159915,0.60143825 9.1898475,1.8112338 L11.6269895,9.0525605 C11.9249055,9.5874175 11.7341545,10.2578445 11.1992975,10.5557595 C10.6644405,10.853675 9.9940135,10.6629245 9.6960985,10.1280675 Z" id="path4860" fill="#0F9D0F"></path>
                    <path d="M12.080083,9.7692605 L19.592188,8.3747185 C20.9769945,8.3747185 22.091838,9.4895625 22.091838,10.8743685 C22.091838,12.2591745 20.9769945,13.3740185 19.592188,13.3740185 L12.080083,11.9794765 C11.467853,11.9794765 10.974975,11.4865985 10.974975,10.8743685 C10.974975,10.2621385 11.467853,9.7692605 12.080083,9.7692605 Z" id="rect4849" fill="#0F9D0F"></path>
                    <path d="M12.684048,8.810305 L17.2181515,4.935538 C18.1543205,4.3950405 19.3431165,4.7135775 19.8836145,5.6497465 C20.424112,6.5859155 20.1055745,7.774712 19.169406,8.3152095 L13.5467075,10.304475 C13.1328225,10.5434315 12.6072495,10.402605 12.368293,9.9887195 C12.129336,9.5748345 12.270163,9.0492615 12.684048,8.810305 Z" id="path4852" fill="#0F9D0F"></path>
                    <path d="M10.763686,9.0466795 L9.5049045,3.2168114 C9.4734475,2.1362748 10.3180125,1.24105925 11.39855,1.2096013 C12.479086,1.17814375 13.374302,2.02270925 13.4057595,3.1032457 L12.4882735,8.996472 C12.5021815,9.474183 12.128795,9.8699625 11.6510835,9.8838695 C11.1733725,9.8977775 10.777593,9.5243905 10.763686,9.0466795 Z" id="path4862" fill="#0F9D0F"></path>
                    <path d="M11.73104,12.0404955 L9.734119,19.4153685 C9.1342935,20.6635255 7.646567,21.185467 6.39841,20.585641 C5.150253,19.985815 4.628312,18.4980885 5.2281375,17.249932 L9.738923,11.0831445 C10.004109,10.531328 10.6618405,10.300575 11.213657,10.565761 C11.765474,10.8309475 11.996227,11.4886785 11.73104,12.0404955 Z" id="path4864" fill="#0F9D0F"></path>
                    <path d="M10.0413975,12.7712295 L5.5672025,16.7150205 C4.639426,17.2698005 3.4458881,16.9695175 2.8911081,16.0417405 C2.3363288,15.113964 2.6366117,13.9204265 3.5643879,13.3656465 L9.1559435,11.290454 C9.566118,11.0451825 10.0937875,11.177939 10.339058,11.588114 C10.584329,11.998289 10.4515725,12.525958 10.0413975,12.7712295 Z" id="path4868" fill="#0F9D0F"></path>
                    <path d="M13.2530275,11.0290475 L18.2163665,16.837812 C18.9086825,18.037139 18.5005105,19.5600145 17.3011825,20.2523305 C16.1018555,20.9446465 14.57898,20.5364745 13.8866645,19.337147 L11.3388435,12.1340165 C11.0327675,11.6037875 11.213222,10.930517 11.7434505,10.6244405 C12.2736805,10.3183635 12.9469515,10.498819 13.2530275,11.0290475 Z" id="path4870" fill="#0F9D0F"></path>
                    <path d="M12.2021365,12.126668 L13.550105,17.9365625 C13.598117,19.01649 12.767369,19.9245425 11.6874405,19.9725545 C10.6075135,20.0205665 9.6994605,19.189818 9.651449,18.1098905 L10.4785205,12.203297 C10.4572935,11.7258545 10.824572,11.324401 11.302014,11.3031745 C11.779456,11.281948 12.1809105,11.6492265 12.2021365,12.126668 Z" id="path4872" fill="#0F9D0F"></path>
                    <path d="M13.806284,10.5939205 L19.428838,12.583595 C20.3649675,13.1241605 20.683418,14.3129795 20.1428525,15.24911 C19.602287,16.1852395 18.4134675,16.50369 17.4773375,15.963125 L12.943516,12.0880285 C12.529648,11.8490415 12.388859,11.323458 12.6278465,10.9095905 C12.866833,10.495722 13.3924165,10.354934 13.806284,10.5939205 Z" id="path4866" fill="#0F9D0F"></path>
                </g>
                <path d="M13.9294077,10.6231926 C13.9294077,11.6267925 13.3939936,12.5541569 12.5248507,13.0559568 C11.6557077,13.5577568 10.5848795,13.5577568 9.71573656,13.0559568 C8.84659363,12.5541569 8.31117954,11.6267925 8.31117954,10.6231926 C8.31117954,9.61959283 8.84659363,8.69222836 9.71573656,8.19042844 C10.5848795,7.68862853 11.6557077,7.68862853 12.5248507,8.19042844 C13.3939936,8.69222836 13.9294077,9.61959283 13.9294077,10.6231926 L13.9294077,10.6231926 Z" id="path4838" stroke-width="0.999999652" fill="#FFEE00"></path>
            </g>
            <g id="skype-copy-7" transform="translate(50.000000, 98.000000)">
                <g id="Path">
                    <g id="path-2-link" fill="url(#linearGradient-1)">
                        <path d="M20.3502945,12.7015479 C20.5008904,12.0186884 20.5807192,11.312887 20.5807192,10.5868048 C20.5807192,5.14543151 16.1076473,0.733273973 10.588387,0.733273973 C10.0063562,0.733273973 9.43540068,0.783041096 8.88019521,0.877325342 C7.9872637,0.322119863 6.93050342,0 5.79786986,0 C2.59630479,0 0.00230136986,2.55861986 0.00230136986,5.71566781 C0.00230136986,6.76976712 0.293640411,7.75705479 0.798431507,8.60626027 C0.665527397,9.24589726 0.596126712,9.90847603 0.596126712,10.5868048 C0.596126712,16.0301199 5.06919863,20.2779452 10.5878116,20.2779452 C11.2130651,20.2779452 11.8245822,20.2209863 12.417113,20.1129658 C13.233524,20.5450479 14.1658664,20.9542603 15.1571096,20.9542603 C18.3580274,20.9542603 20.9520308,18.3962877 20.9520308,15.2392397 C20.9520308,14.3285445 20.7352705,13.46625 20.3502945,12.7015479 Z" id="path-2"></path>
                    </g>
                    <g id="path-2-link" style="mix-blend-mode: multiply;" fill="#D8D8D8">
                        <path d="M20.3502945,12.7015479 C20.5008904,12.0186884 20.5807192,11.312887 20.5807192,10.5868048 C20.5807192,5.14543151 16.1076473,0.733273973 10.588387,0.733273973 C10.0063562,0.733273973 9.43540068,0.783041096 8.88019521,0.877325342 C7.9872637,0.322119863 6.93050342,0 5.79786986,0 C2.59630479,0 0.00230136986,2.55861986 0.00230136986,5.71566781 C0.00230136986,6.76976712 0.293640411,7.75705479 0.798431507,8.60626027 C0.665527397,9.24589726 0.596126712,9.90847603 0.596126712,10.5868048 C0.596126712,16.0301199 5.06919863,20.2779452 10.5878116,20.2779452 C11.2130651,20.2779452 11.8245822,20.2209863 12.417113,20.1129658 C13.233524,20.5450479 14.1658664,20.9542603 15.1571096,20.9542603 C18.3580274,20.9542603 20.9520308,18.3962877 20.9520308,15.2392397 C20.9520308,14.3285445 20.7352705,13.46625 20.3502945,12.7015479 Z" id="path-2"></path>
                    </g>
                </g>
                <path d="M15.1458904,14.6087363 C14.7602671,15.15675 14.1958562,15.5875377 13.4528014,15.8972158 C12.7096747,16.2094829 11.8297603,16.3640342 10.8116918,16.3640342 C9.59067123,16.3640342 8.58367808,16.1518767 7.78948973,15.7269863 C7.22773973,15.421911 6.77012671,15.0133459 6.41787329,14.5039521 C6.06691438,13.9945582 5.89085959,13.4983253 5.89085959,13.0157568 C5.89085959,12.7368596 5.9962911,12.4972295 6.20708219,12.2988082 C6.41787329,12.0977979 6.68698973,11.9989829 7.01241781,11.9989829 C7.27693151,11.9989829 7.5014589,12.0755753 7.68348288,12.2320685 C7.86680137,12.3872671 8.02329452,12.6170445 8.15159589,12.9227671 C8.30938356,13.2861678 8.47896575,13.5893014 8.66293151,13.8321678 C8.84495548,14.0750342 9.10292466,14.2766918 9.43417808,14.4344795 C9.76679795,14.5909726 10.2034829,14.6708014 10.7429384,14.6708014 C11.4854178,14.6708014 12.089024,14.5123664 12.5539007,14.1934829 C13.017411,13.8759658 13.2504966,13.4772534 13.2504966,13.0012295 C13.2504966,12.6240925 13.1247842,12.3157089 12.8746541,12.081976 C12.6238767,11.8463014 12.3004623,11.6662192 11.9036918,11.5425205 C11.5075685,11.4174555 10.9772466,11.2851986 10.3120788,11.14575 C9.42360616,10.9552397 8.67918493,10.7299932 8.08082877,10.4746849 C7.48175342,10.217363 7.00515411,9.86841781 6.65419521,9.42648288 C6.30194178,8.98260616 6.12646233,8.43265068 6.12646233,7.77596918 C6.12646233,7.14877397 6.3117226,6.59292123 6.68360959,6.10646918 C7.05484932,5.61936986 7.59106849,5.2455411 8.29550342,4.98361644 C8.99864384,4.7217637 9.82627397,4.59144863 10.7762363,4.59144863 C11.5356884,4.59144863 12.1930171,4.6785411 12.7475753,4.85071233 C13.3021336,5.02489726 13.761113,5.25532192 14.1263836,5.5427774 C14.4923733,5.83023288 14.7601233,6.13135274 14.928411,6.44757534 C15.0973459,6.76185616 15.1817774,7.07218151 15.1817774,7.37071233 C15.1817774,7.64500685 15.0769932,7.89384247 14.8662021,8.11319178 C14.655411,8.33318836 14.3921918,8.44379795 14.0772637,8.44379795 C13.7898082,8.44379795 13.5718253,8.3769863 13.422524,8.24544863 C13.2732226,8.11319178 13.1115514,7.89715068 12.9380137,7.59660616 C12.7121199,7.16711301 12.4430753,6.83190411 12.1275,6.59162671 C11.8119247,6.35070205 11.3064863,6.23023973 10.608524,6.23023973 C9.96234247,6.23023973 9.43985959,6.35990753 9.04308904,6.62240753 C8.64631849,6.88296575 8.44732192,7.1985411 8.44732192,7.56582534 C8.44732192,7.79236644 8.51607534,7.99006849 8.65027397,8.15569521 C8.7844726,8.32261644 8.97045205,8.46343151 9.20806849,8.58195205 C9.44309589,8.70111986 9.68272603,8.79410959 9.92429795,8.8627911 C10.1658699,8.93025 10.5659486,9.02777055 11.1237432,9.15743836 C11.820339,9.30738699 12.452137,9.47366096 13.0178425,9.65439041 C13.5829007,9.83576712 14.06475,10.056411 14.4615205,10.313661 C14.8576438,10.5729247 15.1679692,10.901589 15.3899075,11.2983596 C15.6118459,11.6938356 15.7238221,12.1789212 15.7238221,12.7538322 C15.7240377,13.4413664 15.5302911,14.0600753 15.1458904,14.6087363 Z" id="Path" fill="#FFFFFF"></path>
            </g>
            <g id="telegram-copy-7" transform="translate(2.000000, 50.000000)">
                <circle id="Oval" fill="url(#linearGradient-2)" cx="10.5" cy="10.5" r="10.5"></circle>
                <path d="M8.575,15.3125 C8.234835,15.3125 8.2926375,15.1840587 8.1753175,14.8601687 L7.175,11.5680162 L14.875,7" id="Path" fill="#C8DAEA"></path>
                <path d="M8.575,15.3125 C8.8375,15.3125 8.95348125,15.19245 9.1,15.05 L10.5,13.688675 L8.753675,12.6356125" id="Path" fill="#A9C9DD"></path>
                <path d="M8.7535,12.635875 L12.985,15.7621625 C13.4678687,16.0285912 13.8163725,15.8906475 13.93665,15.3138562 L15.6590875,7.19709375 C15.835435,6.49007625 15.3895787,6.16940625 14.92764,6.37912625 L4.813515,10.2790887 C4.12313125,10.556 4.12715625,10.9411662 4.6876725,11.1127887 L7.283185,11.92289 L13.2920725,8.1319525 C13.5757387,7.95993625 13.8360862,8.05241587 13.6224025,8.2420625" id="Path" fill="url(#linearGradient-3)"></path>
            </g>
            <g id="telegram-copy-8" transform="translate(50.000000, 50.000000)">
                <circle id="Oval" fill="url(#linearGradient-4)" cx="10.5" cy="10.5" r="10.5"></circle>
                <path d="M8.575,15.3125 C8.234835,15.3125 8.2926375,15.1840587 8.1753175,14.8601687 L7.175,11.5680162 L14.875,7" id="Path" fill="#C8DAEA"></path>
                <path d="M8.575,15.3125 C8.8375,15.3125 8.95348125,15.19245 9.1,15.05 L10.5,13.688675 L8.753675,12.6356125" id="Path" fill="#A9C9DD"></path>
                <path d="M8.7535,12.635875 L12.985,15.7621625 C13.4678687,16.0285912 13.8163725,15.8906475 13.93665,15.3138562 L15.6590875,7.19709375 C15.835435,6.49007625 15.3895787,6.16940625 14.92764,6.37912625 L4.813515,10.2790887 C4.12313125,10.556 4.12715625,10.9411662 4.6876725,11.1127887 L7.283185,11.92289 L13.2920725,8.1319525 C13.5757387,7.95993625 13.8360862,8.05241587 13.6224025,8.2420625" id="Path" fill="url(#linearGradient-3)"></path>
            </g>
            <g id="skype-copy-8" transform="translate(2.000000, 98.000000)">
                <path d="M20.3502945,12.7015479 C20.5008904,12.0186884 20.5807192,11.312887 20.5807192,10.5868048 C20.5807192,5.14543151 16.1076473,0.733273973 10.588387,0.733273973 C10.0063562,0.733273973 9.43540068,0.783041096 8.88019521,0.877325342 C7.9872637,0.322119863 6.93050342,0 5.79786986,0 C2.59630479,0 0.00230136986,2.55861986 0.00230136986,5.71566781 C0.00230136986,6.76976712 0.293640411,7.75705479 0.798431507,8.60626027 C0.665527397,9.24589726 0.596126712,9.90847603 0.596126712,10.5868048 C0.596126712,16.0301199 5.06919863,20.2779452 10.5878116,20.2779452 C11.2130651,20.2779452 11.8245822,20.2209863 12.417113,20.1129658 C13.233524,20.5450479 14.1658664,20.9542603 15.1571096,20.9542603 C18.3580274,20.9542603 20.9520308,18.3962877 20.9520308,15.2392397 C20.9520308,14.3285445 20.7352705,13.46625 20.3502945,12.7015479 Z" id="Path" fill="url(#linearGradient-1)"></path>
                <path d="M15.1458904,14.6087363 C14.7602671,15.15675 14.1958562,15.5875377 13.4528014,15.8972158 C12.7096747,16.2094829 11.8297603,16.3640342 10.8116918,16.3640342 C9.59067123,16.3640342 8.58367808,16.1518767 7.78948973,15.7269863 C7.22773973,15.421911 6.77012671,15.0133459 6.41787329,14.5039521 C6.06691438,13.9945582 5.89085959,13.4983253 5.89085959,13.0157568 C5.89085959,12.7368596 5.9962911,12.4972295 6.20708219,12.2988082 C6.41787329,12.0977979 6.68698973,11.9989829 7.01241781,11.9989829 C7.27693151,11.9989829 7.5014589,12.0755753 7.68348288,12.2320685 C7.86680137,12.3872671 8.02329452,12.6170445 8.15159589,12.9227671 C8.30938356,13.2861678 8.47896575,13.5893014 8.66293151,13.8321678 C8.84495548,14.0750342 9.10292466,14.2766918 9.43417808,14.4344795 C9.76679795,14.5909726 10.2034829,14.6708014 10.7429384,14.6708014 C11.4854178,14.6708014 12.089024,14.5123664 12.5539007,14.1934829 C13.017411,13.8759658 13.2504966,13.4772534 13.2504966,13.0012295 C13.2504966,12.6240925 13.1247842,12.3157089 12.8746541,12.081976 C12.6238767,11.8463014 12.3004623,11.6662192 11.9036918,11.5425205 C11.5075685,11.4174555 10.9772466,11.2851986 10.3120788,11.14575 C9.42360616,10.9552397 8.67918493,10.7299932 8.08082877,10.4746849 C7.48175342,10.217363 7.00515411,9.86841781 6.65419521,9.42648288 C6.30194178,8.98260616 6.12646233,8.43265068 6.12646233,7.77596918 C6.12646233,7.14877397 6.3117226,6.59292123 6.68360959,6.10646918 C7.05484932,5.61936986 7.59106849,5.2455411 8.29550342,4.98361644 C8.99864384,4.7217637 9.82627397,4.59144863 10.7762363,4.59144863 C11.5356884,4.59144863 12.1930171,4.6785411 12.7475753,4.85071233 C13.3021336,5.02489726 13.761113,5.25532192 14.1263836,5.5427774 C14.4923733,5.83023288 14.7601233,6.13135274 14.928411,6.44757534 C15.0973459,6.76185616 15.1817774,7.07218151 15.1817774,7.37071233 C15.1817774,7.64500685 15.0769932,7.89384247 14.8662021,8.11319178 C14.655411,8.33318836 14.3921918,8.44379795 14.0772637,8.44379795 C13.7898082,8.44379795 13.5718253,8.3769863 13.422524,8.24544863 C13.2732226,8.11319178 13.1115514,7.89715068 12.9380137,7.59660616 C12.7121199,7.16711301 12.4430753,6.83190411 12.1275,6.59162671 C11.8119247,6.35070205 11.3064863,6.23023973 10.608524,6.23023973 C9.96234247,6.23023973 9.43985959,6.35990753 9.04308904,6.62240753 C8.64631849,6.88296575 8.44732192,7.1985411 8.44732192,7.56582534 C8.44732192,7.79236644 8.51607534,7.99006849 8.65027397,8.15569521 C8.7844726,8.32261644 8.97045205,8.46343151 9.20806849,8.58195205 C9.44309589,8.70111986 9.68272603,8.79410959 9.92429795,8.8627911 C10.1658699,8.93025 10.5659486,9.02777055 11.1237432,9.15743836 C11.820339,9.30738699 12.452137,9.47366096 13.0178425,9.65439041 C13.5829007,9.83576712 14.06475,10.056411 14.4615205,10.313661 C14.8576438,10.5729247 15.1679692,10.901589 15.3899075,11.2983596 C15.6118459,11.6938356 15.7238221,12.1789212 15.7238221,12.7538322 C15.7240377,13.4413664 15.5302911,14.0600753 15.1458904,14.6087363 Z" id="Path" fill="#FFFFFF"></path>
            </g>
            <g id="Group-3-Copy" transform="translate(34.000000, 351.000000) scale(-1, 1) translate(-34.000000, -351.000000) translate(0.000000, 336.000000)">
                <path d="M2,0.5 C1.17157288,0.5 0.5,1.17157288 0.5,2 L0.5,28 C0.5,28.8284271 1.17157288,29.5 2,29.5 L66,29.5 C66.8284271,29.5 67.5,28.8284271 67.5,28 L67.5,2 C67.5,1.17157288 66.8284271,0.5 66,0.5 L2,0.5 Z" id="Rectangle-Copy-18" stroke-opacity="0.261117788" stroke="#9EA9B8" fill="#FFFFFF"></path>
                <path d="M2,0 L34,0 L34,30 L2,30 C0.8954305,30 0,29.1045695 0,28 L0,2 C0,0.8954305 0.8954305,0 2,0 Z" id="Rectangle-Copy-18" fill="#FF6633"></path>
                <path d="M11,9 L14,9 L14,12 L11,12 L11,9 Z M16,9 L19,9 L19,12 L16,12 L16,9 Z M21,9 L24,9 L24,12 L21,12 L21,9 Z M11,14 L14,14 L14,17 L11,17 L11,14 Z M16,14 L19,14 L19,17 L16,17 L16,14 Z M21,14 L24,14 L24,17 L21,17 L21,14 Z M11,19 L14,19 L14,22 L11,22 L11,19 Z M16,19 L19,19 L19,22 L16,22 L16,19 Z M21,19 L24,19 L24,22 L21,22 L21,19 Z" id="Combined-Shape" fill="#FFFFFF"></path>
                <path d="M43,10 L45,10 L45,12 L43,12 L43,10 Z M48,10 L59,10 L59,12 L48,12 L48,10 Z M43,15 L45,15 L45,17 L43,17 L43,15 Z M48,15 L59,15 L59,17 L48,17 L48,15 Z M43,20 L45,20 L45,22 L43,22 L43,20 Z M48,20 L59,20 L59,22 L48,22 L48,20 Z" id="Combined-Shape" fill="#085CC6" transform="translate(51.000000, 16.000000) scale(-1, 1) translate(-51.000000, -16.000000) "></path>
            </g>
            <g id="Group-3-Copy-2" transform="translate(34.000000, 405.000000) scale(-1, 1) translate(-34.000000, -405.000000) translate(0.000000, 390.000000)">
                <path d="M2,0.5 C1.17157288,0.5 0.5,1.17157288 0.5,2 L0.5,28 C0.5,28.8284271 1.17157288,29.5 2,29.5 L66,29.5 C66.8284271,29.5 67.5,28.8284271 67.5,28 L67.5,2 C67.5,1.17157288 66.8284271,0.5 66,0.5 L2,0.5 Z" id="Rectangle-Copy-18" stroke-opacity="0.261117788" stroke="#9EA9B8" fill="#FFFFFF"></path>
                <path d="M36,0 L68,0 L68,30 L36,30 C34.8954305,30 34,29.1045695 34,28 L34,2 C34,0.8954305 34.8954305,0 36,0 Z" id="Rectangle-Copy-18" fill="#FF6633" transform="translate(51.000000, 15.000000) scale(-1, 1) translate(-51.000000, -15.000000) "></path>
                <path d="M11,9 L14,9 L14,12 L11,12 L11,9 Z M16,9 L19,9 L19,12 L16,12 L16,9 Z M21,9 L24,9 L24,12 L21,12 L21,9 Z M11,14 L14,14 L14,17 L11,17 L11,14 Z M16,14 L19,14 L19,17 L16,17 L16,14 Z M21,14 L24,14 L24,17 L21,17 L21,14 Z M11,19 L14,19 L14,22 L11,22 L11,19 Z M16,19 L19,19 L19,22 L16,22 L16,19 Z M21,19 L24,19 L24,22 L21,22 L21,19 Z" id="Combined-Shape" fill="#0670EC"></path>
                <path d="M43,10 L45,10 L45,12 L43,12 L43,10 Z M48,10 L59,10 L59,12 L48,12 L48,10 Z M43,15 L45,15 L45,17 L43,17 L43,15 Z M48,15 L59,15 L59,17 L48,17 L48,15 Z M43,20 L45,20 L45,22 L43,22 L43,20 Z M48,20 L59,20 L59,22 L48,22 L48,20 Z" id="Combined-Shape" fill="#FFFFFF" transform="translate(51.000000, 16.000000) scale(-1, 1) translate(-51.000000, -16.000000) "></path>
            </g>
            <path d="M12.16484,461.840216 C12.24683,461.941332 12.36986,462 12.49991,462 C12.62996,462 12.75308,461.941332 12.83498,461.840216 C13.81202,460.635124 17,456.544463 17,454.505756 C17,452.021223 14.9813,450 12.5,450 C10.0187,450 8,452.021314 8,454.505756 C8,456.545725 11.1878,460.635395 12.16484,461.840216 Z M12.5,451.870091 C13.80833,451.870091 14.87267,452.935767 14.87267,454.245669 C14.87267,455.555841 13.80833,456.621697 12.5,456.621697 C11.19167,456.621697 10.12742,455.555841 10.12742,454.245669 C10.12733,452.935767 11.19167,451.870091 12.5,451.870091 Z" id="Shape-Copy" fill="#FFFFFF"></path>
            <path d="M60.16484,461.840216 C60.24683,461.941332 60.36986,462 60.49991,462 C60.62996,462 60.75308,461.941332 60.83498,461.840216 C61.81202,460.635124 65,456.544463 65,454.505756 C65,452.021223 62.9813,450 60.5,450 C58.0187,450 56,452.021314 56,454.505756 C56,456.545725 59.1878,460.635395 60.16484,461.840216 Z M60.5,451.870091 C61.80833,451.870091 62.87267,452.935767 62.87267,454.245669 C62.87267,455.555841 61.80833,456.621697 60.5,456.621697 C59.19167,456.621697 58.12742,455.555841 58.12742,454.245669 C58.12733,452.935767 59.19167,451.870091 60.5,451.870091 Z" id="Shape-Copy-2" fill="#FF5824"></path>
            <path d="M22.8097139,513.878049 L17.4621867,508.531707 C18.8966511,506.882927 19.7651364,504.731707 19.7651364,502.380488 C19.7651364,497.204878 15.5544467,493 10.3825682,493 C5.2058106,493 1,497.209756 1,502.380488 C1,507.55122 5.21068973,511.760976 10.3825682,511.760976 C12.7343092,511.760976 14.8860058,510.892683 16.5351519,509.458537 L21.8826791,514.804878 C22.0095365,514.931707 22.1803061,515 22.3461965,515 C22.5120869,515 22.6828565,514.936585 22.8097139,514.804878 C23.0634287,514.55122 23.0634287,514.131707 22.8097139,513.878049 Z M2.31248614,502.380488 C2.31248614,497.931707 5.93280106,494.317073 10.3776891,494.317073 C14.8274562,494.317073 18.442892,497.936585 18.442892,502.380488 C18.442892,506.82439 14.8274562,510.44878 10.3776891,510.44878 C5.93280106,510.44878 2.31248614,506.829268 2.31248614,502.380488 Z" id="Shape-Copy-3" fill="#FFFFFF"></path>
            <path d="M70.8097139,513.878049 L65.4621867,508.531707 C66.8966511,506.882927 67.7651364,504.731707 67.7651364,502.380488 C67.7651364,497.204878 63.5544467,493 58.3825682,493 C53.2058106,493 49,497.209756 49,502.380488 C49,507.55122 53.2106897,511.760976 58.3825682,511.760976 C60.7343092,511.760976 62.8860058,510.892683 64.5351519,509.458537 L69.8826791,514.804878 C70.0095365,514.931707 70.1803061,515 70.3461965,515 C70.5120869,515 70.6828565,514.936585 70.8097139,514.804878 C71.0634287,514.55122 71.0634287,514.131707 70.8097139,513.878049 Z M50.3124861,502.380488 C50.3124861,497.931707 53.9328011,494.317073 58.3776891,494.317073 C62.8274562,494.317073 66.442892,497.936585 66.442892,502.380488 C66.442892,506.82439 62.8274562,510.44878 58.3776891,510.44878 C53.9328011,510.44878 50.3124861,506.829268 50.3124861,502.380488 Z" id="Shape-Copy-4" fill="#2B3D61"></path>
            <path d="M14.490962,545.336023 L18.5772331,549.422256 L8.23375275,559.765736 L4.14979852,555.679503 L14.490962,545.336023 Z M21.6779224,544.350517 L19.8556028,542.528198 C19.1513391,541.823934 18.0077605,541.823934 17.3011042,542.528198 L15.5555042,544.273798 L19.6417752,548.360069 L21.6779224,546.323922 C22.2241511,545.777655 22.2241511,544.896746 21.6779224,544.350517 Z M2.01137113,561.423033 C1.93700624,561.757713 2.23917532,562.057603 2.57389329,561.976212 L7.12735661,560.872171 L3.04340238,556.785937 L2.01137113,561.423033 Z" id="pen-copy" fill="#9EA9B8"></path>
            <g id="trash-copy" transform="translate(3.000000, 589.000000)" fill="#9EA9B8">
                <path d="M15.8783226,2.58802323 L12.9436929,2.58802323 L12.9436929,0.681034839 C12.9436929,0.297184516 12.6340748,0 12.2502529,0 C12.213009,0 12.1881703,0.0124335484 12.176049,0.0248387097 C12.1636155,0.0124335484 12.1387768,0 12.1263716,0 L5.22924387,0 L5.17985032,0 L5.1301729,0 C4.74635097,0 4.44916645,0.297184516 4.44916645,0.681034839 L4.44916645,2.58805161 L1.50213161,2.58805161 C0.659971613,2.58805161 0.00377548387,3.24424774 0.00377548387,4.08640774 L0.00377548387,5.17610323 L0.00377548387,6.53814452 L1.30398968,6.53814452 L1.30398968,20.4932413 C1.30398968,21.3354297 1.94778065,21.9791923 2.78994065,21.9791923 L14.5905419,21.9791923 C15.4327019,21.9791923 16.0888697,21.3354297 16.0888697,20.4932413 L16.0888697,6.53814452 L17.3766787,6.53814452 L17.3766787,5.17610323 L17.3766787,4.08640774 C17.3766787,3.24424774 16.7202271,2.58802323 15.8783226,2.58802323 Z M5.81120774,1.36204129 L11.5692465,1.36204129 L11.5692465,2.58802323 L5.81120774,2.58802323 L5.81120774,1.36204129 L5.81120774,1.36204129 Z M14.7144232,20.4932697 C14.7144232,20.5801626 14.6771794,20.6171226 14.5905419,20.6171226 L2.78994065,20.6171226 C2.70330323,20.6171226 2.66605935,20.5801342 2.66605935,20.4932697 L2.66605935,6.53811613 L14.7144232,6.53811613 L14.7144232,20.4932697 L14.7144232,20.4932697 Z M16.0022323,5.17607484 L1.37822194,5.17607484 L1.37822194,4.08637935 C1.37822194,3.99971355 1.41546581,3.95006452 1.50210323,3.95006452 L15.8783226,3.95006452 C15.9649884,3.95006452 16.0022323,3.99971355 16.0022323,4.08637935 L16.0022323,5.17607484 Z" id="Shape"></path>
                <rect id="Rectangle" x="11.1853961" y="8.13554323" width="1.37444645" height="11.268031"></rect>
                <rect id="Rectangle" x="8.01540903" y="8.13554323" width="1.37444645" height="11.268031"></rect>
                <rect id="Rectangle" x="4.84539355" y="8.13554323" width="1.37444645" height="11.268031"></rect>
            </g>
            <path d="M62.490962,545.336023 L66.5772331,549.422256 L56.2337527,559.765736 L52.1497985,555.679503 L62.490962,545.336023 Z M69.6779224,544.350517 L67.8556028,542.528198 C67.1513391,541.823934 66.0077605,541.823934 65.3011042,542.528198 L63.5555042,544.273798 L67.6417752,548.360069 L69.6779224,546.323922 C70.2241511,545.777655 70.2241511,544.896746 69.6779224,544.350517 Z M50.0113711,561.423033 C49.9370062,561.757713 50.2391753,562.057603 50.5738933,561.976212 L55.1273566,560.872171 L51.0434024,556.785937 L50.0113711,561.423033 Z" id="pen_on-copy" fill="#FF6633"></path>
            <g id="trash_on-copy" transform="translate(51.000000, 589.000000)" fill="#FF6633">
                <path d="M15.8783226,2.58802323 L12.9436929,2.58802323 L12.9436929,0.681034839 C12.9436929,0.297184516 12.6340748,0 12.2502529,0 C12.213009,0 12.1881703,0.0124335484 12.176049,0.0248387097 C12.1636155,0.0124335484 12.1387768,0 12.1263716,0 L5.22924387,0 L5.17985032,0 L5.1301729,0 C4.74635097,0 4.44916645,0.297184516 4.44916645,0.681034839 L4.44916645,2.58805161 L1.50213161,2.58805161 C0.659971613,2.58805161 0.00377548387,3.24424774 0.00377548387,4.08640774 L0.00377548387,5.17610323 L0.00377548387,6.53814452 L1.30398968,6.53814452 L1.30398968,20.4932413 C1.30398968,21.3354297 1.94778065,21.9791923 2.78994065,21.9791923 L14.5905419,21.9791923 C15.4327019,21.9791923 16.0888697,21.3354297 16.0888697,20.4932413 L16.0888697,6.53814452 L17.3766787,6.53814452 L17.3766787,5.17610323 L17.3766787,4.08640774 C17.3766787,3.24424774 16.7202271,2.58802323 15.8783226,2.58802323 Z M5.81120774,1.36204129 L11.5692465,1.36204129 L11.5692465,2.58802323 L5.81120774,2.58802323 L5.81120774,1.36204129 L5.81120774,1.36204129 Z M14.7144232,20.4932697 C14.7144232,20.5801626 14.6771794,20.6171226 14.5905419,20.6171226 L2.78994065,20.6171226 C2.70330323,20.6171226 2.66605935,20.5801342 2.66605935,20.4932697 L2.66605935,6.53811613 L14.7144232,6.53811613 L14.7144232,20.4932697 L14.7144232,20.4932697 Z M16.0022323,5.17607484 L1.37822194,5.17607484 L1.37822194,4.08637935 C1.37822194,3.99971355 1.41546581,3.95006452 1.50210323,3.95006452 L15.8783226,3.95006452 C15.9649884,3.95006452 16.0022323,3.99971355 16.0022323,4.08637935 L16.0022323,5.17607484 Z" id="Shape"></path>
                <rect id="Rectangle" x="11.1853961" y="8.13554323" width="1.37444645" height="11.268031"></rect>
                <rect id="Rectangle" x="8.01540903" y="8.13554323" width="1.37444645" height="11.268031"></rect>
                <rect id="Rectangle" x="4.84539355" y="8.13554323" width="1.37444645" height="11.268031"></rect>
            </g>
            <g id="restore-copy" transform="translate(1.000000, 639.000000)" fill="#9EA9B8">
                <path d="M12,0 C7.02998438,0 3,4.02998437 3,9 L0,9 L3.99998437,12.9999844 L8.00001562,9 L5.00001563,9 C5.00001563,5.13501563 8.13501562,2.00001563 12,2.00001563 C15.8649844,2.00001563 18.9999844,5.13501563 18.9999844,9 C18.9999844,12.8649844 15.8649844,15.9999844 12,15.9999844 C10.485,15.9999844 9.09,15.5149688 7.94001563,14.6949844 L6.525,16.1300156 C8.04501563,17.3000156 9.93998437,18 12,18 C16.9700156,18 21,13.9700156 21,9 C21,4.02998438 16.9700156,0 12,0 Z" id="Path"></path>
                <path d="M14.0000156,9 C14.0000156,7.89501562 13.1050312,6.99998437 12,6.99998437 C10.8949687,6.99998437 9.99998437,7.89501562 9.99998437,9 C9.99998437,10.1049844 10.8949687,11.0000156 12,11.0000156 C13.1050312,11.0000156 14.0000156,10.1049844 14.0000156,9 Z" id="Path"></path>
            </g>
            <g id="restore-copy-2" transform="translate(49.000000, 639.000000)" fill="#FF6633">
                <path d="M12,0 C7.02998438,0 3,4.02998437 3,9 L0,9 L3.99998437,12.9999844 L8.00001562,9 L5.00001563,9 C5.00001563,5.13501563 8.13501562,2.00001563 12,2.00001563 C15.8649844,2.00001563 18.9999844,5.13501563 18.9999844,9 C18.9999844,12.8649844 15.8649844,15.9999844 12,15.9999844 C10.485,15.9999844 9.09,15.5149688 7.94001563,14.6949844 L6.525,16.1300156 C8.04501563,17.3000156 9.93998437,18 12,18 C16.9700156,18 21,13.9700156 21,9 C21,4.02998438 16.9700156,0 12,0 Z" id="Path"></path>
                <path d="M14.0000156,9 C14.0000156,7.89501562 13.1050312,6.99998437 12,6.99998437 C10.8949687,6.99998437 9.99998437,7.89501562 9.99998437,9 C9.99998437,10.1049844 10.8949687,11.0000156 12,11.0000156 C13.1050312,11.0000156 14.0000156,10.1049844 14.0000156,9 Z" id="Path"></path>
            </g>
            <g id="484582-copy-3" transform="translate(2.000000, 686.000000)" fill="#9EA9B8">
                <polygon id="Path" points="5.41835938 5.3515625 5.16757812 5.3515625 4.69894531 7.6953125 5.88699219 7.6953125"></polygon>
                <path d="M14.8974219,10.0390625 C15.1504297,10.7187109 15.4869531,11.2688672 15.859375,11.7369922 C16.2317969,11.2688672 16.6073828,10.7186719 16.8603906,10.0390625 L14.8974219,10.0390625 Z" id="Path"></path>
                <path d="M18.2421875,3.5546875 L10.9655078,3.5546875 L12.4827734,15.7296484 C12.5096094,16.2276172 12.3734766,16.6964453 12.0484766,17.0634766 L9.47902344,20 L18.2421875,20 C19.2114844,20 20,19.2114844 20,18.2421875 L20,5.3515625 C20,4.38226563 19.2114844,3.5546875 18.2421875,3.5546875 Z M18.2421875,10.0390625 L18.0857031,10.0390625 C17.7523047,11.1087109 17.2235938,11.9457031 16.6741406,12.6055469 C17.1045703,12.9990625 17.5648438,13.321875 18.0224609,13.6834375 C18.2748047,13.8854297 18.3160156,14.2539062 18.1134375,14.5068359 C17.9117969,14.759375 17.541875,14.8003125 17.2900391,14.5978125 C16.7928125,14.2053516 16.3260937,13.8768359 15.859375,13.4485547 C15.3926563,13.8768359 14.965,14.2053516 14.4677734,14.5978125 C14.2159375,14.8003125 13.8460156,14.759375 13.644375,14.5068359 C13.4417969,14.2539062 13.4830078,13.8854297 13.7353516,13.6834375 C14.1929687,13.321875 14.6141797,12.9990625 15.0446094,12.6055469 C14.4951563,11.9457422 14.0054688,11.10875 13.6721094,10.0390625 L13.515625,10.0390625 C13.1917578,10.0390625 12.9296875,9.77699219 12.9296875,9.453125 C12.9296875,9.12925781 13.1917578,8.8671875 13.515625,8.8671875 L15.2734375,8.8671875 L15.2734375,8.28125 C15.2734375,7.95738281 15.5355078,7.6953125 15.859375,7.6953125 C16.1832422,7.6953125 16.4453125,7.95738281 16.4453125,8.28125 L16.4453125,8.8671875 L18.2421875,8.8671875 C18.5660547,8.8671875 18.828125,9.12925781 18.828125,9.453125 C18.828125,9.77699219 18.5660547,10.0390625 18.2421875,10.0390625 Z" id="Shape"></path>
                <path d="M9.53765625,1.53980469 C9.42835937,0.66203125 8.67820312,0 7.79359375,0 L1.7578125,0 C0.788515625,0 0,0.788515625 0,1.7578125 L0,14.7265625 C0,15.6958594 0.788515625,16.484375 1.7578125,16.484375 C5.26054687,16.484375 7.78035156,16.484375 10.9980859,16.484375 C11.1690234,16.2889844 11.3123047,16.1666406 11.3183603,15.9116016 C11.3198437,15.8476562 9.54558594,1.60324219 9.53765625,1.53980469 Z M7.1853125,11.1994922 C6.87460938,11.2634375 6.55988281,11.0617188 6.49582031,10.74 L6.12132813,8.8671875 L4.46464844,8.8671875 L4.09015625,10.74 C4.02722656,11.0569922 3.72164063,11.2652734 3.40066406,11.1994922 C3.08367188,11.1359766 2.87765625,10.8275781 2.94117187,10.51 L4.11300781,4.650625 C4.16792969,4.37710937 4.40828125,4.1796875 4.6875,4.1796875 L5.8984375,4.1796875 C6.17765625,4.1796875 6.41800781,4.37710937 6.47292969,4.650625 L7.64480469,10.51 C7.70832031,10.8275781 7.50234375,11.1359766 7.1853125,11.1994922 Z" id="Shape"></path>
                <path d="M6.84613281,17.65625 L6.94667969,18.4601953 C7.01371094,18.9985938 7.37144531,19.5476172 7.95988281,19.8217578 C9.07035156,18.5993359 8.39851562,19.3388672 9.92703125,17.65625 L6.84613281,17.65625 Z" id="Path"></path>
            </g>
            <g id="484582-copy-4" transform="translate(50.000000, 686.000000)" fill="#FF6633">
                <polygon id="Path" points="5.41835938 5.3515625 5.16757812 5.3515625 4.69894531 7.6953125 5.88699219 7.6953125"></polygon>
                <path d="M14.8974219,10.0390625 C15.1504297,10.7187109 15.4869531,11.2688672 15.859375,11.7369922 C16.2317969,11.2688672 16.6073828,10.7186719 16.8603906,10.0390625 L14.8974219,10.0390625 Z" id="Path"></path>
                <path d="M18.2421875,3.5546875 L10.9655078,3.5546875 L12.4827734,15.7296484 C12.5096094,16.2276172 12.3734766,16.6964453 12.0484766,17.0634766 L9.47902344,20 L18.2421875,20 C19.2114844,20 20,19.2114844 20,18.2421875 L20,5.3515625 C20,4.38226563 19.2114844,3.5546875 18.2421875,3.5546875 Z M18.2421875,10.0390625 L18.0857031,10.0390625 C17.7523047,11.1087109 17.2235938,11.9457031 16.6741406,12.6055469 C17.1045703,12.9990625 17.5648438,13.321875 18.0224609,13.6834375 C18.2748047,13.8854297 18.3160156,14.2539062 18.1134375,14.5068359 C17.9117969,14.759375 17.541875,14.8003125 17.2900391,14.5978125 C16.7928125,14.2053516 16.3260937,13.8768359 15.859375,13.4485547 C15.3926563,13.8768359 14.965,14.2053516 14.4677734,14.5978125 C14.2159375,14.8003125 13.8460156,14.759375 13.644375,14.5068359 C13.4417969,14.2539062 13.4830078,13.8854297 13.7353516,13.6834375 C14.1929687,13.321875 14.6141797,12.9990625 15.0446094,12.6055469 C14.4951563,11.9457422 14.0054688,11.10875 13.6721094,10.0390625 L13.515625,10.0390625 C13.1917578,10.0390625 12.9296875,9.77699219 12.9296875,9.453125 C12.9296875,9.12925781 13.1917578,8.8671875 13.515625,8.8671875 L15.2734375,8.8671875 L15.2734375,8.28125 C15.2734375,7.95738281 15.5355078,7.6953125 15.859375,7.6953125 C16.1832422,7.6953125 16.4453125,7.95738281 16.4453125,8.28125 L16.4453125,8.8671875 L18.2421875,8.8671875 C18.5660547,8.8671875 18.828125,9.12925781 18.828125,9.453125 C18.828125,9.77699219 18.5660547,10.0390625 18.2421875,10.0390625 Z" id="Shape"></path>
                <path d="M9.53765625,1.53980469 C9.42835937,0.66203125 8.67820312,0 7.79359375,0 L1.7578125,0 C0.788515625,0 0,0.788515625 0,1.7578125 L0,14.7265625 C0,15.6958594 0.788515625,16.484375 1.7578125,16.484375 C5.26054687,16.484375 7.78035156,16.484375 10.9980859,16.484375 C11.1690234,16.2889844 11.3123047,16.1666406 11.3183603,15.9116016 C11.3198437,15.8476562 9.54558594,1.60324219 9.53765625,1.53980469 Z M7.1853125,11.1994922 C6.87460938,11.2634375 6.55988281,11.0617188 6.49582031,10.74 L6.12132813,8.8671875 L4.46464844,8.8671875 L4.09015625,10.74 C4.02722656,11.0569922 3.72164063,11.2652734 3.40066406,11.1994922 C3.08367188,11.1359766 2.87765625,10.8275781 2.94117187,10.51 L4.11300781,4.650625 C4.16792969,4.37710937 4.40828125,4.1796875 4.6875,4.1796875 L5.8984375,4.1796875 C6.17765625,4.1796875 6.41800781,4.37710937 6.47292969,4.650625 L7.64480469,10.51 C7.70832031,10.8275781 7.50234375,11.1359766 7.1853125,11.1994922 Z" id="Shape"></path>
                <path d="M6.84613281,17.65625 L6.94667969,18.4601953 C7.01371094,18.9985938 7.37144531,19.5476172 7.95988281,19.8217578 C9.07035156,18.5993359 8.39851562,19.3388672 9.92703125,17.65625 L6.84613281,17.65625 Z" id="Path"></path>
            </g>
            <rect id="Rectangle-Copy-10" fill="#FFFFFF" x="0" y="732" width="24" height="24"></rect>
            <rect id="Rectangle-Copy-24" fill="#FFFFFF" x="48" y="732" width="24" height="24"></rect>
            <g id="484582-copy" transform="translate(2.000000, 686.000000)" fill="#9EA9B8">
                <polygon id="Path" points="5.41835938 5.3515625 5.16757812 5.3515625 4.69894531 7.6953125 5.88699219 7.6953125"></polygon>
                <path d="M14.8974219,10.0390625 C15.1504297,10.7187109 15.4869531,11.2688672 15.859375,11.7369922 C16.2317969,11.2688672 16.6073828,10.7186719 16.8603906,10.0390625 L14.8974219,10.0390625 Z" id="Path"></path>
                <path d="M18.2421875,3.5546875 L10.9655078,3.5546875 L12.4827734,15.7296484 C12.5096094,16.2276172 12.3734766,16.6964453 12.0484766,17.0634766 L9.47902344,20 L18.2421875,20 C19.2114844,20 20,19.2114844 20,18.2421875 L20,5.3515625 C20,4.38226563 19.2114844,3.5546875 18.2421875,3.5546875 Z M18.2421875,10.0390625 L18.0857031,10.0390625 C17.7523047,11.1087109 17.2235938,11.9457031 16.6741406,12.6055469 C17.1045703,12.9990625 17.5648438,13.321875 18.0224609,13.6834375 C18.2748047,13.8854297 18.3160156,14.2539062 18.1134375,14.5068359 C17.9117969,14.759375 17.541875,14.8003125 17.2900391,14.5978125 C16.7928125,14.2053516 16.3260937,13.8768359 15.859375,13.4485547 C15.3926563,13.8768359 14.965,14.2053516 14.4677734,14.5978125 C14.2159375,14.8003125 13.8460156,14.759375 13.644375,14.5068359 C13.4417969,14.2539062 13.4830078,13.8854297 13.7353516,13.6834375 C14.1929687,13.321875 14.6141797,12.9990625 15.0446094,12.6055469 C14.4951563,11.9457422 14.0054688,11.10875 13.6721094,10.0390625 L13.515625,10.0390625 C13.1917578,10.0390625 12.9296875,9.77699219 12.9296875,9.453125 C12.9296875,9.12925781 13.1917578,8.8671875 13.515625,8.8671875 L15.2734375,8.8671875 L15.2734375,8.28125 C15.2734375,7.95738281 15.5355078,7.6953125 15.859375,7.6953125 C16.1832422,7.6953125 16.4453125,7.95738281 16.4453125,8.28125 L16.4453125,8.8671875 L18.2421875,8.8671875 C18.5660547,8.8671875 18.828125,9.12925781 18.828125,9.453125 C18.828125,9.77699219 18.5660547,10.0390625 18.2421875,10.0390625 Z" id="Shape"></path>
                <path d="M9.53765625,1.53980469 C9.42835937,0.66203125 8.67820312,0 7.79359375,0 L1.7578125,0 C0.788515625,0 0,0.788515625 0,1.7578125 L0,14.7265625 C0,15.6958594 0.788515625,16.484375 1.7578125,16.484375 C5.26054687,16.484375 7.78035156,16.484375 10.9980859,16.484375 C11.1690234,16.2889844 11.3123047,16.1666406 11.3183603,15.9116016 C11.3198437,15.8476562 9.54558594,1.60324219 9.53765625,1.53980469 Z M7.1853125,11.1994922 C6.87460938,11.2634375 6.55988281,11.0617188 6.49582031,10.74 L6.12132813,8.8671875 L4.46464844,8.8671875 L4.09015625,10.74 C4.02722656,11.0569922 3.72164063,11.2652734 3.40066406,11.1994922 C3.08367188,11.1359766 2.87765625,10.8275781 2.94117187,10.51 L4.11300781,4.650625 C4.16792969,4.37710937 4.40828125,4.1796875 4.6875,4.1796875 L5.8984375,4.1796875 C6.17765625,4.1796875 6.41800781,4.37710937 6.47292969,4.650625 L7.64480469,10.51 C7.70832031,10.8275781 7.50234375,11.1359766 7.1853125,11.1994922 Z" id="Shape"></path>
                <path d="M6.84613281,17.65625 L6.94667969,18.4601953 C7.01371094,18.9985938 7.37144531,19.5476172 7.95988281,19.8217578 C9.07035156,18.5993359 8.39851562,19.3388672 9.92703125,17.65625 L6.84613281,17.65625 Z" id="Path"></path>
            </g>
        </g>
        <path d="M38.2095705,757.000357 C39.4540457,757.000357 40.5524401,757.509897 41.3774676,758.340729 C42.2625802,759.232069 42.8353456,760.485437 42.9678548,761.896589 C43.0268278,762.467414 42.9858216,763.059332 42.8175836,763.774785 C42.4441333,765.363225 41.5675249,766.807528 40.3364404,767.927832 L40.3364404,767.927832 L33.9461634,773.652315 L27.6629618,767.926936 C26.4321192,766.80722 25.5558299,765.362709 25.1824168,763.77443 C25.0157543,763.065677 24.9715055,762.479192 25.0160468,762.026965 C25.1551902,760.56249 25.7279713,759.27473 26.614268,758.363475 C27.4410383,757.513423 28.5421185,757 29.7904293,757 C31.145485,757 32.3510282,757.594231 33.2006416,758.579897 C33.5075271,758.935925 33.7570529,759.330354 33.9412437,759.751979 C34.1370887,759.332193 34.3945877,758.941069 34.7054321,758.591439 C35.5833624,757.603966 36.8398239,757.000357 38.2095705,757.000357 Z" id="Path" stroke="#9EA9B8" stroke-width="2" fill="#FFFFFF" fill-rule="nonzero"></path>
        <path d="M9.95808902,757.927 C11.0232594,756.728924 12.5487908,756.000357 14.2095705,756.000357 C17.2956594,756.000357 19.6575878,758.54495 19.9625605,761.793824 C19.9684732,761.833389 19.9742481,761.87973 19.9794697,761.932735 C20.0319094,762.465083 19.9890275,763.161691 19.7910418,764.00365 C19.3720217,765.785917 18.3921708,767.409175 17.0036797,768.672676 L9.94044654,775 L9.19253086,774.318484 L2.99003643,768.666646 C1.60805572,767.409438 0.628032528,765.785788 0.208968037,764.003335 C0.0109722857,763.161333 -0.0319096104,762.464726 0.0205301113,761.932379 C0.0257517527,761.879373 0.0315266658,761.833032 0.0374393413,761.793468 C0.34241208,758.544593 2.70434043,756 5.79042933,756 C7.44531634,756 8.91976676,756.722407 9.95808902,757.927 Z" id="Path-Copy" fill="#FF5824" fill-rule="nonzero"></path>
        <path d="M62.2095705,757.000357 C63.4540457,757.000357 64.5524401,757.509897 65.3774676,758.340729 C66.2625802,759.232069 66.8353456,760.485437 66.9678548,761.896589 C67.0268278,762.467414 66.9858216,763.059332 66.8175836,763.774785 C66.4441333,765.363225 65.5675249,766.807528 64.3364404,767.927832 L64.3364404,767.927832 L57.9461634,773.652315 L51.6629618,767.926936 C50.4321192,766.80722 49.5558299,765.362709 49.1824168,763.77443 C49.0157543,763.065677 48.9715055,762.479192 49.0160468,762.026965 C49.1551902,760.56249 49.7279713,759.27473 50.614268,758.363475 C51.4410383,757.513423 52.5421185,757 53.7904293,757 C55.145485,757 56.3510282,757.594231 57.2006416,758.579897 C57.5075271,758.935925 57.7570529,759.330354 57.9412437,759.751979 C58.1370887,759.332193 58.3945877,758.941069 58.7054321,758.591439 C59.5833624,757.603966 60.8398239,757.000357 62.2095705,757.000357 Z" id="Path-Copy-4" stroke="#FF5824" stroke-width="2" fill="#FFFFFF" fill-rule="nonzero"></path>
    </g>
</svg>