<svg xmlns="http://www.w3.org/2000/svg" width="12" height="16" viewBox="0 0 12 16">
    <g fill="#FFF" fill-rule="nonzero">
        <path d="M0 5.867c0 3.467 5.16 9.311 5.38 9.56a.652.652 0 0 0 .977 0c.216-.249 5.376-6.093 5.376-9.56A5.867 5.867 0 1 0 0 5.867zm10.43 0c0 2.216-2.947 6.197-4.563 8.126-1.616-1.93-4.563-5.91-4.563-8.126a4.563 4.563 0 0 1 9.126 0z"/>
        <path d="M3.26 5.867a2.607 2.607 0 1 0 5.214 0 2.607 2.607 0 0 0-5.215 0zm3.91 0a1.304 1.304 0 1 1-2.607 0 1.304 1.304 0 0 1 2.607 0z"/>
    </g>
</svg>
