<?xml version="1.0" encoding="UTF-8"?>
<svg width="150px" height="20px" viewBox="0 0 150 20" version="1.1" xmlns="http://www.w3.org/2000/svg" xmlns:xlink="http://www.w3.org/1999/xlink">
    <!-- Generator: Sketch 54 (76480) - https://sketchapp.com -->
    <title>LOGO_FLAGMA_new Copy 7</title>
    <desc>Created with Sketch.</desc>
    <g id="obyava_full_v2-промежуточный" stroke="none" stroke-width="1" fill="none" fill-rule="evenodd">
        <g id="04_показ_объявлений_подраздела" transform="translate(-40.000000, -18.000000)">
            <g id="Group-23-Copy-2">
                <g id="LOGO_FLAGMA_new-Copy-7" transform="translate(40.000000, 18.000000)">
                    <path d="M18.6875,2 L18.6875,4.99560547 L4.3132019,4.99560547 L4.3132019,9.5267334 L15.871109,9.5267334 L15.871109,12.4489136 L4.3132019,12.4489136 L4.3132019,20 L0,20 L0,2 L18.6875,2 Z M21.5625,2 L25.8906174,2 L25.8906174,17.0602782 L35.9375,17.0602782 L34.5,20 L21.5625,20 L21.5625,2 Z M79.2408587,7.94409733 C79.1251027,5.54529247 76.5619351,4.62810238 74.5940838,4.62810238 C70.85682,4.62810238 67.3841413,6.45366343 67.3841413,10.8985077 C67.3841413,14.0733965 69.1535538,17.1777322 74.6188887,17.1777322 C76.2693246,17.1780121 77.9106214,16.9164558 79.4889071,16.4016483 L79.4889071,13.1473873 L73.808597,13.1473873 L73.808597,10.5016466 L83.375,10.5016466 L83.375,18.4829643 C80.4687154,19.4977752 77.4288805,20.0098828 74.3708402,19.9998556 C67.7562141,19.9998556 63.25,17.1600939 63.25,10.9514225 C63.25,5.83632394 67.0120686,2 73.9987675,2 C79.3566146,2 83.3667317,3.96666722 83.3667317,7.97055473 L79.2408587,7.94409733 Z M93.3702433,2 L100.651903,16.6580712 L107.825951,2 L115,2 L115,20 L110.677636,20 L110.677636,4.54357916 L110.62383,4.54357916 L103.100047,20 L97.8181535,20 L90.5544281,4.54357916 L90.5544281,20 L86.25,20 L86.25,2 L93.3702433,2 Z" id="Combined-Shape" fill="#FFFFFF"></path>
                    <path d="M47.1906605,2.85714286 L52.8397299,2.85714286 L63.0769231,20 L57.7721957,20 L55.4734805,16.1541295 L43.9240652,16.1541295 L41.8207873,20 L37,20 L47.1906605,2.85714286 Z M53.8448361,13.3515067 L49.684813,5.89847491 L45.5340965,13.3515067 L53.8448361,13.3515067 Z M128.313194,2.85714286 L133.96428,2.85714286 L144.205128,20 L138.879887,20 L136.589661,16.1541295 L125.045432,16.1541295 L122.950714,20 L118.128205,20 L128.313194,2.85714286 Z M134.960435,13.3515067 L130.808237,5.89847491 L126.674658,13.3515067 L134.960435,13.3515067 Z M144.929487,0 L146.499767,3.29390355 L150,3.82165605 L147.464744,6.38762511 L148.070047,10 L144.929487,8.29845314 L141.7977,10 L142.394231,6.38762511 L139.858974,3.82165605 L143.36798,3.29390355 L144.929487,0 Z" id="Combined-Shape" fill="#FF6633" fill-rule="nonzero"></path>
                </g>
            </g>
        </g>
    </g>
</svg>