<svg xmlns="http://www.w3.org/2000/svg" width="11" height="9" viewBox="0 0 11 9">
    <path fill="#FFF" fill-rule="nonzero" d="M9.88 2.247a1.32 1.32 0 0 0-.969-.402h-1.2L7.438.695a.995.995 0 0 0-.372-.452.954.954 0 0 0-.554-.19H3.77a.954.954 0 0 0-.554.19.995.995 0 0 0-.372.453l-.274 1.15h-1.2a1.32 1.32 0 0 0-.968.4 1.32 1.32 0 0 0-.402.97v4.377c0 .379.134.702.402.97.267.267.59.401.969.401h7.54c.378 0 .701-.134.97-.402a1.32 1.32 0 0 0 .4-.969V3.216c0-.378-.133-.701-.4-.97zM6.402 6.456c-.349.349-.77.524-1.261.524a1.72 1.72 0 0 1-1.262-.524 1.72 1.72 0 0 1-.524-1.262c0-.492.175-.912.524-1.261.35-.35.77-.525 1.262-.525s.912.175 1.261.525c.35.349.525.77.525 1.261 0 .492-.175.912-.525 1.262z" opacity=".8"/>
</svg>
