<?xml version="1.0" encoding="UTF-8"?>
<svg width="78px" height="646px" viewBox="0 0 78 646" version="1.1" xmlns="http://www.w3.org/2000/svg" xmlns:xlink="http://www.w3.org/1999/xlink">
    <title>social-iconset</title>
    <defs>
        <circle id="path-1" cx="15" cy="15" r="15"></circle>
        <circle id="path-3" cx="15" cy="15" r="15"></circle>
    </defs>
    <g id="social-iconset" stroke="none" stroke-width="1" fill="none" fill-rule="evenodd">
        <g id="f-—-копия" fill-rule="nonzero">
            <path d="M5.128,0 L30.872,0 C32.655,0 33.302,0.186 33.954,0.534 C34.606,0.883 35.117,1.394 35.466,2.046 C35.814,2.698 36,3.345 36,5.128 L36,30.872 C36,32.655 35.814,33.302 35.466,33.954 C35.117,34.606 34.606,35.117 33.954,35.466 C33.302,35.814 32.655,36 30.872,36 L5.128,36 C3.345,36 2.698,35.814 2.046,35.466 C1.394,35.117 0.883,34.606 0.534,33.954 C0.186,33.302 0,32.655 0,30.872 L0,5.128 C0,3.345 0.186,2.698 0.534,2.046 C0.883,1.394 1.394,0.883 2.046,0.534 C2.698,0.186 3.345,0 5.128,0 Z" id="Path" fill="#3B5897"></path>
            <path d="M18.968,27 L15.31,27 L15.31,18.28 L13.5,18.28 L13.5,15.31 L15.31,15.31 L15.31,13.525 C15.31,11.101 16.341,9.658 19.274,9.658 L21.715,9.658 L21.715,12.632 L20.19,12.632 C19.048,12.632 18.973,13.047 18.973,13.822 L18.968,15.31 L21.732,15.31 L21.408,18.282 L18.968,18.282 L18.968,27 Z" id="Path" fill="#FFFFFF"></path>
        </g>
        <g id="insta" transform="translate(0.000000, 46.000000)" fill-rule="nonzero">
            <path d="M5.128,0 L30.872,0 C32.655,0 33.302,0.186 33.954,0.534 C34.606,0.883 35.117,1.394 35.466,2.046 C35.814,2.698 36,3.345 36,5.128 L36,30.872 C36,32.655 35.814,33.302 35.466,33.954 C35.117,34.606 34.606,35.117 33.954,35.466 C33.302,35.814 32.655,36 30.872,36 L5.128,36 C3.345,36 2.698,35.814 2.046,35.466 C1.394,35.117 0.883,34.606 0.534,33.954 C0.186,33.302 0,32.655 0,30.872 L0,5.128 C0,3.345 0.186,2.698 0.534,2.046 C0.883,1.394 1.394,0.883 2.046,0.534 C2.698,0.186 3.345,0 5.128,0 Z" id="Path" fill="#D52D88"></path>
            <g id="Group" transform="translate(8.000000, 8.000000)" fill="#FFFFFF">
                <path d="M5.608,2 C4.651,2 3.733,2.38 3.057,3.057 C2.38,3.733 2,4.65 2,5.608 L2,14.392 C2,15.349 2.38,16.267 3.057,16.943 C3.392,17.278 3.789,17.544 4.227,17.725 C4.665,17.907 5.134,18 5.608,18 L14.392,18 C15.349,18 16.267,17.62 16.943,16.943 C17.62,16.267 18,15.35 18,14.392 L18,5.608 C18,4.651 17.62,3.733 16.943,3.057 C16.267,2.38 15.35,2 14.392,2 L5.608,2 Z M5.608,0 L14.392,0 C15.129,0 15.858,0.145 16.538,0.427 C17.218,0.709 17.837,1.122 18.358,1.643 C18.878,2.163 19.291,2.781 19.573,3.462 C19.855,4.142 20,4.872 20,5.608 L20,14.392 C20,15.129 19.855,15.858 19.573,16.538 C19.291,17.218 18.878,17.837 18.358,18.358 C17.837,18.878 17.218,19.291 16.538,19.573 C15.858,19.855 15.128,20 14.392,20 L5.608,20 C4.121,20 2.694,19.41 1.643,18.358 C0.59,17.306 0,15.879 0,14.392 L0,5.608 C0,4.121 0.59,2.694 1.643,1.643 C2.694,0.59 4.12,0 5.607,0 L5.608,0 Z" id="Shape"></path>
                <path d="M10,15.3 C8.594,15.3 7.246,14.742 6.252,13.748 C5.258,12.754 4.7,11.406 4.7,10 C4.7,8.594 5.258,7.246 6.252,6.252 C7.246,5.258 8.594,4.7 10,4.7 C11.406,4.7 12.754,5.258 13.748,6.252 C14.742,7.246 15.3,8.594 15.3,10 C15.3,11.406 14.742,12.754 13.748,13.748 C12.754,14.742 11.406,15.3 10,15.3 Z M10,13.3 C10.875,13.3 11.714,12.952 12.333,12.333 C12.953,11.714 13.3,10.875 13.3,10 C13.3,9.125 12.952,8.285 12.333,7.667 C11.714,7.047 10.875,6.7 10,6.7 C9.125,6.7 8.285,7.048 7.667,7.666 C7.047,8.286 6.7,9.125 6.7,10 C6.7,10.875 7.048,11.714 7.666,12.333 C8.286,12.953 9.125,13.3 10,13.3 Z M15.2,6.1 C15.918,6.1 16.5,5.518 16.5,4.8 C16.5,4.082 15.918,3.5 15.2,3.5 C14.482,3.5 13.9,4.082 13.9,4.8 C13.9,5.518 14.482,6.1 15.2,6.1 Z" id="Shape"></path>
            </g>
        </g>
        <g id="utube-—-копия" transform="translate(0.000000, 92.000000)" fill-rule="nonzero">
            <path d="M5.128,0 L30.872,0 C32.655,0 33.302,0.186 33.954,0.534 C34.606,0.883 35.117,1.394 35.466,2.046 C35.814,2.698 36,3.345 36,5.128 L36,30.872 C36,32.655 35.814,33.302 35.466,33.954 C35.117,34.606 34.606,35.117 33.954,35.466 C33.302,35.814 32.655,36 30.872,36 L5.128,36 C3.345,36 2.698,35.814 2.046,35.466 C1.394,35.117 0.883,34.606 0.534,33.954 C0.186,33.302 0,32.655 0,30.872 L0,5.128 C0,3.345 0.186,2.698 0.534,2.046 C0.883,1.394 1.394,0.883 2.046,0.534 C2.698,0.186 3.345,0 5.128,0 Z" id="Path" fill="#E72B22"></path>
            <path d="M18.396,11 C19.503,11.006 22.718,11.036 25.001,11.201 C25.392,11.247 26.245,11.251 27.005,12.047 C27.605,12.655 27.8,14.034 27.8,14.034 C27.8,14.034 28,15.651 28,17.27 L28,18.788 L27.999,18.99 C27.984,20.538 27.8,22.025 27.8,22.025 C27.8,22.025 27.605,23.403 27.005,24.01 C26.245,24.806 25.392,24.81 25.001,24.856 C22.349,25.049 18.438,25.064 18.034,25.066 L17.989,25.066 C17.722,25.063 12.757,25.013 11.2,24.866 C10.755,24.781 9.755,24.806 8.995,24.01 C8.462,23.47 8.248,22.322 8.208,22.073 L8.2,22.025 C8.2,22.025 8,20.406 8,18.788 L8,17.27 L8.001,17.068 C8.016,15.519 8.2,14.034 8.2,14.034 C8.2,14.034 8.395,12.655 8.995,12.048 C9.755,11.251 10.608,11.248 10.999,11.201 C13.282,11.036 16.497,11.006 17.608,11.001 L18.396,11 Z M16,14.902 L16.001,20.725 L21.6,17.825 L16,14.902 L16,14.902 Z" id="Shape" fill="#FFFFFF"></path>
        </g>
        <g id="f-—-копия" transform="translate(42.000000, 0.000000)" fill-rule="nonzero">
            <path d="M5.128,0 L30.872,0 C32.655,0 33.302,0.186 33.954,0.534 C34.606,0.883 35.117,1.394 35.466,2.046 C35.814,2.698 36,3.345 36,5.128 L36,30.872 C36,32.655 35.814,33.302 35.466,33.954 C35.117,34.606 34.606,35.117 33.954,35.466 C33.302,35.814 32.655,36 30.872,36 L5.128,36 C3.345,36 2.698,35.814 2.046,35.466 C1.394,35.117 0.883,34.606 0.534,33.954 C0.186,33.302 0,32.655 0,30.872 L0,5.128 C0,3.345 0.186,2.698 0.534,2.046 C0.883,1.394 1.394,0.883 2.046,0.534 C2.698,0.186 3.345,0 5.128,0 Z" id="Path" fill="#2F59B4"></path>
            <path d="M18.968,27 L15.31,27 L15.31,18.28 L13.5,18.28 L13.5,15.31 L15.31,15.31 L15.31,13.525 C15.31,11.101 16.341,9.658 19.274,9.658 L21.715,9.658 L21.715,12.632 L20.19,12.632 C19.048,12.632 18.973,13.047 18.973,13.822 L18.968,15.31 L21.732,15.31 L21.408,18.282 L18.968,18.282 L18.968,27 Z" id="Path" fill="#FFFFFF"></path>
        </g>
        <g id="insta" transform="translate(42.000000, 46.000000)" fill-rule="nonzero">
            <path d="M5.128,0 L30.872,0 C32.655,0 33.302,0.186 33.954,0.534 C34.606,0.883 35.117,1.394 35.466,2.046 C35.814,2.698 36,3.345 36,5.128 L36,30.872 C36,32.655 35.814,33.302 35.466,33.954 C35.117,34.606 34.606,35.117 33.954,35.466 C33.302,35.814 32.655,36 30.872,36 L5.128,36 C3.345,36 2.698,35.814 2.046,35.466 C1.394,35.117 0.883,34.606 0.534,33.954 C0.186,33.302 0,32.655 0,30.872 L0,5.128 C0,3.345 0.186,2.698 0.534,2.046 C0.883,1.394 1.394,0.883 2.046,0.534 C2.698,0.186 3.345,0 5.128,0 Z" id="Path" fill="#D30072"></path>
            <g id="Group" transform="translate(8.000000, 8.000000)" fill="#FFFFFF">
                <path d="M5.608,2 C4.651,2 3.733,2.38 3.057,3.057 C2.38,3.733 2,4.65 2,5.608 L2,14.392 C2,15.349 2.38,16.267 3.057,16.943 C3.392,17.278 3.789,17.544 4.227,17.725 C4.665,17.907 5.134,18 5.608,18 L14.392,18 C15.349,18 16.267,17.62 16.943,16.943 C17.62,16.267 18,15.35 18,14.392 L18,5.608 C18,4.651 17.62,3.733 16.943,3.057 C16.267,2.38 15.35,2 14.392,2 L5.608,2 Z M5.608,0 L14.392,0 C15.129,0 15.858,0.145 16.538,0.427 C17.218,0.709 17.837,1.122 18.358,1.643 C18.878,2.163 19.291,2.781 19.573,3.462 C19.855,4.142 20,4.872 20,5.608 L20,14.392 C20,15.129 19.855,15.858 19.573,16.538 C19.291,17.218 18.878,17.837 18.358,18.358 C17.837,18.878 17.218,19.291 16.538,19.573 C15.858,19.855 15.128,20 14.392,20 L5.608,20 C4.121,20 2.694,19.41 1.643,18.358 C0.59,17.306 0,15.879 0,14.392 L0,5.608 C0,4.121 0.59,2.694 1.643,1.643 C2.694,0.59 4.12,0 5.607,0 L5.608,0 Z" id="Shape"></path>
                <path d="M10,15.3 C8.594,15.3 7.246,14.742 6.252,13.748 C5.258,12.754 4.7,11.406 4.7,10 C4.7,8.594 5.258,7.246 6.252,6.252 C7.246,5.258 8.594,4.7 10,4.7 C11.406,4.7 12.754,5.258 13.748,6.252 C14.742,7.246 15.3,8.594 15.3,10 C15.3,11.406 14.742,12.754 13.748,13.748 C12.754,14.742 11.406,15.3 10,15.3 Z M10,13.3 C10.875,13.3 11.714,12.952 12.333,12.333 C12.953,11.714 13.3,10.875 13.3,10 C13.3,9.125 12.952,8.285 12.333,7.667 C11.714,7.047 10.875,6.7 10,6.7 C9.125,6.7 8.285,7.048 7.667,7.666 C7.047,8.286 6.7,9.125 6.7,10 C6.7,10.875 7.048,11.714 7.666,12.333 C8.286,12.953 9.125,13.3 10,13.3 Z M15.2,6.1 C15.918,6.1 16.5,5.518 16.5,4.8 C16.5,4.082 15.918,3.5 15.2,3.5 C14.482,3.5 13.9,4.082 13.9,4.8 C13.9,5.518 14.482,6.1 15.2,6.1 Z" id="Shape"></path>
            </g>
        </g>
        <g id="utube-—-копия" transform="translate(42.000000, 92.000000)" fill-rule="nonzero">
            <path d="M5.128,0 L30.872,0 C32.655,0 33.302,0.186 33.954,0.534 C34.606,0.883 35.117,1.394 35.466,2.046 C35.814,2.698 36,3.345 36,5.128 L36,30.872 C36,32.655 35.814,33.302 35.466,33.954 C35.117,34.606 34.606,35.117 33.954,35.466 C33.302,35.814 32.655,36 30.872,36 L5.128,36 C3.345,36 2.698,35.814 2.046,35.466 C1.394,35.117 0.883,34.606 0.534,33.954 C0.186,33.302 0,32.655 0,30.872 L0,5.128 C0,3.345 0.186,2.698 0.534,2.046 C0.883,1.394 1.394,0.883 2.046,0.534 C2.698,0.186 3.345,0 5.128,0 Z" id="Path" fill="#E60B00"></path>
            <path d="M18.396,11 C19.503,11.006 22.718,11.036 25.001,11.201 C25.392,11.247 26.245,11.251 27.005,12.047 C27.605,12.655 27.8,14.034 27.8,14.034 C27.8,14.034 28,15.651 28,17.27 L28,18.788 L27.999,18.99 C27.984,20.538 27.8,22.025 27.8,22.025 C27.8,22.025 27.605,23.403 27.005,24.01 C26.245,24.806 25.392,24.81 25.001,24.856 C22.349,25.049 18.438,25.064 18.034,25.066 L17.989,25.066 C17.722,25.063 12.757,25.013 11.2,24.866 C10.755,24.781 9.755,24.806 8.995,24.01 C8.462,23.47 8.248,22.322 8.208,22.073 L8.2,22.025 C8.2,22.025 8,20.406 8,18.788 L8,17.27 L8.001,17.068 C8.016,15.519 8.2,14.034 8.2,14.034 C8.2,14.034 8.395,12.655 8.995,12.048 C9.755,11.251 10.608,11.248 10.999,11.201 C13.282,11.036 16.497,11.006 17.608,11.001 L18.396,11 Z M16,14.902 L16.001,20.725 L21.6,17.825 L16,14.902 L16,14.902 Z" id="Shape" fill="#FFFFFF"></path>
        </g>
        <g id="vk" transform="translate(42.000000, 308.000000)" fill-rule="nonzero">
            <rect id="Rectangle-Copy-4" fill="#4A76A8" x="0" y="0" width="32" height="24" rx="2"></rect>
            <path d="M14.828171,16.9581329 L15.7845513,16.9581329 C15.7845513,16.9581329 16.073442,16.9233896 16.2209283,16.7491971 C16.3566852,16.5892827 16.352341,16.2889673 16.352341,16.2889673 C16.352341,16.2889673 16.3336608,14.8830534 16.9292535,14.6760214 C17.516375,14.472083 18.2703146,16.0348177 19.0694341,16.6356865 C19.6737153,17.090443 20.1328994,16.9907345 20.1328994,16.9907345 L22.2696046,16.9581329 C22.2696046,16.9581329 23.3873727,16.8826971 22.8573778,15.9198792 C22.8139355,15.8411119 22.5487208,15.2076415 21.2686961,13.9059575 C19.9289383,12.5435917 20.1083546,12.7639499 21.7222328,10.4073545 C22.7051128,8.97217055 23.0980476,8.09597301 22.9753234,7.72069775 C22.8582466,7.36327007 22.1353682,7.4577433 22.1353682,7.4577433 L19.7295385,7.47416308 C19.7295385,7.47416308 19.5512082,7.44751068 19.4189267,7.53413097 C19.2896861,7.61908548 19.2064943,7.81707472 19.2064943,7.81707472 C19.2064943,7.81707472 18.8257233,8.92767057 18.3178838,9.87216487 C17.2465989,11.8651454 16.8182587,11.9703272 16.6431866,11.8465839 C16.2359158,11.5581669 16.3375706,10.6879186 16.3375706,10.0696782 C16.3375706,8.13833128 16.6049574,7.33304816 15.8169157,7.12458834 C15.5553936,7.0553397 15.3629446,7.00964988 14.6941517,7.00227288 C13.8357336,6.9925162 13.1091626,7.00512849 12.6977649,7.22596263 C12.424079,7.37278878 12.2129498,7.69999455 12.3415388,7.718794 C12.5005373,7.74211485 12.8606732,7.82516562 13.0516017,8.11001311 C13.2981363,8.47743544 13.2894478,9.30270786 13.2894478,9.30270786 C13.2894478,9.30270786 13.4310694,11.5762525 12.9586354,11.8587203 C12.6343393,12.0524261 12.189491,11.6569236 11.234414,9.84884403 C10.7450375,8.92267324 10.3755615,7.89893565 10.3755615,7.89893565 C10.3755615,7.89893565 10.3043162,7.70760952 10.1772478,7.60528335 C10.0230279,7.48130211 9.80755455,7.44179945 9.80755455,7.44179945 L7.52140816,7.45821923 C7.52140816,7.45821923 7.17821469,7.46868982 7.05223227,7.63217372 C6.94015137,7.77757206 7.04332662,8.07836339 7.04332662,8.07836339 C7.04332662,8.07836339 8.83314574,12.6659072 10.8597249,14.9777646 C12.7179655,17.097344 14.828171,16.9581329 14.828171,16.9581329 L14.828171,16.9581329 Z" id="Path" fill="#FFFFFF"></path>
        </g>
        <g id="vk-hover" transform="translate(0.000000, 308.000000)" fill-rule="nonzero">
            <rect id="Rectangle-Copy-4" stroke="#4A76A8" fill="#FFFFFF" x="0.5" y="0.5" width="31" height="23" rx="2"></rect>
            <path d="M14.828171,16.9581329 L15.7845513,16.9581329 C15.7845513,16.9581329 16.073442,16.9233896 16.2209283,16.7491971 C16.3566852,16.5892827 16.352341,16.2889673 16.352341,16.2889673 C16.352341,16.2889673 16.3336608,14.8830534 16.9292535,14.6760214 C17.516375,14.472083 18.2703146,16.0348177 19.0694341,16.6356865 C19.6737153,17.090443 20.1328994,16.9907345 20.1328994,16.9907345 L22.2696046,16.9581329 C22.2696046,16.9581329 23.3873727,16.8826971 22.8573778,15.9198792 C22.8139355,15.8411119 22.5487208,15.2076415 21.2686961,13.9059575 C19.9289383,12.5435917 20.1083546,12.7639499 21.7222328,10.4073545 C22.7051128,8.97217055 23.0980476,8.09597301 22.9753234,7.72069775 C22.8582466,7.36327007 22.1353682,7.4577433 22.1353682,7.4577433 L19.7295385,7.47416308 C19.7295385,7.47416308 19.5512082,7.44751068 19.4189267,7.53413097 C19.2896861,7.61908548 19.2064943,7.81707472 19.2064943,7.81707472 C19.2064943,7.81707472 18.8257233,8.92767057 18.3178838,9.87216487 C17.2465989,11.8651454 16.8182587,11.9703272 16.6431866,11.8465839 C16.2359158,11.5581669 16.3375706,10.6879186 16.3375706,10.0696782 C16.3375706,8.13833128 16.6049574,7.33304816 15.8169157,7.12458834 C15.5553936,7.0553397 15.3629446,7.00964988 14.6941517,7.00227288 C13.8357336,6.9925162 13.1091626,7.00512849 12.6977649,7.22596263 C12.424079,7.37278878 12.2129498,7.69999455 12.3415388,7.718794 C12.5005373,7.74211485 12.8606732,7.82516562 13.0516017,8.11001311 C13.2981363,8.47743544 13.2894478,9.30270786 13.2894478,9.30270786 C13.2894478,9.30270786 13.4310694,11.5762525 12.9586354,11.8587203 C12.6343393,12.0524261 12.189491,11.6569236 11.234414,9.84884403 C10.7450375,8.92267324 10.3755615,7.89893565 10.3755615,7.89893565 C10.3755615,7.89893565 10.3043162,7.70760952 10.1772478,7.60528335 C10.0230279,7.48130211 9.80755455,7.44179945 9.80755455,7.44179945 L7.52140816,7.45821923 C7.52140816,7.45821923 7.17821469,7.46868982 7.05223227,7.63217372 C6.94015137,7.77757206 7.04332662,8.07836339 7.04332662,8.07836339 C7.04332662,8.07836339 8.83314574,12.6659072 10.8597249,14.9777646 C12.7179655,17.097344 14.828171,16.9581329 14.828171,16.9581329 L14.828171,16.9581329 Z" id="Path" fill="#4A76A8"></path>
        </g>
        <g id="twitter" transform="translate(42.000000, 274.000000)" fill-rule="nonzero">
            <rect id="Rectangle-Copy-2" fill="#1DA1F2" x="-9.6385504e-08" y="4.94e-07" width="32" height="24" rx="2"></rect>
            <path d="M23.7469879,7.42790411 C23.2042168,7.66841013 22.6218312,7.83151857 22.0099276,7.90433784 C22.6347228,7.53019327 23.1129879,6.93674748 23.3396626,6.23178363 C22.7535903,6.57826555 22.1066746,6.82985592 21.4173734,6.96624146 C20.8653975,6.37739808 20.080265,6.010627 19.2094216,6.010627 C17.5387228,6.010627 16.1840963,7.36525351 16.1840963,9.0350366 C16.1840963,9.2718559 16.2108192,9.5031571 16.2624336,9.7243378 C13.7485541,9.5980728 11.5194216,8.39366314 10.0274939,6.56351857 C9.7666987,7.00954266 9.61833725,7.52925351 9.61833725,8.08402459 C9.61833725,9.133639 10.1528192,10.0597595 10.9637589,10.6015909 C10.4679758,10.5850125 10.0016867,10.448627 9.59346978,10.2219282 L9.59346978,10.2597113 C9.59346978,11.7249162 10.6366264,12.9477595 12.0198071,13.2260728 C11.7663854,13.2942656 11.4991565,13.3320487 11.2226987,13.3320487 C11.0273493,13.3320487 10.8384336,13.3126993 10.6532047,13.2758318 C11.0383854,14.4784101 12.155277,15.3529162 13.4785782,15.3768921 C12.4437107,16.1878318 11.1388433,16.6697836 9.72156617,16.6697836 C9.4773734,16.6697836 9.23684328,16.6550366 9.000024,16.6283137 C10.3389879,17.4880969 11.9286023,17.9893981 13.6370842,17.9893981 C19.2020963,17.9893981 22.244024,13.3799764 22.244024,9.3824583 L22.2338794,8.99081977 C22.8282409,8.56689206 23.3424336,8.03426555 23.7469879,7.42790411 Z" id="Path-Copy" fill="#FFFFFF"></path>
        </g>
        <g id="twitter-hover" transform="translate(0.000000, 274.000000)" fill-rule="nonzero">
            <rect id="Rectangle-Copy-2" stroke="#1DA1F2" fill="#FFFFFF" x="0.5" y="0.5" width="31" height="23" rx="2"></rect>
            <path d="M23.746988,7.42790361 C23.2042169,7.66840964 22.6218313,7.83151807 22.0099277,7.90433735 C22.6347229,7.53019277 23.112988,6.93674699 23.3396627,6.23178313 C22.7535904,6.57826506 22.1066747,6.82985542 21.4173735,6.96624096 C20.8653976,6.37739759 20.0802651,6.01062651 19.2094217,6.01062651 C17.5387229,6.01062651 16.1840964,7.36525301 16.1840964,9.03503614 C16.1840964,9.27185542 16.2108193,9.50315663 16.2624337,9.72433735 C13.7485542,9.59807229 11.5194217,8.39366265 10.027494,6.56351807 C9.7666988,7.00954217 9.61833735,7.52925301 9.61833735,8.0840241 C9.61833735,9.13363855 10.1528193,10.059759 10.963759,10.6015904 C10.4679759,10.585012 10.0016867,10.4486265 9.59346988,10.2219277 L9.59346988,10.2597108 C9.59346988,11.7249157 10.6366265,12.947759 12.0198072,13.2260723 C11.7663855,13.2942651 11.4991566,13.3320482 11.2226988,13.3320482 C11.0273494,13.3320482 10.8384337,13.3126988 10.6532048,13.2758313 C11.0383855,14.4784096 12.1552771,15.3529157 13.4785783,15.3768916 C12.4437108,16.1878313 11.1388434,16.6697831 9.72156627,16.6697831 C9.47737349,16.6697831 9.23684337,16.6550361 9.0000241,16.6283133 C10.338988,17.4880964 11.9286024,17.9893976 13.6370843,17.9893976 C19.2020964,17.9893976 22.2440241,13.3799759 22.2440241,9.38245783 L22.2338795,8.99081928 C22.828241,8.56689157 23.3424337,8.03426506 23.746988,7.42790361 Z" id="Path-Copy" fill="#1DA1F2"></path>
        </g>
        <g id="telegram-share" transform="translate(42.000000, 240.000000)" fill-rule="nonzero">
            <rect id="Rectangle" fill="#179DDE" x="0" y="0" width="32" height="24" rx="2"></rect>
            <path d="M11.2852083,12.9530208 L12.9833333,17.1980208 L15.1940625,14.9872917 L18.9844792,18 L21.6533333,6 L8,11.6870833 L11.2852083,12.9530208 Z M17.751875,9.44291667 L13.5728125,13.2546875 L13.0522917,15.2164583 L12.0907292,12.8120833 L17.751875,9.44291667 Z" id="Shape" fill="#FFFFFF"></path>
        </g>
        <g id="telegram-share-hover" transform="translate(0.000000, 240.000000)" fill-rule="nonzero">
            <rect id="Rectangle" stroke="#179DDE" fill="#FFFFFF" x="0.5" y="0.5" width="31" height="23" rx="2"></rect>
            <path d="M11.2852083,12.9530208 L12.9833333,17.1980208 L15.1940625,14.9872917 L18.9844792,18 L21.6533333,6 L8,11.6870833 L11.2852083,12.9530208 Z M17.751875,9.44291667 L13.5728125,13.2546875 L13.0522917,15.2164583 L12.0907292,12.8120833 L17.751875,9.44291667 Z" id="Shape" fill="#179DDE"></path>
        </g>
        <g id="facebook" transform="translate(42.000000, 206.000000)" fill-rule="nonzero">
            <rect id="Rectangle-Copy" fill="#4267B2" x="-1.90000012e-07" y="1.57772643e-07" width="32" height="24" rx="2"></rect>
            <path d="M14.227313,8.3192577 C14.227313,8.6210396 14.227313,9.96801872 14.227313,9.96801872 L13.019378,9.96801872 L13.019378,11.9841301 L14.227313,11.9841301 L14.227313,17.9753041 L16.708668,17.9753041 L16.708668,11.9842971 L18.3737724,11.9842971 C18.3737724,11.9842971 18.5297167,11.0175872 18.6053084,9.96058484 C18.3885845,9.96058484 16.7180509,9.96058484 16.7180509,9.96058484 C16.7180509,9.96058484 16.7180509,8.78767533 16.7180509,8.58208832 C16.7180509,8.37605584 16.9885938,8.09891431 17.2559905,8.09891431 C17.5228861,8.09891431 18.0861901,8.09891431 18.6079256,8.09891431 C18.6079256,7.82441779 18.6079256,6.87597232 18.6079256,6.000028 C17.9114244,6.000028 17.1190346,6.000028 16.7697539,6.000028 C14.1659766,5.99988879 14.227313,8.0180048 14.227313,8.3192577 Z" id="Facebook-Copy" fill="#FFFFFF"></path>
        </g>
        <g id="facebook-hover" transform="translate(0.000000, 206.000000)" fill-rule="nonzero">
            <rect id="Rectangle-Copy" stroke="#4267B2" fill="#FFFFFF" x="0.5" y="0.5" width="31" height="23" rx="2"></rect>
            <path d="M14.2273132,8.31925754 C14.2273132,8.62103944 14.2273132,9.96801856 14.2273132,9.96801856 L13.0193782,9.96801856 L13.0193782,11.9841299 L14.2273132,11.9841299 L14.2273132,17.9753039 L16.7086682,17.9753039 L16.7086682,11.984297 L18.3737726,11.984297 C18.3737726,11.984297 18.5297169,11.017587 18.6053086,9.96058469 C18.3885847,9.96058469 16.718051,9.96058469 16.718051,9.96058469 C16.718051,9.96058469 16.718051,8.78767517 16.718051,8.58208817 C16.718051,8.37605568 16.988594,8.09891415 17.2559907,8.09891415 C17.5228863,8.09891415 18.0861903,8.09891415 18.6079258,8.09891415 C18.6079258,7.82441763 18.6079258,6.87597216 18.6079258,6.00002784 C17.9114246,6.00002784 17.1190348,6.00002784 16.7697541,6.00002784 C14.1659768,5.99988863 14.2273132,8.01800464 14.2273132,8.31925754 Z" id="Facebook-Copy" fill="#4267B2"></path>
        </g>
        <g id="email-hover" transform="translate(0.000000, 138.000000)" fill-rule="nonzero">
            <rect id="Rectangle" stroke="#835CA5" fill="#FFFFFF" x="0.5" y="0.5" width="31" height="23" rx="2"></rect>
            <path d="M22.607,6.29274194 C22.8266452,6.29274194 23.0069032,6.48010153 23.0069032,6.70839994 L23.0069032,16.8770839 C23.0069032,17.1053823 22.8266452,17.2927419 22.607,17.2927419 L22.5111935,17.2927419 L9.49003226,17.2927419 L9.39422581,17.2927419 C9.17458065,17.2923731 9,17.1050135 9,16.8767151 L9,6.70839994 C9,6.48010153 9.17458065,6.29274194 9.39422581,6.29274194 L9.49003226,6.29274194 L9.60251613,6.29274194 L9.81080645,6.29274194 C14.0067742,6.29274194 18.2027419,6.29274194 22.4040323,6.29274194 L22.5111935,6.29274194 L22.607,6.29274194 Z M16.0006129,12.0179054 L18.996871,9.3251644 L21.4466774,7.11815686 L21.4353226,7.11815686 L21.2383871,7.11815686 C17.8141935,7.11815686 14.3843226,7.11815686 10.9540968,7.11815686 L10.7624839,7.11815686 L10.570871,7.11815686 L10.5545484,7.11815686 L13.0043548,9.3251644 L16.0006129,12.0179054 Z M19.5149355,9.94551645 L16.2653226,12.8724569 C16.1187742,13.0070755 15.8934516,13.0129766 15.7415806,12.878358 L12.4862903,9.94551645 L9.79412903,7.52201268 L9.79412903,16.0631024 L12.4862903,13.6336975 L13.167757,13.0133455 C13.3309828,12.8610236 13.5846925,12.8787268 13.7252086,13.0542843 C13.871757,13.2239406 13.8490473,13.4876455 13.6858215,13.6336975 L13.0043548,14.2595818 L10.5545484,16.4606883 L21.4470323,16.4606883 L18.9972258,14.2595818 L18.2219562,13.5788787 C18.0587304,13.4324579 18.0416982,13.1691217 18.1825691,12.9994654 C18.3291175,12.823908 18.5767949,12.8062047 18.7400208,12.9585266 L19.5152903,13.6336975 L22.213129,16.0631024 L22.213129,7.52201268 L19.5149355,9.94551645 Z" id="Shape" fill="#835CA5"></path>
        </g>
        <g id="3points" transform="translate(0.000000, 172.000000)" fill-rule="nonzero">
            <rect id="Rectangle" stroke="#D8D8D8" fill="#FFFFFF" x="0.5" y="0.5" width="31" height="23" rx="2"></rect>
            <path d="M10,14 C8.8954305,14 8,13.1045695 8,12 C8,10.8954305 8.8954305,10 10,10 C11.1045695,10 12,10.8954305 12,12 C12,13.1045695 11.1045695,14 10,14 Z M16,14 C14.8954305,14 14,13.1045695 14,12 C14,10.8954305 14.8954305,10 16,10 C17.1045695,10 18,10.8954305 18,12 C18,13.1045695 17.1045695,14 16,14 Z M22,14 C20.8954305,14 20,13.1045695 20,12 C20,10.8954305 20.8954305,10 22,10 C23.1045695,10 24,10.8954305 24,12 C24,13.1045695 23.1045695,14 22,14 Z" id="Combined-Shape" fill="#D8D8D8"></path>
        </g>
        <g id="3points-hover" transform="translate(42.000000, 172.000000)" fill-rule="nonzero">
            <rect id="Rectangle" fill="#F4F4F4" x="0" y="0" width="32" height="24" rx="2"></rect>
            <path d="M10,14 C8.8954305,14 8,13.1045695 8,12 C8,10.8954305 8.8954305,10 10,10 C11.1045695,10 12,10.8954305 12,12 C12,13.1045695 11.1045695,14 10,14 Z M16,14 C14.8954305,14 14,13.1045695 14,12 C14,10.8954305 14.8954305,10 16,10 C17.1045695,10 18,10.8954305 18,12 C18,13.1045695 17.1045695,14 16,14 Z M22,14 C20.8954305,14 20,13.1045695 20,12 C20,10.8954305 20.8954305,10 22,10 C23.1045695,10 24,10.8954305 24,12 C24,13.1045695 23.1045695,14 22,14 Z" id="Combined-Shape" fill="#D8D8D8"></path>
        </g>
        <g id="email" transform="translate(42.000000, 138.000000)" fill-rule="nonzero">
            <rect id="Rectangle" fill="#835CA5" x="0" y="0" width="32" height="24" rx="2"></rect>
            <path d="M22.607,6.29274194 C22.8266452,6.29274194 23.0069032,6.48010153 23.0069032,6.70839994 L23.0069032,16.8770839 C23.0069032,17.1053823 22.8266452,17.2927419 22.607,17.2927419 L22.5111935,17.2927419 L9.49003226,17.2927419 L9.39422581,17.2927419 C9.17458065,17.2923731 9,17.1050135 9,16.8767151 L9,6.70839994 C9,6.48010153 9.17458065,6.29274194 9.39422581,6.29274194 L9.49003226,6.29274194 L9.60251613,6.29274194 L9.81080645,6.29274194 C14.0067742,6.29274194 18.2027419,6.29274194 22.4040323,6.29274194 L22.5111935,6.29274194 L22.607,6.29274194 Z M16.0006129,12.0179054 L18.996871,9.3251644 L21.4466774,7.11815686 L21.4353226,7.11815686 L21.2383871,7.11815686 C17.8141935,7.11815686 14.3843226,7.11815686 10.9540968,7.11815686 L10.7624839,7.11815686 L10.570871,7.11815686 L10.5545484,7.11815686 L13.0043548,9.3251644 L16.0006129,12.0179054 Z M19.5149355,9.94551645 L16.2653226,12.8724569 C16.1187742,13.0070755 15.8934516,13.0129766 15.7415806,12.878358 L12.4862903,9.94551645 L9.79412903,7.52201268 L9.79412903,16.0631024 L12.4862903,13.6336975 L13.167757,13.0133455 C13.3309828,12.8610236 13.5846925,12.8787268 13.7252086,13.0542843 C13.871757,13.2239406 13.8490473,13.4876455 13.6858215,13.6336975 L13.0043548,14.2595818 L10.5545484,16.4606883 L21.4470323,16.4606883 L18.9972258,14.2595818 L18.2219562,13.5788787 C18.0587304,13.4324579 18.0416982,13.1691217 18.1825691,12.9994654 C18.3291175,12.823908 18.5767949,12.8062047 18.7400208,12.9585266 L19.5152903,13.6336975 L22.213129,16.0631024 L22.213129,7.52201268 L19.5149355,9.94551645 Z" id="Shape" fill="#FFFFFF"></path>
        </g>
        <g id="pinterest-hover" transform="translate(0.000000, 342.000000)" fill-rule="nonzero">
            <rect id="Rectangle" stroke="#CB2027" fill="#FFFFFF" x="0.5" y="0.5" width="31" height="23" rx="2"></rect>
            <path d="M17.128616,15.7914722 C16.3068026,15.727913 15.9614898,15.3203974 15.3169834,14.9291591 C14.9627568,16.7876861 14.5298562,18.5692832 13.2476257,19.5 C12.8513492,16.6909908 13.8285728,14.5811334 14.2824014,12.3416384 C13.5088387,11.0394487 14.3754149,8.41840439 16.0070276,9.06426723 C18.0151514,9.85837041 14.2684494,13.9062038 16.7836908,14.4117712 C19.4095796,14.9396231 20.4815607,9.85546374 18.8530485,8.20176033 C16.5001932,5.81421876 12.0043445,8.14750242 12.5571938,11.5653628 C12.6918697,12.4009346 13.5553455,12.6545903 12.9021191,13.8075707 C11.3962684,13.4740784 10.9470905,12.2864116 11.0048364,10.7030497 C11.0980437,8.11126589 13.3336632,6.29653277 15.5760649,6.04539619 C18.4120092,5.72798745 21.073747,7.08676039 21.4411505,9.7543115 C21.8544795,12.7650439 20.1608578,16.0255563 17.128616,15.7914722 L17.128616,15.7914722 Z" id="Path" fill="#CB2027"></path>
        </g>
        <g id="pinterest" transform="translate(42.000000, 342.000000)" fill-rule="nonzero">
            <rect id="Rectangle" fill="#CB2027" x="0" y="0" width="32" height="24" rx="2"></rect>
            <path d="M17.128616,15.7914722 C16.3068026,15.727913 15.9614898,15.3203974 15.3169834,14.9291591 C14.9627568,16.7876861 14.5298562,18.5692832 13.2476257,19.5 C12.8513492,16.6909908 13.8285728,14.5811334 14.2824014,12.3416384 C13.5088387,11.0394487 14.3754149,8.41840439 16.0070276,9.06426723 C18.0151514,9.85837041 14.2684494,13.9062038 16.7836908,14.4117712 C19.4095796,14.9396231 20.4815607,9.85546374 18.8530485,8.20176033 C16.5001932,5.81421876 12.0043445,8.14750242 12.5571938,11.5653628 C12.6918697,12.4009346 13.5553455,12.6545903 12.9021191,13.8075707 C11.3962684,13.4740784 10.9470905,12.2864116 11.0048364,10.7030497 C11.0980437,8.11126589 13.3336632,6.29653277 15.5760649,6.04539619 C18.4120092,5.72798745 21.073747,7.08676039 21.4411505,9.7543115 C21.8544795,12.7650439 20.1608578,16.0255563 17.128616,15.7914722 L17.128616,15.7914722 Z" id="Path" fill="#FFFFFF"></path>
        </g>
        <g id="Group-5" transform="translate(0.000000, 376.000000)">
            <rect id="Rectangle" fill="#2554A3" x="0" y="0" width="30" height="30"></rect>
            <path d="M17.2060146,13.8486392 C17.2060146,14.3526475 17.2060146,16.6022476 17.2060146,16.6022476 L15.1886331,16.6022476 L15.1886331,19.9693706 L17.2060146,19.9693706 L17.2060146,29.975276 L21.3501445,29.975276 L21.3501445,19.9696495 L24.1310481,19.9696495 C24.1310481,19.9696495 24.3914919,18.3551399 24.5177381,16.5898322 C24.1557859,16.5898322 21.365815,16.5898322 21.365815,16.5898322 C21.365815,16.5898322 21.365815,14.6309471 21.365815,14.2875946 C21.365815,13.9434982 21.8176507,13.480642 22.264232,13.480642 C22.7099764,13.480642 23.6507547,13.480642 24.5221091,13.480642 C24.5221091,13.0222033 24.5221091,11.4381973 24.5221091,9.975276 C23.3588772,9.975276 22.0355009,9.975276 21.4521646,9.975276 C17.1035762,9.9750435 17.2060146,13.3455145 17.2060146,13.8486392 Z" id="Facebook-Copy" fill="#FFFFFF" fill-rule="nonzero"></path>
        </g>
        <g id="Group-6" transform="translate(0.000000, 456.000000)">
            <rect id="Rectangle" fill="#0078BB" x="0" y="0" width="30" height="30"></rect>
            <g id="1384030" transform="translate(5.000000, 5.000000)" fill="#FFFFFF" fill-rule="nonzero">
                <path d="M2.42541503,0.0103759688 C0.958862312,0.0103759688 0,0.973388688 0,2.23913575 C0,3.47692872 0.930297844,4.46740722 2.36914062,4.46740722 L2.39697266,4.46740722 C3.89221191,4.46740722 4.82275391,3.47692872 4.82275391,2.23913575 C4.79479981,0.973388687 3.89221191,0.0103759688 2.42541503,0.0103759688 Z" id="Path"></path>
                <polygon id="Path" points="0.253417969 6.22851562 4.5407715 6.22851562 4.5407715 19.1271973 0.253417969 19.1271973"></polygon>
                <path d="M15.064209,5.92578125 C12.7513428,5.92578125 11.2004394,8.09912109 11.2004394,8.09912109 L11.2004394,6.22851562 L6.91296388,6.22851562 L6.91296388,19.1271973 L11.2001953,19.1271973 L11.2001953,11.9240723 C11.2001953,11.5384522 11.2281494,11.1534424 11.3414307,10.8776856 C11.6513672,10.107666 12.3566894,9.30993653 13.5411377,9.30993653 C15.0925293,9.30993653 15.7130127,10.4927978 15.7130127,12.2268066 L15.7130127,19.1271973 L20,19.1271973 L20,11.7313233 C20,7.76940919 17.8847656,5.92578125 15.064209,5.92578125 Z" id="Path"></path>
            </g>
        </g>
        <g id="Group-7" transform="translate(0.000000, 496.000000)">
            <rect id="Rectangle" fill="#FF9900" x="0" y="0" width="30" height="30"></rect>
            <g id="732231" transform="translate(7.000000, 4.000000)" fill="#FFFFFF" fill-rule="nonzero">
                <path d="M7.90633785,11.2444444 C11.0069934,11.2444444 13.5285601,8.72287778 13.5285601,5.62222222 C13.5285601,2.52156667 11.0069934,0 7.90633785,0 C4.80568229,0 2.28411563,2.52156667 2.28411563,5.62222222 C2.28411563,8.72287778 4.80568229,11.2444444 7.90633785,11.2444444 Z M7.90633785,2.81111111 C9.45666562,2.81111111 10.717449,4.07189444 10.717449,5.62222222 C10.717449,7.17255 9.45666562,8.43333333 7.90633785,8.43333333 C6.35601007,8.43333333 5.09522674,7.17255 5.09522674,5.62222222 C5.09522674,4.07189444 6.35601007,2.81111111 7.90633785,2.81111111 Z" id="Shape"></path>
                <path d="M15.3614045,11.0884278 C14.8118323,10.5388556 13.9235212,10.5388556 13.373949,11.0884278 C10.3604378,14.1019389 5.45504896,14.1019389 2.44013229,11.0884278 C1.89056007,10.5388556 1.00224896,10.5388556 0.452676736,11.0884278 C-0.0968954861,11.638 -0.0968954861,12.5263111 0.452676736,13.0772889 C2.20118785,14.8258 4.41774896,15.8223389 6.70318229,16.0823667 L2.6959434,20.0896056 C2.14637118,20.6391778 2.14637118,21.5274889 2.6959434,22.0770611 C3.24551563,22.6266333 4.13382674,22.6266333 4.68339896,22.0770611 L7.90633785,18.8541222 L11.1292767,22.0770611 C11.4033601,22.3511444 11.7631823,22.4888889 12.1230045,22.4888889 C12.4828267,22.4888889 12.842649,22.3511444 13.1167323,22.0770611 C13.6663045,21.5274889 13.6663045,20.6391778 13.1167323,20.0896056 L9.1094934,16.0823667 C11.3949267,15.8223389 13.6114878,14.8258 15.359999,13.0772889 C15.9095712,12.5277167 15.9095712,11.638 15.3614045,11.0884278 Z" id="Path"></path>
            </g>
        </g>
        <g id="Group-3" transform="translate(0.000000, 576.000000)">
            <rect id="Rectangle" fill="#2D76A6" x="0" y="0" width="30" height="30"></rect>
            <path d="M15.5414615,20.9497594 C15.5414615,20.9497594 15.8881304,20.9080675 16.0651139,20.6990365 C16.2280222,20.5071392 16.2228092,20.1467607 16.2228092,20.1467607 C16.2228092,20.1467607 16.2003929,18.459664 16.9151042,18.2112256 C17.61965,17.9664996 18.5243775,19.8417812 19.4833209,20.5628238 C20.2084583,21.1085316 20.7594792,20.9888814 20.7594792,20.9888814 L23.3235255,20.9497594 C23.3235255,20.9497594 24.6648472,20.8592365 24.0288533,19.703855 C23.9767225,19.6093342 23.6584649,18.8491698 22.1224353,17.287149 C20.5147259,15.65231 20.7300255,15.9167399 22.6666793,13.0888254 C23.8461353,11.3666046 24.3176571,10.3151676 24.170388,9.86483729 C24.0298959,9.43592408 23.1624418,9.54929195 23.1624418,9.54929195 L20.2754461,9.56899569 C20.2754461,9.56899569 20.0614498,9.53701281 19.902712,9.64095716 C19.7476233,9.74290257 19.6477931,9.98048966 19.6477931,9.98048966 C19.6477931,9.98048966 19.1908679,11.3132047 18.5814605,12.4465978 C17.2959186,14.8381745 16.7819104,14.9643926 16.5718239,14.8159007 C16.0830989,14.4698003 16.2050847,13.4255023 16.2050847,12.6836138 C16.2050847,10.3659975 16.5259488,9.39965779 15.5802988,9.149506 C15.2664723,9.06640764 15.0355335,9.01157985 14.232982,9.00272745 C13.2028803,8.99101944 12.3309951,9.00615418 11.8373179,9.27115515 C11.5088948,9.44734653 11.2555397,9.83999345 11.4098465,9.86255279 C11.6006447,9.89053781 12.0328078,9.99019874 12.261922,10.3320157 C12.5577635,10.7729225 12.5473373,11.7632494 12.5473373,11.7632494 C12.5473373,11.7632494 12.7172833,14.491503 12.1503625,14.8304643 C11.7612071,15.0629113 11.2273892,14.5883083 10.0812968,12.4186128 C9.49404498,11.3072079 9.05067379,10.0787228 9.05067379,10.0787228 C9.05067379,10.0787228 8.96517943,9.84913142 8.81269735,9.72634001 C8.62763347,9.57756253 8.36906545,9.53015933 8.36906545,9.53015933 L5.62568979,9.54986307 C5.62568979,9.54986307 5.21385763,9.56242778 5.06267872,9.75860846 C4.92818164,9.93308646 5.05199194,10.2940361 5.05199194,10.2940361 C5.05199194,10.2940361 7.19977488,15.7990886 9.63166986,18.5733175 C11.8615586,21.1168128 14.3938052,20.9497594 14.3938052,20.9497594 L15.5414615,20.9497594 Z" id="Path" fill="#FFFFFF" fill-rule="nonzero"></path>
        </g>
        <g id="Path" transform="translate(0.000000, 616.000000)">
            <mask id="mask-2" fill="white">
                <use xlink:href="#path-1"></use>
            </mask>
            <use id="Mask" fill="#FF1E22" xlink:href="#path-1"></use>
            <path d="M17.0302463,24.2202973 C15.417057,24.0955329 14.7392208,23.2955949 13.4740786,22.5276086 C12.7787449,26.1758283 11.928977,29.6730374 9.41200604,31.5 C8.63412995,25.986019 10.5523837,21.844447 11.4432324,17.4484013 C9.92475749,14.8922511 11.6258145,9.74723824 14.8286098,11.0150431 C18.7704824,12.5738382 11.4158452,20.5195852 16.3531709,21.5119953 C21.5076933,22.548149 23.6119525,12.5681325 20.4152434,9.32197398 C15.7966756,4.6353183 6.97149109,9.21546771 8.05671379,15.924601 C8.3210776,17.5647975 10.0160486,18.0627143 8.73378938,20.3259721 C5.77786023,19.6713391 4.89614065,17.3399931 5.00949371,14.2319124 C5.19245619,9.14433674 9.58089447,5.58208284 13.982646,5.08911104 C19.5494996,4.46604944 24.7743923,7.13327039 25.4955918,12.3695744 C26.3069413,18.2795306 22.9824246,24.6797957 17.0302463,24.2202973 L17.0302463,24.2202973 Z" fill="#FFFFFF" fill-rule="nonzero" mask="url(#mask-2)"></path>
        </g>
        <g id="Group-4" transform="translate(0.000000, 536.000000)">
            <circle id="Oval-Copy-2" fill="#00AEF1" cx="15" cy="15" r="15"></circle>
            <path d="M24,9.77473603 C23.3374989,10.0759013 22.6266447,10.2801482 21.8797612,10.3713336 C22.6423801,9.90282408 23.2261458,9.1597022 23.5028227,8.27693571 C22.7874686,8.71080566 21.9978496,9.02585096 21.1564953,9.19663501 C20.4827589,8.45927634 19.5244339,8 18.4614909,8 C16.4222523,8 14.7688084,9.69628399 14.7688084,11.7872119 C14.7688084,12.0837606 14.8014261,12.3733995 14.8644262,12.6503653 C11.7960094,12.4922544 9.07515209,10.9840742 7.25411972,8.69233926 C6.93579565,9.25085744 6.75470711,9.90164729 6.75470711,10.5963401 C6.75470711,11.9106833 7.40709055,13.0703855 8.39691563,13.7488751 C7.79176762,13.7281153 7.2226197,13.5573313 6.72435412,13.2734556 L6.72435412,13.3207682 C6.72435412,15.1555202 7.99762089,16.6867832 9.68591774,17.0352914 C9.37659369,17.1206834 9.0504167,17.167996 8.71297501,17.167996 C8.47453345,17.167996 8.24394479,17.1437664 8.0178562,17.0976003 C8.488004,18.6034872 9.85127097,19.6985571 11.4664795,19.7285801 C10.2033303,20.7440512 8.61062193,21.3475586 6.88070732,21.3475586 C6.58264801,21.3475586 6.2890593,21.3290922 6,21.2956293 C7.63432625,22.372263 9.57459405,23 11.6599504,23 C18.4525497,23 22.165497,17.2280118 22.165497,12.2222586 L22.1531146,11.7318429 C22.8785864,11.2009941 23.506205,10.5340311 24,9.77473603 Z" id="Path-Copy" fill="#FFFFFF" fill-rule="nonzero"></path>
        </g>
        <g id="Group-8" transform="translate(0.000000, 416.000000)">
            <circle id="Oval-Copy-3" fill="#FE4F41" cx="15" cy="15" r="15"></circle>
            <g id="Group" transform="translate(6.000000, 9.000000)" fill="#F2F2F2" fill-rule="nonzero">
                <polygon id="Path" points="18.0987383 4.88928516 18.0987383 6.45446484 16.3494805 6.45446484 16.3494805 8.20372266 14.7843008 8.20372266 14.7843008 6.45446484 13.0356445 6.45446484 13.0356445 4.88928516 14.7843008 4.88928516 14.7843008 3.14002734 16.3494805 3.14002734 16.3494805 4.88928516"></polygon>
                <path d="M11.2133828,4.61682031 C11.2784375,4.95867969 11.3122109,5.311625 11.3122109,5.671875 C11.3122109,6.07633984 11.2698438,6.47036328 11.1888477,6.85098047 C10.6468828,9.40366797 8.37959375,11.3186563 5.66547266,11.3186563 C3.51484375,11.3186563 1.64523047,10.1168633 0.691453125,8.34796875 C0.262367188,7.55124219 0.0186914063,6.64039062 0.0186914063,5.671875 C0.0186914063,2.55324609 2.54684375,0.0251367187 5.66542969,0.0251367187 C7.03540234,0.0251367187 8.29180859,0.513089844 9.26947656,1.32511328 L7.44046875,2.82274609 C6.92553125,2.501125 6.31726562,2.31515625 5.66542969,2.31515625 C4.19362109,2.31515625 2.94271484,3.26283203 2.48973828,4.58124219 C2.37251953,4.92310156 2.30871094,5.29014063 2.30871094,5.67191797 C2.30871094,6.08622266 2.38360547,6.48333984 2.52166406,6.84977734 C2.99857422,8.12276953 4.22610547,9.02872266 5.66542969,9.02872266 C6.28413672,9.02872266 6.86352734,8.86174609 7.36071875,8.56960156 C8.02114844,8.18232422 8.53733203,7.57650781 8.80923828,6.85102344 L5.7894375,6.85102344 L5.7894375,4.61686328 L8.85276563,4.61686328 L11.2134258,4.61686328 L11.2134258,4.61682031 L11.2133828,4.61682031 Z" id="Path"></path>
            </g>
        </g>
        <g id="Group-5" transform="translate(42.000000, 376.000000)">
            <rect id="Rectangle" fill="#2666D2" x="0" y="0" width="30" height="30"></rect>
            <path d="M17.2060146,13.8486392 C17.2060146,14.3526475 17.2060146,16.6022476 17.2060146,16.6022476 L15.1886331,16.6022476 L15.1886331,19.9693706 L17.2060146,19.9693706 L17.2060146,29.975276 L21.3501445,29.975276 L21.3501445,19.9696495 L24.1310481,19.9696495 C24.1310481,19.9696495 24.3914919,18.3551399 24.5177381,16.5898322 C24.1557859,16.5898322 21.365815,16.5898322 21.365815,16.5898322 C21.365815,16.5898322 21.365815,14.6309471 21.365815,14.2875946 C21.365815,13.9434982 21.8176507,13.480642 22.264232,13.480642 C22.7099764,13.480642 23.6507547,13.480642 24.5221091,13.480642 C24.5221091,13.0222033 24.5221091,11.4381973 24.5221091,9.975276 C23.3588772,9.975276 22.0355009,9.975276 21.4521646,9.975276 C17.1035762,9.9750435 17.2060146,13.3455145 17.2060146,13.8486392 Z" id="Facebook-Copy" fill="#FFFFFF" fill-rule="nonzero"></path>
        </g>
        <g id="Group-6" transform="translate(42.000000, 456.000000)">
            <rect id="Rectangle" fill="#0092E3" x="0" y="0" width="30" height="30"></rect>
            <g id="1384030" transform="translate(5.000000, 5.000000)" fill="#FFFFFF" fill-rule="nonzero">
                <path d="M2.42541503,0.0103759688 C0.958862312,0.0103759688 0,0.973388688 0,2.23913575 C0,3.47692872 0.930297844,4.46740722 2.36914062,4.46740722 L2.39697266,4.46740722 C3.89221191,4.46740722 4.82275391,3.47692872 4.82275391,2.23913575 C4.79479981,0.973388687 3.89221191,0.0103759688 2.42541503,0.0103759688 Z" id="Path"></path>
                <polygon id="Path" points="0.253417969 6.22851562 4.5407715 6.22851562 4.5407715 19.1271973 0.253417969 19.1271973"></polygon>
                <path d="M15.064209,5.92578125 C12.7513428,5.92578125 11.2004394,8.09912109 11.2004394,8.09912109 L11.2004394,6.22851562 L6.91296388,6.22851562 L6.91296388,19.1271973 L11.2001953,19.1271973 L11.2001953,11.9240723 C11.2001953,11.5384522 11.2281494,11.1534424 11.3414307,10.8776856 C11.6513672,10.107666 12.3566894,9.30993653 13.5411377,9.30993653 C15.0925293,9.30993653 15.7130127,10.4927978 15.7130127,12.2268066 L15.7130127,19.1271973 L20,19.1271973 L20,11.7313233 C20,7.76940919 17.8847656,5.92578125 15.064209,5.92578125 Z" id="Path"></path>
            </g>
        </g>
        <g id="Group-7" transform="translate(42.000000, 496.000000)">
            <rect id="Rectangle" fill="#FF7D00" x="0" y="0" width="30" height="30"></rect>
            <g id="732231" transform="translate(7.000000, 4.000000)" fill="#FFFFFF" fill-rule="nonzero">
                <path d="M7.90633785,11.2444444 C11.0069934,11.2444444 13.5285601,8.72287778 13.5285601,5.62222222 C13.5285601,2.52156667 11.0069934,0 7.90633785,0 C4.80568229,0 2.28411563,2.52156667 2.28411563,5.62222222 C2.28411563,8.72287778 4.80568229,11.2444444 7.90633785,11.2444444 Z M7.90633785,2.81111111 C9.45666562,2.81111111 10.717449,4.07189444 10.717449,5.62222222 C10.717449,7.17255 9.45666562,8.43333333 7.90633785,8.43333333 C6.35601007,8.43333333 5.09522674,7.17255 5.09522674,5.62222222 C5.09522674,4.07189444 6.35601007,2.81111111 7.90633785,2.81111111 Z" id="Shape"></path>
                <path d="M15.3614045,11.0884278 C14.8118323,10.5388556 13.9235212,10.5388556 13.373949,11.0884278 C10.3604378,14.1019389 5.45504896,14.1019389 2.44013229,11.0884278 C1.89056007,10.5388556 1.00224896,10.5388556 0.452676736,11.0884278 C-0.0968954861,11.638 -0.0968954861,12.5263111 0.452676736,13.0772889 C2.20118785,14.8258 4.41774896,15.8223389 6.70318229,16.0823667 L2.6959434,20.0896056 C2.14637118,20.6391778 2.14637118,21.5274889 2.6959434,22.0770611 C3.24551563,22.6266333 4.13382674,22.6266333 4.68339896,22.0770611 L7.90633785,18.8541222 L11.1292767,22.0770611 C11.4033601,22.3511444 11.7631823,22.4888889 12.1230045,22.4888889 C12.4828267,22.4888889 12.842649,22.3511444 13.1167323,22.0770611 C13.6663045,21.5274889 13.6663045,20.6391778 13.1167323,20.0896056 L9.1094934,16.0823667 C11.3949267,15.8223389 13.6114878,14.8258 15.359999,13.0772889 C15.9095712,12.5277167 15.9095712,11.638 15.3614045,11.0884278 Z" id="Path"></path>
            </g>
        </g>
        <g id="Group-3" transform="translate(42.000000, 576.000000)">
            <rect id="Rectangle" fill="#2188CC" x="0" y="0" width="30" height="30"></rect>
            <path d="M15.5414615,20.9497594 C15.5414615,20.9497594 15.8881304,20.9080675 16.0651139,20.6990365 C16.2280222,20.5071392 16.2228092,20.1467607 16.2228092,20.1467607 C16.2228092,20.1467607 16.2003929,18.459664 16.9151042,18.2112256 C17.61965,17.9664996 18.5243775,19.8417812 19.4833209,20.5628238 C20.2084583,21.1085316 20.7594792,20.9888814 20.7594792,20.9888814 L23.3235255,20.9497594 C23.3235255,20.9497594 24.6648472,20.8592365 24.0288533,19.703855 C23.9767225,19.6093342 23.6584649,18.8491698 22.1224353,17.287149 C20.5147259,15.65231 20.7300255,15.9167399 22.6666793,13.0888254 C23.8461353,11.3666046 24.3176571,10.3151676 24.170388,9.86483729 C24.0298959,9.43592408 23.1624418,9.54929195 23.1624418,9.54929195 L20.2754461,9.56899569 C20.2754461,9.56899569 20.0614498,9.53701281 19.902712,9.64095716 C19.7476233,9.74290257 19.6477931,9.98048966 19.6477931,9.98048966 C19.6477931,9.98048966 19.1908679,11.3132047 18.5814605,12.4465978 C17.2959186,14.8381745 16.7819104,14.9643926 16.5718239,14.8159007 C16.0830989,14.4698003 16.2050847,13.4255023 16.2050847,12.6836138 C16.2050847,10.3659975 16.5259488,9.39965779 15.5802988,9.149506 C15.2664723,9.06640764 15.0355335,9.01157985 14.232982,9.00272745 C13.2028803,8.99101944 12.3309951,9.00615418 11.8373179,9.27115515 C11.5088948,9.44734653 11.2555397,9.83999345 11.4098465,9.86255279 C11.6006447,9.89053781 12.0328078,9.99019874 12.261922,10.3320157 C12.5577635,10.7729225 12.5473373,11.7632494 12.5473373,11.7632494 C12.5473373,11.7632494 12.7172833,14.491503 12.1503625,14.8304643 C11.7612071,15.0629113 11.2273892,14.5883083 10.0812968,12.4186128 C9.49404498,11.3072079 9.05067379,10.0787228 9.05067379,10.0787228 C9.05067379,10.0787228 8.96517943,9.84913142 8.81269735,9.72634001 C8.62763347,9.57756253 8.36906545,9.53015933 8.36906545,9.53015933 L5.62568979,9.54986307 C5.62568979,9.54986307 5.21385763,9.56242778 5.06267872,9.75860846 C4.92818164,9.93308646 5.05199194,10.2940361 5.05199194,10.2940361 C5.05199194,10.2940361 7.19977488,15.7990886 9.63166986,18.5733175 C11.8615586,21.1168128 14.3938052,20.9497594 14.3938052,20.9497594 L15.5414615,20.9497594 Z" id="Path" fill="#FFFFFF" fill-rule="nonzero"></path>
        </g>
        <g id="Path" transform="translate(42.000000, 616.000000)">
            <mask id="mask-4" fill="white">
                <use xlink:href="#path-3"></use>
            </mask>
            <use id="Mask" fill="#E1080B" xlink:href="#path-3"></use>
            <path d="M17.0302463,24.2202973 C15.417057,24.0955329 14.7392208,23.2955949 13.4740786,22.5276086 C12.7787449,26.1758283 11.928977,29.6730374 9.41200604,31.5 C8.63412995,25.986019 10.5523837,21.844447 11.4432324,17.4484013 C9.92475749,14.8922511 11.6258145,9.74723824 14.8286098,11.0150431 C18.7704824,12.5738382 11.4158452,20.5195852 16.3531709,21.5119953 C21.5076933,22.548149 23.6119525,12.5681325 20.4152434,9.32197398 C15.7966756,4.6353183 6.97149109,9.21546771 8.05671379,15.924601 C8.3210776,17.5647975 10.0160486,18.0627143 8.73378938,20.3259721 C5.77786023,19.6713391 4.89614065,17.3399931 5.00949371,14.2319124 C5.19245619,9.14433674 9.58089447,5.58208284 13.982646,5.08911104 C19.5494996,4.46604944 24.7743923,7.13327039 25.4955918,12.3695744 C26.3069413,18.2795306 22.9824246,24.6797957 17.0302463,24.2202973 L17.0302463,24.2202973 Z" fill="#FFFFFF" fill-rule="nonzero" mask="url(#mask-4)"></path>
        </g>
        <g id="Group-4" transform="translate(42.000000, 536.000000)">
            <circle id="Oval-Copy-2" fill="#0090C8" cx="15" cy="15" r="15"></circle>
            <path d="M24,9.77473603 C23.3374989,10.0759013 22.6266447,10.2801482 21.8797612,10.3713336 C22.6423801,9.90282408 23.2261458,9.1597022 23.5028227,8.27693571 C22.7874686,8.71080566 21.9978496,9.02585096 21.1564953,9.19663501 C20.4827589,8.45927634 19.5244339,8 18.4614909,8 C16.4222523,8 14.7688084,9.69628399 14.7688084,11.7872119 C14.7688084,12.0837606 14.8014261,12.3733995 14.8644262,12.6503653 C11.7960094,12.4922544 9.07515209,10.9840742 7.25411972,8.69233926 C6.93579565,9.25085744 6.75470711,9.90164729 6.75470711,10.5963401 C6.75470711,11.9106833 7.40709055,13.0703855 8.39691563,13.7488751 C7.79176762,13.7281153 7.2226197,13.5573313 6.72435412,13.2734556 L6.72435412,13.3207682 C6.72435412,15.1555202 7.99762089,16.6867832 9.68591774,17.0352914 C9.37659369,17.1206834 9.0504167,17.167996 8.71297501,17.167996 C8.47453345,17.167996 8.24394479,17.1437664 8.0178562,17.0976003 C8.488004,18.6034872 9.85127097,19.6985571 11.4664795,19.7285801 C10.2033303,20.7440512 8.61062193,21.3475586 6.88070732,21.3475586 C6.58264801,21.3475586 6.2890593,21.3290922 6,21.2956293 C7.63432625,22.372263 9.57459405,23 11.6599504,23 C18.4525497,23 22.165497,17.2280118 22.165497,12.2222586 L22.1531146,11.7318429 C22.8785864,11.2009941 23.506205,10.5340311 24,9.77473603 Z" id="Path-Copy" fill="#FFFFFF" fill-rule="nonzero"></path>
        </g>
        <g id="Group-8" transform="translate(42.000000, 416.000000)">
            <circle id="Oval-Copy-3" fill="#FE2D1D" cx="15" cy="15" r="15"></circle>
            <g id="Group" transform="translate(6.000000, 9.000000)" fill="#F2F2F2" fill-rule="nonzero">
                <polygon id="Path" points="18.0987383 4.88928516 18.0987383 6.45446484 16.3494805 6.45446484 16.3494805 8.20372266 14.7843008 8.20372266 14.7843008 6.45446484 13.0356445 6.45446484 13.0356445 4.88928516 14.7843008 4.88928516 14.7843008 3.14002734 16.3494805 3.14002734 16.3494805 4.88928516"></polygon>
                <path d="M11.2133828,4.61682031 C11.2784375,4.95867969 11.3122109,5.311625 11.3122109,5.671875 C11.3122109,6.07633984 11.2698438,6.47036328 11.1888477,6.85098047 C10.6468828,9.40366797 8.37959375,11.3186563 5.66547266,11.3186563 C3.51484375,11.3186563 1.64523047,10.1168633 0.691453125,8.34796875 C0.262367188,7.55124219 0.0186914063,6.64039062 0.0186914063,5.671875 C0.0186914063,2.55324609 2.54684375,0.0251367187 5.66542969,0.0251367187 C7.03540234,0.0251367187 8.29180859,0.513089844 9.26947656,1.32511328 L7.44046875,2.82274609 C6.92553125,2.501125 6.31726562,2.31515625 5.66542969,2.31515625 C4.19362109,2.31515625 2.94271484,3.26283203 2.48973828,4.58124219 C2.37251953,4.92310156 2.30871094,5.29014063 2.30871094,5.67191797 C2.30871094,6.08622266 2.38360547,6.48333984 2.52166406,6.84977734 C2.99857422,8.12276953 4.22610547,9.02872266 5.66542969,9.02872266 C6.28413672,9.02872266 6.86352734,8.86174609 7.36071875,8.56960156 C8.02114844,8.18232422 8.53733203,7.57650781 8.80923828,6.85102344 L5.7894375,6.85102344 L5.7894375,4.61686328 L8.85276563,4.61686328 L11.2134258,4.61686328 L11.2134258,4.61682031 L11.2133828,4.61682031 Z" id="Path"></path>
            </g>
        </g>
    </g>
</svg>