<?xml version="1.0" encoding="UTF-8"?>
<svg width="37px" height="37px" viewBox="0 0 37 37" version="1.1" xmlns="http://www.w3.org/2000/svg" xmlns:xlink="http://www.w3.org/1999/xlink">
    <!-- Generator: Sketch 54 (76480) - https://sketchapp.com -->
    <title>up</title>
    <desc>Created with Sketch.</desc>
    <g id="obyava_full_v2-промежуточный" stroke="none" stroke-width="1" fill="none" fill-rule="evenodd">
        <g id="Artboard" transform="translate(-118.000000, -919.000000)">
            <g id="up" transform="translate(118.000000, 919.000000)">
                <rect id="Rectangle-Copy-23" fill="#2B3D61" opacity="0.158203125" x="0" y="0" width="37" height="37" rx="4"></rect>
                <g id="25216-copy" transform="translate(8.000000, 12.000000)" fill="#FFFFFF" fill-rule="nonzero">
                    <path d="M1.26238208,11.7938854 C1.40263856,11.931247 1.56404776,12 1.74638856,12 C1.92872936,12 2.09013856,11.931247 2.23039505,11.7938854 L10.5001474,3.69041887 L18.7701946,11.7938854 C18.9103774,11.931247 19.0718603,12 19.2539063,12 C19.4365419,12 19.5979511,11.931247 19.7381338,11.7938854 L20.790168,10.7628069 C20.9303508,10.6254454 21,10.4672123 21,10.28883 C21,10.1100867 20.9299086,9.95192585 20.790168,9.81456428 L10.9837854,0.206042369 C10.8436763,0.0683919114 10.6824882,0 10.5001474,0 C10.3178066,0 10.1563237,0.0686085701 10.0161409,0.206042369 L0.210495283,9.81449206 C0.0700176887,9.95192585 0,10.10987 0,10.2889745 C0,10.4672123 0.0702387972,10.6253731 0.210495283,10.7628069 L1.26238208,11.7938854 Z" id="Path"></path>
                </g>
            </g>
        </g>
    </g>
</svg>